<?xml version="1.0" encoding="UTF-8"?>
<svg xmlns="http://www.w3.org/2000/svg" version="1.1" width="1024" height="1024" style="background-color:transparent;">
  <path d="M0 0 C337.92 0 675.84 0 1024 0 C1024 337.92 1024 675.84 1024 1024 C686.08 1024 348.16 1024 0 1024 C0 686.08 0 348.16 0 0 Z " fill="#00112F" transform="translate(0,0)"/>
  <path d="M0 0 C7.68624527 -0.1017053 15.37231595 -0.17159403 23.05908203 -0.21972656 C25.67210373 -0.23979933 28.28508075 -0.26706358 30.89794922 -0.30175781 C34.66124522 -0.35046435 38.42394549 -0.37301311 42.1875 -0.390625 C43.34926758 -0.41127014 44.51103516 -0.43191528 45.70800781 -0.45318604 C52.30819863 -0.45499795 57.58315661 -0.03043115 63 4 C64.75585938 5.9375 64.75585938 5.9375 65.84375 8 C66.27655273 8.78963135 66.70935547 9.5792627 67.15527344 10.39282227 C67.5990332 11.25319092 68.04279297 12.11355957 68.5 13 C69.53529543 14.90558018 70.57181842 16.81049379 71.609375 18.71484375 C72.15529297 19.73304199 72.70121094 20.75124023 73.26367188 21.80029297 C76.00395403 26.85008739 78.87431681 31.8240997 81.73934937 36.80386353 C83.4481069 39.7772781 85.14728719 42.75615831 86.84765625 45.734375 C89.26207247 49.96032334 91.67787824 54.18547437 94.09501648 58.40986633 C102.77566874 73.58090203 111.41981408 88.77186365 120 104 C120.4448877 104.78922852 120.88977539 105.57845703 121.34814453 106.39160156 C121.98212158 107.51646973 121.98212158 107.51646973 122.62890625 108.6640625 C123.03133545 109.37594727 123.43376465 110.08783203 123.84838867 110.82128906 C124.59865238 112.159262 125.34017722 113.5021848 126.0715332 114.85058594 C127.54816716 117.55863666 129.01902788 120.02323958 130.9765625 122.4140625 C132.81840628 124.74473685 133.67099444 126.03894997 134 129 C132.25537467 133.84072098 129.54159884 137.93051385 126.75146484 142.23193359 C123.46077496 147.4326364 120.41880281 152.78286849 117.32794189 158.10388184 C115.49373631 161.25398392 113.64293135 164.39429054 111.79296875 167.53515625 C109.16072177 172.00452362 106.56658344 176.49275106 104 181 C101.32859031 177.78806324 99.08475775 174.61666016 97.07421875 170.95703125 C96.53273193 169.97911621 95.99124512 169.00120117 95.43334961 167.99365234 C94.85721924 166.94387207 94.28108887 165.8940918 93.6875 164.8125 C92.43375654 162.5499689 91.17849982 160.2882758 89.921875 158.02734375 C89.59960434 157.44704407 89.27733368 156.86674438 88.94529724 156.26885986 C85.51138471 150.0979191 81.97900981 143.9847136 78.4375 137.875 C70.76083495 124.61693153 63.19953395 111.29533644 55.71875 97.92578125 C50.55755134 88.70654089 45.29112978 79.55040422 40.00268555 70.40356445 C34.94942876 61.6593964 29.93655795 52.89276461 24.93637085 44.11816406 C19.53388409 34.64089375 14.06165836 25.20594605 8.51538086 15.81201172 C7.97921143 14.8995166 7.44304199 13.98702148 6.890625 13.046875 C6.42688477 12.26151367 5.96314453 11.47615234 5.48535156 10.66699219 C3.53738236 7.16935649 1.76649244 3.59195626 0 0 Z " fill="#006AF5" transform="translate(104,422)"/>
  <path d="M0 0 C6.73159202 4.86066072 12.06761831 10.67425466 16 18 C16.53882813 18.99128906 17.07765625 19.98257812 17.6328125 21.00390625 C19.80709829 26.23002994 19.47377898 31.74202816 19.4375 37.3125 C19.45748047 38.38951172 19.47746094 39.46652344 19.49804688 40.57617188 C19.49108977 52.06235117 15.85294484 60.65042623 8 69 C2.33042588 74.33235038 -3.60704652 77.62506158 -11 80 C-11.59039063 80.19207031 -12.18078125 80.38414062 -12.7890625 80.58203125 C-25.73598346 83.02959405 -38.25387989 80.78283036 -49.1640625 73.390625 C-58.33739406 66.44231429 -63.3458743 57.17399038 -66 46 C-67.16693667 33.05514438 -65.55868456 20.73635443 -57.6875 9.9921875 C-43.91610206 -6.26571285 -18.63346248 -11.16446285 0 0 Z " fill="#006BF4" transform="translate(885,469)"/>
  <path d="M0 0 C1.74548378 0.00848969 1.74548378 0.00848969 3.52622986 0.01715088 C7.21453341 0.03940234 10.90183766 0.08957993 14.58984375 0.140625 C17.10219944 0.16070441 19.61457047 0.17895265 22.12695312 0.1953125 C28.26075314 0.23923035 34.39397702 0.30603015 40.52734375 0.390625 C39.11863371 3.98763591 37.55037825 7.31000289 35.65625 10.6796875 C35.087854 11.69345459 34.51945801 12.70722168 33.93383789 13.75170898 C33.32531982 14.82880127 32.71680176 15.90589355 32.08984375 17.015625 C31.45876709 18.13718994 30.82769043 19.25875488 30.17749023 20.41430664 C25.19410281 29.25287433 20.13150749 38.04320012 15.02587891 46.81152344 C12.09742731 51.85162814 9.18897087 56.90328924 6.27734375 61.953125 C5.65045654 63.03956299 5.02356934 64.12600098 4.37768555 65.24536133 C1.39529298 70.41441213 -1.58517262 75.58455129 -4.55932617 80.75834656 C-5.58042465 82.5343981 -6.60213048 84.31009884 -7.62402344 86.08569336 C-8.90453662 88.31106814 -10.18390276 90.53710349 -11.46191406 92.76391602 C-14.69401125 98.37814557 -17.9980164 103.92298418 -21.47265625 109.390625 C-25.83826367 105.69821872 -28.08459313 100.98122779 -30.72265625 96.015625 C-31.70222899 94.20264059 -32.68270198 92.39014232 -33.6640625 90.578125 C-34.14246582 89.69125 -34.62086914 88.804375 -35.11376953 87.890625 C-36.91771895 84.57182478 -38.78001386 81.29191273 -40.66015625 78.015625 C-41.28148437 76.92636719 -41.9028125 75.83710938 -42.54296875 74.71484375 C-43.93069037 72.32425448 -45.33915843 69.95731002 -46.77734375 67.59765625 C-47.15479736 66.96714355 -47.53225098 66.33663086 -47.92114258 65.68701172 C-48.97113238 63.93495773 -50.03588385 62.19177457 -51.1015625 60.44921875 C-52.68384382 56.91951426 -52.52035171 56.01051699 -51.47265625 52.390625 C-50.23266602 49.88964844 -50.23266602 49.88964844 -48.6640625 47.25 C-48.0865625 46.2695874 -47.5090625 45.2891748 -46.9140625 44.27905273 C-45.98400391 42.72553101 -45.98400391 42.72553101 -45.03515625 41.140625 C-43.75517286 38.98048977 -42.47522516 36.82033339 -41.1953125 34.66015625 C-40.56254395 33.59748535 -39.92977539 32.53481445 -39.27783203 31.43994141 C-37.67400297 28.73074138 -36.09493876 26.00983933 -34.53125 23.27734375 C-34.09417725 22.51776367 -33.65710449 21.75818359 -33.20678711 20.97558594 C-32.41485615 19.59757907 -31.62749435 18.21693041 -30.84594727 16.83300781 C-23.20951099 3.6600272 -15.25901575 -0.28307685 0 0 Z " fill="#006AF5" transform="translate(269.47265625,421.609375)"/>
  <path d="M0 0 C46.67377399 0 46.67377399 0 56 9 C62.07624948 15.78729995 62.63273446 22.41623909 62.50390625 31.16796875 C61.52624138 38.60276904 58.26666911 43.87889209 53 49 C48.74193548 52 48.74193548 52 46 52 C50.84205231 60.75454157 55.98371743 69.22537303 61.4934082 77.57592773 C65 82.9055259 65 82.9055259 65 84 C58.34258095 85.25448873 51.49877777 86.44586984 45 84 C38.50383029 78.13713704 34.237732 68.88965859 31.16015625 60.78955078 C30.31926951 58.57850212 30.31926951 58.57850212 28 56 C24.37 55.67 20.74 55.34 17 55 C17 64.57 17 74.14 17 84 C11.39 84 5.78 84 0 84 C0 56.28 0 28.56 0 0 Z " fill="#006BF4" transform="translate(744,465)"/>
  <path d="M0 0 C4.62 0 9.24 0 14 0 C17.26414414 3.44300135 19.43495915 6.05162525 21.78369141 10.00585938 C23.59893048 12.98194784 25.60397303 15.81829411 27.59448242 18.67895508 C29.26667506 21.08650805 30.91748817 23.5074001 32.5625 25.93359375 C36.11483104 31.17103113 39.67998381 36.39960485 43.25 41.625 C44.09159668 42.86068726 44.09159668 42.86068726 44.95019531 44.12133789 C45.46678711 44.87793701 45.98337891 45.63453613 46.515625 46.4140625 C46.97227539 47.0838916 47.42892578 47.7537207 47.89941406 48.44384766 C48.91147469 49.96781104 48.91147469 49.96781104 50 51 C50.33 34.17 50.66 17.34 51 0 C56.61 0 62.22 0 68 0 C68 27.72 68 55.44 68 84 C53 84 53 84 49.21875 80.6171875 C48.25900624 79.06835385 47.35486765 77.48409759 46.5 75.875 C45.44609242 74.13025109 44.39001071 72.38681406 43.33203125 70.64453125 C42.79658691 69.72365723 42.26114258 68.8027832 41.70947266 67.85400391 C38.76383256 62.93619003 35.45541687 58.26950701 32.1875 53.5625 C27.06457081 46.08098084 22.03008117 38.54512176 17 31 C16.67 48.49 16.34 65.98 16 84 C10.72 84 5.44 84 0 84 C0 56.28 0 28.56 0 0 Z " fill="#006BF5" transform="translate(495,465)"/>
  <path d="M0 0 C5.61 0 11.22 0 17 0 C17.0093457 1.62421875 17.01869141 3.2484375 17.02832031 4.921875 C17.06829637 10.9678861 17.13407784 17.01339246 17.20751953 23.05908203 C17.23568474 25.67197163 17.25692129 28.28494573 17.27099609 30.89794922 C17.29248613 34.66157146 17.33917143 38.42418248 17.390625 42.1875 C17.39185364 43.34926758 17.39308228 44.51103516 17.39434814 45.70800781 C17.51746271 52.5792844 18.25840667 57.17634998 22 63 C27.40348029 67.30072921 32.13184439 68.71679043 39 68 C43.68788787 66.28711789 46.25914806 64.16203443 49 60 C50.04996166 56.79239808 50.1523256 53.76677623 50.20532227 50.40527344 C50.22526749 49.28441345 50.24521271 48.16355347 50.26576233 47.00872803 C50.28247482 45.80444153 50.29918732 44.60015503 50.31640625 43.359375 C50.33718735 42.12205627 50.35796844 40.88473755 50.37937927 39.60992432 C50.43365872 36.32861309 50.48391779 33.04727267 50.53222656 29.76586914 C50.58256092 26.41416896 50.6382636 23.0625628 50.69335938 19.7109375 C50.80044513 13.14069321 50.90174126 6.57038199 51 0 C56.94 0 62.88 0 69 0 C69.0746007 7.61309713 69.12881488 15.22597767 69.16479492 22.83935547 C69.17980712 25.4250052 69.20022313 28.01062978 69.22631836 30.59619141 C69.26303545 34.32981604 69.27980274 38.06310166 69.29296875 41.796875 C69.30845261 42.93799744 69.32393646 44.07911987 69.33988953 45.25482178 C69.34218097 56.38107133 67.95900713 66.65533688 60.12890625 74.9921875 C52.51771997 82.39986613 45.07424247 85.15681972 34.5 85.5 C24.60955436 85.18872709 16.90168826 82.78074511 9.71484375 75.84375 C0.79684873 66.25538177 -0.45922537 56.38796852 -0.29296875 43.5546875 C-0.28872391 42.30366241 -0.28447906 41.05263733 -0.28010559 39.76370239 C-0.26625204 36.47237125 -0.23940206 33.18149918 -0.20599365 29.89031982 C-0.1750482 26.51808222 -0.16154853 23.14577682 -0.14648438 19.7734375 C-0.11355528 13.18209229 -0.06184541 6.59113475 0 0 Z " fill="#006AF4" transform="translate(656,465)"/>
  <path d="M0 0 C17.49 0 34.98 0 53 0 C53 5.28 53 10.56 53 16 C41.12 16 29.24 16 17 16 C17 22.27 17 28.54 17 35 C27.56 35 38.12 35 49 35 C49 39.95 49 44.9 49 50 C38.44 50 27.88 50 17 50 C17 56.27 17 62.54 17 69 C28.88 69 40.76 69 53 69 C53 73.95 53 78.9 53 84 C35.51 84 18.02 84 0 84 C0 56.28 0 28.56 0 0 Z " fill="#006BF4" transform="translate(423,465)"/>
  <path d="M0 0 C5.61 0 11.22 0 17 0 C22.10835784 15.0682287 26.98521187 30.19314146 31.67333984 45.39648438 C31.98319824 46.3976403 31.98319824 46.3976403 32.29931641 47.41902161 C32.86190635 49.23739471 33.42200663 51.05653755 33.98193359 52.87573242 C34.88281957 55.64039376 35.88206526 58.31701945 37 61 C39.78903787 58.21096213 40.45037547 54.91671309 41.57421875 51.23046875 C41.81914566 50.4455455 42.06407257 49.66062225 42.31642151 48.85191345 C42.84069649 47.16978645 43.36220578 45.48679545 43.88122559 43.80303955 C45.22002271 39.460006 46.5779837 35.12296501 47.93359375 30.78515625 C48.19878815 29.93459656 48.46398254 29.08403687 48.73721313 28.20770264 C51.68821182 18.75905117 54.8091668 9.3702637 58 0 C63.61 0 69.22 0 75 0 C73.37421028 8.84708883 70.23868559 17.13239176 67.1875 25.5625 C63.86759554 34.76402036 60.6376789 43.96430184 57.76451111 53.31620789 C55.89716504 59.385758 53.85481223 65.38438057 51.75 71.375 C51.399375 72.38304687 51.04875 73.39109375 50.6875 74.4296875 C48.13936942 81.72126116 48.13936942 81.72126116 47 84 C40.4 84 33.8 84 27 84 C26.32710938 81.79570313 25.65421875 79.59140625 24.9609375 77.3203125 C22.07860542 68.02019854 18.85078074 58.84718438 15.6098938 49.66723633 C6.5019889 23.8457488 6.5019889 23.8457488 2.5625 11.5 C2.28680176 10.6426123 2.01110352 9.78522461 1.72705078 8.90185547 C0.76463925 5.8300666 0 3.23888548 0 0 Z " fill="#006BF4" transform="translate(333,465)"/>
  <path d="M0 0 C6.42255121 3.74648821 10.81988328 8.10197962 13.25 15.21875 C15.22043297 24.28274167 14.94122812 33.17086366 9.875 41.09375 C6.07369365 46.89391957 1.65757094 50.38801415 -5.125 52.09375 C-12.76330565 53.00173486 -19.882368 52.97809503 -26.125 48.09375 C-32.22950621 42.51953423 -35.64859845 37.07214623 -36.4375 28.828125 C-36.77127806 19.19028361 -35.50137923 11.38747078 -28.8125 4.15625 C-20.93279924 -2.89225869 -9.72621588 -4.37679715 0 0 Z " fill="#00112E" transform="translate(873.125,481.90625)"/>
  <path d="M0 0 C20.13 0 40.26 0 61 0 C61 4.95 61 9.9 61 15 C53.74 15 46.48 15 39 15 C39 37.77 39 60.54 39 84 C33.39 84 27.78 84 22 84 C22 61.56 22 39.12 22 16 C14.74 16 7.48 16 0 16 C0 10.72 0 5.44 0 0 Z " fill="#006BF5" transform="translate(580,465)"/>
  <path d="M0 0 C3.155625 -0.12375 6.31125 -0.2475 9.5625 -0.375 C10.5429126 -0.42962402 11.5233252 -0.48424805 12.53344727 -0.54052734 C17.23718596 -0.62923214 20.34173797 -0.28666176 24.109375 2.67578125 C26.2469107 4.81679467 26.95771913 5.85552366 27.82421875 8.81640625 C27.45656408 16.20101286 27.45656408 16.20101286 25.25 20.0625 C21.72690858 23.09627317 19.11160001 24.25826486 14.453125 24.1953125 C13.69161133 24.19031738 12.93009766 24.18532227 12.14550781 24.18017578 C10.71223145 24.15286377 10.71223145 24.15286377 9.25 24.125 C4.67125 24.063125 4.67125 24.063125 0 24 C0 16.08 0 8.16 0 0 Z " fill="#00112E" transform="translate(761,481)"/>
  <path d="M0 0 C0.33 0 0.66 0 1 0 C1 27.39 1 54.78 1 83 C6.28 83 11.56 83 17 83 C17 65.18 17 47.36 17 29 C18.32 30.32 19.64 31.64 21 33 C20.01 33.495 20.01 33.495 19 34 C19.00222061 34.61165512 19.00444122 35.22331024 19.00672913 35.85350037 C19.02878122 42.19570331 19.04390627 48.53789544 19.05493164 54.88012695 C19.05997341 57.24992312 19.06680665 59.61971615 19.07543945 61.98950195 C19.0875119 65.38754039 19.09322971 68.78553785 19.09765625 72.18359375 C19.10281754 73.25024765 19.10797882 74.31690155 19.11329651 75.4158783 C19.11340981 76.88729027 19.11340981 76.88729027 19.11352539 78.38842773 C19.115746 79.25668686 19.11796661 80.12494598 19.12025452 81.01951599 C19 83 19 83 18 84 C12.06 84 6.12 84 0 84 C0 56.28 0 28.56 0 0 Z " fill="#00091A" transform="translate(494,466)"/>
  <path d="M0 0 C5.61 0 11.22 0 17 0 C17.33 19.14 17.66 38.28 18 58 C16 56 16 56 15.75949097 53.67147827 C15.76393219 52.6988504 15.76837341 51.72622253 15.77294922 50.72412109 C15.77310028 49.6231308 15.77325134 48.5221405 15.77340698 47.38778687 C15.78372955 46.19505157 15.79405212 45.00231628 15.8046875 43.7734375 C15.8075174 42.55548492 15.81034729 41.33753235 15.81326294 40.08267212 C15.82448744 36.18001617 15.84959628 32.27758697 15.875 28.375 C15.88502686 25.73437831 15.89415322 23.09375303 15.90234375 20.453125 C15.92443422 13.96866219 15.95897966 7.48436958 16 1 C11.38 1.33 6.76 1.66 2 2 C2.01047363 3.25659424 2.02094727 4.51318848 2.03173828 5.80786133 C2.06790817 10.46505897 2.09088953 15.12224416 2.10986328 19.77954102 C2.11992773 21.79616381 2.13358047 23.81277199 2.15087891 25.8293457 C2.17510769 28.72611089 2.18647859 31.62268331 2.1953125 34.51953125 C2.20563507 35.42274612 2.21595764 36.325961 2.22659302 37.25654602 C2.22674408 38.09719101 2.22689514 38.937836 2.22705078 39.80395508 C2.231492 40.54341873 2.23593323 41.28288239 2.24050903 42.04475403 C2 44 2 44 0 47 C0 31.49 0 15.98 0 0 Z " fill="#0076FA" transform="translate(656,465)"/>
  <path d="M0 0 C7.79619588 -0.05057624 15.5923497 -0.08568114 23.38867188 -0.10986328 C26.04265931 -0.11994089 28.6966356 -0.13360313 31.35058594 -0.15087891 C35.15823107 -0.17504992 38.96572984 -0.18646535 42.7734375 -0.1953125 C44.56254044 -0.21079636 44.56254044 -0.21079636 46.38778687 -0.22659302 C47.48877716 -0.22674408 48.58976746 -0.22689514 49.72412109 -0.22705078 C51.1830629 -0.23371262 51.1830629 -0.23371262 52.67147827 -0.24050903 C55 0 55 0 57 2 C39.51 2.33 22.02 2.66 4 3 C3.67 3.99 3.34 4.98 3 6 C2.01 4.02 1.02 2.04 0 0 Z " fill="#0063E4" transform="translate(104,422)"/>
  <path d="M0 0 C0 3.52032428 -0.70351351 4.4385343 -3 7 C-3.66 7 -4.32 7 -5 7 C-5.66 8.98 -6.32 10.96 -7 13 C-7.33 12.01 -7.66 11.02 -8 10 C-5.78310719 6.14096436 -3.25519625 3.02268223 0 0 Z " fill="#000817" transform="translate(847,484)"/>
  <path d="M0 0 C1.1484375 1.703125 1.1484375 1.703125 2 4 C1.1015625 6.359375 1.1015625 6.359375 -0.375 8.75 C-0.85710938 9.54921875 -1.33921875 10.3484375 -1.8359375 11.171875 C-2.22007812 11.77515625 -2.60421875 12.3784375 -3 13 C-4 11 -4 11 -3.22265625 8.3984375 C-2.83980469 7.40070312 -2.45695313 6.40296875 -2.0625 5.375 C-1.68222656 4.37210938 -1.30195312 3.36921875 -0.91015625 2.3359375 C-0.60980469 1.56507813 -0.30945313 0.79421875 0 0 Z " fill="#010816" transform="translate(904,516)"/>
  <path d="M0 0 C0.33 0 0.66 0 1 0 C1.36923077 6.52307692 1.36923077 6.52307692 -0.5 8.9375 C-0.995 9.288125 -1.49 9.63875 -2 10 C-2.99 9.67 -3.98 9.34 -5 9 C-4.0409375 7.88625 -4.0409375 7.88625 -3.0625 6.75 C-1.21666593 4.2888879 -0.43930826 2.96533074 0 0 Z " fill="#0066DD" transform="translate(706,521)"/>
  <path d="M0 0 C0.33 0.66 0.66 1.32 1 2 C0.34 2 -0.32 2 -1 2 C-0.41196203 5.02419525 0.22678118 8.01758453 1 11 C-3.42857143 5.85714286 -3.42857143 5.85714286 -4 2 C-2.68 1.34 -1.36 0.68 0 0 Z " fill="#000C1D" transform="translate(794,515)"/>
</svg>
