<?xml version="1.0" encoding="UTF-8"?>
<svg version="1.1" xmlns="http://www.w3.org/2000/svg" width="500" height="500">
<path d="M0 0 C7.91105494 -0.06984721 15.82197868 -0.12298592 23.73326683 -0.15543652 C27.40773878 -0.17101978 31.08199806 -0.19212165 34.75634766 -0.22631836 C38.30956709 -0.25917666 41.86258338 -0.27690804 45.41594315 -0.28463173 C47.41541501 -0.29278316 49.4148064 -0.31615924 51.41415405 -0.33988953 C61.19987722 -0.34167697 70.214155 0.54287705 78 7 C79.984375 9.6015625 79.984375 9.6015625 81.75 12.625 C82.08016113 13.18421143 82.41032227 13.74342285 82.75048828 14.31958008 C83.85253433 16.20285886 84.92901974 18.09889311 86 20 C86.38704102 20.68465332 86.77408203 21.36930664 87.17285156 22.07470703 C89.71923236 26.59509813 92.22865809 31.13529575 94.7265625 35.68261719 C96.76776593 39.39716913 98.81948978 43.10584896 100.875 46.8125 C101.28290771 47.54831299 101.69081543 48.28412598 102.11108398 49.04223633 C105.83642479 55.74294136 109.64977912 62.39210349 113.46826172 69.04003906 C116.88717724 75.00811723 120.21381406 81.02052174 123.5 87.0625 C127.24448765 93.94448128 131.17548176 100.68346311 135.25 107.375 C139.28331688 113.99920485 142.91527201 120.63805175 146.28515625 127.625 C148.23604685 131.46456601 150.39052363 135.13323621 152.625 138.8125 C153.1984314 139.76153198 153.1984314 139.76153198 153.78344727 140.72973633 C155.40401969 143.40320511 157.03948751 146.06201334 158.71875 148.69921875 C159.1828125 149.45847656 159.646875 150.21773437 160.125 151 C160.51945313 151.61875 160.91390625 152.2375 161.3203125 152.875 C162.57004577 156.78221207 161.74596671 160.30248194 160.11767578 164.0078125 C158.97044117 166.21050295 157.75358732 168.35608607 156.5 170.5 C156.05366211 171.28318604 155.60732422 172.06637207 155.14746094 172.87329102 C151.88536584 178.56697255 148.5175681 184.19806164 145.11523438 189.80883789 C142.99478295 193.31106662 140.94992222 196.8376436 139 200.4375 C138.53722656 201.28957031 138.07445312 202.14164063 137.59765625 203.01953125 C136.7082849 204.67867634 135.82278563 206.33997069 134.95263672 208.00927734 C133.79619408 210.22295435 132.61785106 212.42399529 131.4375 214.625 C131.07333984 215.33712646 130.70917969 216.04925293 130.33398438 216.78295898 C129.24609375 218.7890625 129.24609375 218.7890625 127 222 C124.35961914 222.70068359 124.35961914 222.70068359 122 223 C121.6690332 222.38294189 121.33806641 221.76588379 120.99707031 221.13012695 C113.69481374 207.53451127 106.23337762 194.05093716 98.53564453 180.67578125 C91.70006685 168.76514032 84.96268791 156.79946718 78.375 144.75 C74.37405683 137.43206649 70.24940875 130.19619117 66.04760742 122.99194336 C63.02584648 117.80159303 60.08263267 112.57439181 57.1875 107.3125 C53.22601861 100.11425717 49.10194733 93.02000295 44.9375 85.9375 C40.40451622 78.22381679 36.03595292 70.46211824 31.90771484 62.52490234 C29.6307917 58.15445401 27.20857793 53.9268284 24.62890625 49.73046875 C22.05747752 45.42008822 19.66811529 41.00949862 17.25878906 36.60693359 C14.66723802 31.90407047 11.98142795 27.27345189 9.20703125 22.67578125 C8.5625 21.60021973 7.91796875 20.5246582 7.25390625 19.41650391 C5.97560208 17.29039087 4.68549892 15.17132037 3.3828125 13.06005859 C2.79886719 12.08504395 2.21492187 11.1100293 1.61328125 10.10546875 C1.08516846 9.24074951 0.55705566 8.37603027 0.01293945 7.48510742 C-1.20515192 4.49668803 -0.73823926 3.07280067 0 0 Z " fill="#0077FC" transform="translate(130,153)"/>
<path d="M0 0 C1.18077118 0.00007553 2.36154236 0.00015106 3.57809448 0.00022888 C5.46747238 0.00797081 5.46747238 0.00797081 7.39501953 0.01586914 C8.6960965 0.01728409 9.99717346 0.01869904 11.337677 0.02015686 C14.78013057 0.02395695 18.22254128 0.03376556 21.66497803 0.04486084 C25.18436097 0.05512914 28.7037509 0.05966605 32.22314453 0.06469727 C39.11639119 0.0753903 46.00960955 0.09243628 52.90283203 0.11352539 C53.99787056 4.6583639 53.65407886 6.3852067 51.28955078 10.47290039 C50.70633057 11.49689941 50.12311035 12.52089844 49.5222168 13.57592773 C48.88469482 14.66083496 48.24717285 15.74574219 47.59033203 16.86352539 C46.61954712 18.55469482 46.61954712 18.55469482 45.62915039 20.2800293 C43.73655115 23.56760773 41.82466384 26.84296642 39.90283203 30.11352539 C39.43844727 30.90404297 38.9740625 31.69456055 38.49560547 32.5090332 C36.93839863 35.15318283 35.37797525 37.79533005 33.80834961 40.43212891 C29.83159898 47.14697013 26.05694622 53.97380999 22.27783203 60.80102539 C21.94840607 61.39605865 21.6189801 61.99109192 21.27957153 62.60415649 C20.30762707 64.35987783 19.33569816 66.11560778 18.36376953 67.87133789 C15.00177832 73.94294031 11.59801836 79.98635079 8.12597656 85.99584961 C6.52703867 88.76415047 4.93195229 91.53466326 3.33642578 94.30493164 C-7.02869619 112.29229117 -7.02869619 112.29229117 -11.85107422 120.53540039 C-14.11335504 124.40932154 -16.33976039 128.29180418 -18.47216797 132.23852539 C-18.95427734 133.12797852 -19.43638672 134.01743164 -19.93310547 134.93383789 C-20.67218241 136.31774707 -21.39553568 137.71026081 -22.09716797 139.11352539 C-24.35107422 139.01196289 -24.35107422 139.01196289 -27.09716797 138.11352539 C-28.66364928 135.97055481 -29.83711134 134.07269429 -31.03466797 131.73852539 C-31.552146 130.78187988 -31.552146 130.78187988 -32.08007812 129.8059082 C-33.09998926 127.91564134 -34.09883962 126.0152506 -35.09716797 124.11352539 C-36.05275811 122.36202596 -37.01084314 120.61188386 -37.97216797 118.86352539 C-38.44783203 117.98567383 -38.92349609 117.10782227 -39.41357422 116.20336914 C-41.55879795 112.26631119 -43.73324624 108.34589808 -45.90966797 104.42602539 C-46.33280273 103.66032227 -46.7559375 102.89461914 -47.19189453 102.10571289 C-49.33036076 98.2458056 -51.49859974 94.40980142 -53.74169922 90.60961914 C-54.15895264 89.89443115 -54.57620605 89.17924316 -55.00610352 88.44238281 C-55.79500571 87.0937576 -56.59409317 85.75101948 -57.4050293 84.41552734 C-59.71382931 80.44447521 -60.84919518 77.68444075 -60.09716797 73.11352539 C-58.95778879 70.34351018 -57.49425267 67.81420484 -55.97216797 65.23852539 C-55.53203369 64.46968018 -55.09189941 63.70083496 -54.63842773 62.90869141 C-53.13979356 60.30121737 -51.62057109 57.70660129 -50.09716797 55.11352539 C-48.34513194 52.12144781 -46.59346151 49.12915668 -44.84204102 46.13671875 C-43.63600956 44.07768437 -42.42783373 42.01990453 -41.2175293 39.96337891 C-37.6922412 33.94738241 -34.34573174 27.87737096 -31.15966797 21.67602539 C-22.87079499 5.73530856 -22.87079499 5.73530856 -14.18701172 1.76977539 C-9.50967844 0.30100531 -4.87591613 -0.01046334 0 0 Z " fill="#0077FD" transform="translate(326.09716796875,152.886474609375)"/>
</svg>
