<?xml version="1.0" encoding="UTF-8"?>
<svg
  xmlns="http://www.w3.org/2000/svg"
  viewBox="50 200 400 80"
  id="mainLogo"
  preserveAspectRatio="xMidYMid meet"
>
<path d="M0 0 C1.62711914 -0.0309375 1.62711914 -0.0309375 3.28710938 -0.0625 C4.33576172 -0.06765625 5.38441406 -0.0728125 6.46484375 -0.078125 C7.41866943 -0.0874707 8.37249512 -0.09681641 9.35522461 -0.10644531 C12.65432822 0.32792129 14.4188506 1.23803612 17.0625 3.25 C18.6965332 5.47973633 18.6965332 5.47973633 20.11328125 8.08203125 C20.64252197 9.03803223 21.1717627 9.9940332 21.71704102 10.97900391 C22.53773071 12.50533447 22.53773071 12.50533447 23.375 14.0625 C24.53626789 16.17067783 25.69772536 18.27875124 26.859375 20.38671875 C27.41431641 21.40427246 27.96925781 22.42182617 28.54101562 23.47021484 C30.36172533 26.7966912 32.23332012 30.08840492 34.125 33.375 C34.72570312 34.426875 35.32640625 35.47875 35.9453125 36.5625 C37.67893451 39.58984392 39.42918173 42.60739173 41.1796875 45.625 C42.28647724 47.54165575 43.39324807 49.45832242 44.5 51.375 C45.03310791 52.28910645 45.56621582 53.20321289 46.11547852 54.14501953 C46.61233154 55.00724121 47.10918457 55.86946289 47.62109375 56.7578125 C48.29096313 57.91240967 48.29096313 57.91240967 48.97436523 59.09033203 C50.04466697 61.21460602 50.76914299 62.88979599 51.0625 65.25 C49.7846552 67.94407372 48.46831685 70.39509764 46.9375 72.9375 C46.10274326 74.36841881 45.26810716 75.79940801 44.43359375 77.23046875 C44.02608887 77.91931152 43.61858398 78.6081543 43.19873047 79.31787109 C41.75571191 81.77168477 40.37226938 84.25604957 39 86.75 C38.61714844 87.4409375 38.23429687 88.131875 37.83984375 88.84375 C37.45505859 89.53984375 37.45505859 89.53984375 37.0625 90.25 C33.26590387 88.78021745 31.95290191 86.93159102 29.9609375 83.4375 C29.39358887 82.45370361 28.82624023 81.46990723 28.24169922 80.45629883 C27.64631348 79.39822021 27.05092773 78.3401416 26.4375 77.25 C25.81504395 76.16291748 25.19258789 75.07583496 24.55126953 73.95581055 C20.15038149 66.24773622 15.83029224 58.49435538 11.54296875 50.72265625 C8.81759584 45.79285696 6.0413116 40.89271744 3.25 36 C2.75838379 35.13826172 2.26676758 34.27652344 1.76025391 33.38867188 C-0.98318739 28.60069886 -3.76627088 23.83884677 -6.58984375 19.09765625 C-7.19014404 18.08928711 -7.79044434 17.08091797 -8.40893555 16.04199219 C-9.57672959 14.08567667 -10.74864092 12.13181187 -11.92504883 10.18066406 C-12.44993896 9.30249023 -12.9748291 8.42431641 -13.515625 7.51953125 C-14.21800293 6.35321167 -14.21800293 6.35321167 -14.93457031 5.16333008 C-15.9375 3.25 -15.9375 3.25 -15.9375 1.25 C-10.72069056 -0.28286496 -5.39334265 0.02554573 0 0 Z " fill="#0069F4" transform="translate(65.9375,204.75)"/>
<path d="M0 0 C1.11310547 0.01353516 2.22621094 0.02707031 3.37304688 0.04101562 C6.10337212 0.07617003 8.83267744 0.12537894 11.5625 0.1875 C11.5625 4.79140144 10.11600023 7.64766948 8.0625 11.625 C7.69938721 12.33873779 7.33627441 13.05247559 6.9621582 13.7878418 C4.15440808 19.22562099 1.05759478 24.43332435 -2.21484375 29.60546875 C-5.55422393 34.91847057 -8.63378651 40.38773114 -11.75708008 45.8293457 C-12.20591553 46.61011475 -12.65475098 47.39088379 -13.1171875 48.1953125 C-13.51663574 48.89285645 -13.91608398 49.59040039 -14.32763672 50.30908203 C-15.30862213 51.96937719 -16.36778942 53.58293412 -17.4375 55.1875 C-23.3002102 52.94603962 -25.33121249 47.13848014 -28.25 41.9375 C-28.86037109 40.89980469 -29.47074219 39.86210937 -30.09960938 38.79296875 C-30.67130859 37.78363281 -31.24300781 36.77429688 -31.83203125 35.734375 C-32.35643799 34.81495117 -32.88084473 33.89552734 -33.42114258 32.94824219 C-34.88283018 28.97784502 -34.25199512 26.04576922 -32.57714844 22.22460938 C-32.2371582 21.66580078 -31.89716797 21.10699219 -31.546875 20.53125 C-30.97646484 19.58572266 -30.97646484 19.58572266 -30.39453125 18.62109375 C-29.99621094 17.98300781 -29.59789063 17.34492188 -29.1875 16.6875 C-28.80464844 16.04941406 -28.42179687 15.41132813 -28.02734375 14.75390625 C-20.81382845 2.9565518 -20.81382845 2.9565518 -14.60107422 0.65771484 C-9.79775546 -0.3862021 -4.88734894 -0.11311965 0 0 Z " fill="#0069F4" transform="translate(139.4375,204.8125)"/>
<path d="M0 0 C4.20305855 3.20233032 8.24079315 7.23158631 10.625 12 C11.45213666 22.21039188 10.67329826 29.67937943 4.4375 37.875 C-1.79996293 42.58774977 -8.03684939 43.6511354 -15.73046875 42.62890625 C-21.91758379 41.15752439 -25.87822247 38.18785669 -29.3125 32.875 C-32.97487776 26.4937723 -33.33830079 19.85732176 -31.9140625 12.67578125 C-29.8793767 6.39219276 -25.91802566 3.505056 -20.3125 0.1875 C-14.02818989 -2.26730864 -6.36345854 -1.8854692 0 0 Z M-19.375 11 C-21.99797548 14.93446322 -22.439253 18.30953088 -22.375 23 C-20.89243581 27.1355738 -19.02994054 30.49925121 -15.375 33 C-11.55719402 33.77959015 -8.04472798 33.86133959 -4.52734375 32.046875 C-1.26684386 29.51538123 0.78224151 27.02651279 1.625 23 C1.52134995 16.47004685 0.22277507 13.59777507 -4.375 9 C-9.51287488 6.43106256 -15.05005522 7.56548503 -19.375 11 Z " fill="#006AF3" transform="translate(431.375,227)"/>
<path d="M0 0 C9 0 9 0 11.3828125 2.0546875 C11.95773438 2.98539063 12.53265625 3.91609375 13.125 4.875 C13.76695312 5.86886719 14.40890625 6.86273438 15.0703125 7.88671875 C15.70710938 8.91410156 16.34390625 9.94148437 17 11 C18.32255275 12.90336965 19.65513569 14.79982901 21 16.6875 C21.99 18.110625 22.98 19.53375 24 21 C24.33 14.07 24.66 7.14 25 0 C27.97 0 30.94 0 34 0 C34 13.86 34 27.72 34 42 C26 42 26 42 24.1875 40.671875 C23.795625 40.03765625 23.40375 39.4034375 23 38.75 C22.53078125 38.02941406 22.0615625 37.30882812 21.578125 36.56640625 C21.05734375 35.71949219 20.5365625 34.87257813 20 34 C18.58680996 31.8934968 17.17000562 29.7894148 15.75 27.6875 C14.49821678 25.79284362 13.2479326 23.89719484 12 22 C11.34 21.01 10.68 20.02 10 19 C9.67 26.59 9.34 34.18 9 42 C6.03 42 3.06 42 0 42 C0 28.14 0 14.28 0 0 Z " fill="#006AF4" transform="translate(241,227)"/>
<path d="M0 0 C5.506875 -0.12375 5.506875 -0.12375 11.125 -0.25 C12.2711377 -0.28641602 13.41727539 -0.32283203 14.59814453 -0.36035156 C20.71877731 -0.42689185 24.41411344 -0.20937699 29 4 C31.90180241 8.77393299 32.42073558 12.51848554 31.58203125 17.91015625 C30.72435874 20.98971862 29.34406054 22.86276833 27 25 C26.01 25 25.02 25 24 25 C26.54914548 29.53181419 29.20600392 33.94534938 32.046875 38.30078125 C33 40 33 40 33 42 C28.90020326 42.74135758 25.29331904 43.38211699 21.25 42.1875 C17.73398055 38.76914776 15.82144529 34.51873449 14 30 C14 29.34 14 28.68 14 28 C12.35 28 10.7 28 9 28 C9 32.62 9 37.24 9 42 C6.03 42 3.06 42 0 42 C0 28.14 0 14.28 0 0 Z M9 8 C9 11.63 9 15.26 9 19 C15.39825263 19.47326369 15.39825263 19.47326369 21 17 C21.58345476 14.04253508 21.58345476 14.04253508 21 11 C19.57951684 8.93243871 19.57951684 8.93243871 17 8 C14.27930412 7.76635245 11.74133849 7.86293308 9 8 Z " fill="#006AF3" transform="translate(363,227)"/>
<path d="M0 0 C1.47906892 -0.02689216 2.95827483 -0.04634621 4.4375 -0.0625 C5.26121094 -0.07410156 6.08492188 -0.08570313 6.93359375 -0.09765625 C9 0 9 0 10 1 C10.14602395 2.87817665 10.2273619 4.76145754 10.28125 6.64453125 C10.31863281 7.79630859 10.35601562 8.94808594 10.39453125 10.13476562 C10.42933594 11.34841797 10.46414063 12.56207031 10.5 13.8125 C10.56895867 16.19412831 10.64171705 18.57565043 10.71875 20.95703125 C10.74904297 22.01897705 10.77933594 23.08092285 10.81054688 24.17504883 C10.97311186 26.59906875 11.31026187 28.68051119 12 31 C16.69602828 32.11943102 16.69602828 32.11943102 21.19628906 30.93432617 C23.79064412 28.1521016 23.54367856 26.12440262 23.609375 22.36328125 C23.64160156 21.06455078 23.67382812 19.76582031 23.70703125 18.42773438 C23.72177586 17.05599405 23.73609331 15.68424907 23.75 14.3125 C23.77815875 12.92899889 23.80808608 11.54553256 23.83984375 10.16210938 C23.91066109 6.77467979 23.96330176 3.38794333 24 0 C27.63 0 31.26 0 35 0 C35.08767743 4.49987562 35.14062009 8.999529 35.1875 13.5 C35.21263672 14.7684375 35.23777344 16.036875 35.26367188 17.34375 C35.32960955 25.78377204 35.35287155 32.4947252 29.25 38.875 C23.67350345 42.52117082 18.73322104 43.5587577 12.2109375 42.6015625 C7.09622005 41.2099256 3.89818179 38.43709086 1.125 34 C-0.603754 29.38998934 -1.1270824 25.24231356 -1.1328125 20.33203125 C-1.13410156 19.27435547 -1.13539063 18.21667969 -1.13671875 17.12695312 C-1.13285156 16.03318359 -1.12898438 14.93941406 -1.125 13.8125 C-1.12886719 12.70712891 -1.13273437 11.60175781 -1.13671875 10.46289062 C-1.13542969 9.40908203 -1.13414062 8.35527344 -1.1328125 7.26953125 C-1.13168457 6.30635986 -1.13055664 5.34318848 -1.12939453 4.35083008 C-1 2 -1 2 0 0 Z " fill="#006AF4" transform="translate(320,227)"/>
<path d="M0 0 C8.91 0 17.82 0 27 0 C27 2.64 27 5.28 27 8 C21.06 8 15.12 8 9 8 C9 10.97 9 13.94 9 17 C14.28 17 19.56 17 25 17 C25 19.64 25 22.28 25 25 C19.72 25 14.44 25 9 25 C9 27.64 9 30.28 9 33 C14.94 33 20.88 33 27 33 C27 35.97 27 38.94 27 42 C18.09 42 9.18 42 0 42 C0 28.14 0 14.28 0 0 Z " fill="#006BF4" transform="translate(206,227)"/>
<path d="M0 0 C3.3 0 6.6 0 10 0 C11.34065238 3.93504649 12.67126071 7.87341646 14 11.8125 C14.3815625 12.93205078 14.763125 14.05160156 15.15625 15.20507812 C15.69765625 16.81479492 15.69765625 16.81479492 16.25 18.45703125 C16.58515625 19.44678955 16.9203125 20.43654785 17.265625 21.45629883 C18 24 18 24 18 27 C18.66 27 19.32 27 20 27 C20.226875 25.865625 20.45375 24.73125 20.6875 23.5625 C21.77611316 18.64796379 23.15155224 13.8295303 24.5625 9 C24.78446045 8.23373291 25.0064209 7.46746582 25.23510742 6.67797852 C26.87718375 1.12281625 26.87718375 1.12281625 28 0 C31.33327842 -0.1424478 34.66453893 -0.04222103 38 0 C36.04148515 8.60239983 33.46932965 16.9196763 30.55615234 25.24047852 C29.86316163 27.22133907 29.17913374 29.20514186 28.49609375 31.18945312 C25.14373429 40.85626571 25.14373429 40.85626571 24 42 C22.14712498 42.07226502 20.29166122 42.0838122 18.4375 42.0625 C17.42558594 42.05347656 16.41367188 42.04445313 15.37109375 42.03515625 C14.19740234 42.01775391 14.19740234 42.01775391 13 42 C11.30115942 37.14644264 9.61078321 32.2900488 7.92797852 27.4309082 C7.35506718 25.78037407 6.77990345 24.13061987 6.20239258 22.48168945 C5.36978603 20.10312148 4.54548264 17.72181003 3.72265625 15.33984375 C3.46533218 14.61039047 3.20800812 13.88093719 2.94288635 13.12937927 C1.43760352 8.74090401 0.51089129 4.61390421 0 0 Z " fill="#006AF3" transform="translate(162,227)"/>
<path d="M0 0 C9.9 0 19.8 0 30 0 C30 2.64 30 5.28 30 8 C26.7 8 23.4 8 20 8 C20 19.22 20 30.44 20 42 C16.7 42 13.4 42 10 42 C10 30.78 10 19.56 10 8 C6.7 8 3.4 8 0 8 C0 5.36 0 2.72 0 0 Z " fill="#006BF5" transform="translate(283,227)"/>
</svg>
