<svg width="108" height="99" viewBox="0 0 108 99" fill="none" xmlns="http://www.w3.org/2000/svg">
<path d="M30.4143 64.937L31.7032 67.2976H31.2603C31.1204 66.9651 30.9783 66.6678 30.8008 66.3881H29.7422C29.6905 66.528 29.6376 66.6325 29.5659 66.7195C29.513 66.8076 29.4778 66.9122 29.4249 67.0179C29.3732 67.1237 29.3368 67.2106 29.3203 67.2988H29.0195L30.325 64.9382H30.4131L30.4143 64.937ZM30.7327 66.2307L30.2733 65.3741L29.815 66.2307H30.7327Z" fill="white"/>
<path d="M32.0745 66.8432H32.1274C32.2143 66.9478 32.3212 67.0712 32.4094 67.124C32.5139 67.1757 32.6385 67.211 32.8147 67.211C32.9205 67.211 33.0439 67.1757 33.1332 67.1581C33.2213 67.1052 33.3094 67.0535 33.327 66.9666C33.3799 66.8785 33.4152 66.8103 33.4152 66.721C33.4152 66.5824 33.3623 66.4754 33.2389 66.4237C33.1332 66.3709 32.9569 66.2839 32.7442 66.231C32.5151 66.1441 32.3377 66.0912 32.2331 66.0043C32.1274 65.9173 32.0557 65.7775 32.0557 65.62C32.0557 65.3944 32.1426 65.2699 32.3212 65.1477C32.4963 65.0431 32.7266 64.9902 33.0086 64.9902C33.1132 64.9902 33.2377 64.9902 33.3435 65.0278C33.4504 65.0607 33.5385 65.0784 33.6255 65.1301C33.5914 65.1653 33.5726 65.2699 33.5209 65.4109H33.468C33.4316 65.3239 33.3623 65.2546 33.2742 65.1841C33.186 65.1312 33.0803 65.0972 32.9569 65.0972C32.8688 65.0972 32.763 65.1312 32.6925 65.1489C32.6032 65.1841 32.5515 65.237 32.4975 65.2887C32.4446 65.3416 32.4105 65.4285 32.4105 65.5155C32.4105 65.6553 32.4634 65.761 32.5856 65.8127C32.709 65.8656 32.8676 65.9526 33.0803 66.0043C33.3094 66.0912 33.4857 66.1441 33.5926 66.231C33.6983 66.318 33.7677 66.4237 33.7677 66.5824C33.7677 66.6858 33.7336 66.8103 33.6795 66.9137C33.6267 67.0018 33.5397 67.0712 33.4516 67.1581C33.3635 67.2451 33.2577 67.2627 33.1155 67.3156C33.011 67.3156 32.8523 67.3496 32.7102 67.3496C32.6044 67.3496 32.481 67.3156 32.3389 67.2979C32.1979 67.2627 32.0757 67.211 32.0216 67.1581C32.0404 67.0535 32.0757 66.949 32.0757 66.8432" fill="white"/>
<path d="M34.3857 67.281V64.9722H34.4915H34.5796H34.6689H34.7747V67.281H34.703H34.6337H34.5796H34.5267H34.4727H34.3857Z" fill="white"/>
<path d="M36.6982 64.937L37.986 67.2976H37.5442C37.4055 66.9651 37.2622 66.6678 37.0847 66.3881H36.0084C35.9556 66.528 35.9027 66.6325 35.8322 66.7195C35.7793 66.8076 35.7452 66.9122 35.6912 67.0179C35.6383 67.1237 35.6031 67.2106 35.5854 67.2988H35.2682L36.5748 64.9382H36.6982V64.937ZM37.0142 66.2307L36.5207 65.3741L36.0613 66.2307H37.0142Z" fill="white"/>
<path d="M40.7742 64.937L42.062 67.2976H41.6202C41.4792 66.9651 41.3382 66.6678 41.1608 66.3881H40.1021C40.0493 66.528 39.9976 66.6325 39.9259 66.7195C39.873 66.8076 39.8378 66.9122 39.7849 67.0179C39.732 67.1237 39.6968 67.2106 39.6791 67.2988H39.3983L40.7026 64.9382H40.7742V64.937ZM41.1256 66.2307L40.6673 65.3741L40.1726 66.2307H41.1256Z" fill="white"/>
<path d="M42.5555 67.281V64.9722H43.472C43.7892 64.9722 44.0372 65.025 44.1782 65.112C44.3192 65.1989 44.4073 65.3399 44.4073 65.4974C44.4073 65.5843 44.372 65.6537 44.3544 65.7418C44.3015 65.8287 44.2487 65.8816 44.1605 65.9333C44.0724 65.9862 43.9843 66.0214 43.8785 66.0731C43.774 66.1084 43.6847 66.126 43.5613 66.1601L44.4437 67.0343L44.6376 67.227L44.7257 67.3139H44.2827C44.1429 67.1741 44.0524 67.0684 44.0195 67.0167L43.4544 66.4926L43.1195 66.1589H42.9432V67.2787H42.5543L42.5555 67.281ZM42.9268 65.112V66.0391H43.1207C43.2617 66.0391 43.3839 66.0391 43.4555 66.0038C43.633 65.9686 43.7375 65.9169 43.8621 65.8464C43.9678 65.7594 44.0031 65.6537 44.0031 65.5138C44.0031 65.2694 43.8621 65.1296 43.5448 65.0944H42.9268V65.112Z" fill="white"/>
<path d="M46.3143 64.937L47.6033 67.2976H47.1603C47.0205 66.9651 46.8783 66.6678 46.702 66.3881H45.6257C45.5729 66.528 45.52 66.6325 45.4495 66.7195C45.3966 66.8076 45.3614 66.9122 45.3085 67.0179C45.2556 67.1237 45.2204 67.2106 45.2027 67.2988H44.9043L46.2085 64.9382H46.3143V64.937ZM46.6315 66.2307L46.1721 65.3741L45.6786 66.2307H46.6315Z" fill="white"/>
<path d="M48.0792 67.281V64.9722H48.9076C49.1027 64.9722 49.3141 65.0074 49.4199 65.025C49.5609 65.0591 49.6843 65.112 49.7383 65.1649C49.8265 65.2518 49.8441 65.3211 49.8441 65.4445C49.8441 65.5315 49.8065 65.5843 49.7912 65.6713C49.7559 65.7242 49.7031 65.7759 49.6502 65.8276C49.5973 65.8804 49.5092 65.9157 49.4563 65.9674C49.3682 66.0026 49.2801 66.0203 49.1919 66.0567C49.2801 66.0567 49.3682 66.0896 49.474 66.0896C49.5621 66.1248 49.6502 66.1425 49.7383 66.1777C49.8265 66.2118 49.8793 66.2647 49.9322 66.334C49.9851 66.3857 50.0203 66.4726 50.0203 66.5784C50.0203 66.8228 49.9146 67.0155 49.649 67.1553C49.5609 67.1894 49.4728 67.2423 49.3847 67.2423C49.2789 67.2775 49.1908 67.2775 49.1038 67.2775H48.0792V67.281ZM48.4505 65.112V65.9862H48.9088C48.9969 65.9862 49.085 65.9521 49.1732 65.9333C49.2789 65.8992 49.3494 65.8464 49.4023 65.777C49.4551 65.6901 49.4904 65.6196 49.4904 65.5326C49.4904 65.4281 49.4551 65.3411 49.4023 65.2882C49.3494 65.2365 49.2613 65.186 49.1732 65.1484C49.0686 65.1143 48.944 65.1143 48.7666 65.1143H48.4505V65.112ZM48.4505 66.126V67.1741H48.8559C48.9969 67.1741 49.1215 67.14 49.2272 67.1224C49.333 67.0695 49.4211 67.0178 49.4928 66.9309C49.5456 66.8428 49.5797 66.7734 49.5797 66.6512C49.5797 66.4585 49.4928 66.3175 49.3518 66.2658C49.2108 66.1789 48.9816 66.1601 48.6996 66.1601H48.4705V66.126H48.4529H48.4505Z" fill="white"/>
<path d="M51.9614 67.281V64.9722H52.0848H52.1729H52.2611H52.368V67.281H52.2787H52.2258H52.1729H52.1212H52.0496H51.9614Z" fill="white"/>
<path d="M55.6509 64.9723V67.2812H55.544C55.4911 67.2284 55.403 67.1414 55.316 67.0545L53.4807 65.4282H53.4278V67.2471H53.181V64.9395H53.3573L55.3865 66.6702H55.4394V64.9395H55.5968C55.6321 64.9735 55.6509 64.9735 55.6509 64.9735" fill="white"/>
<path d="M57.874 66.5114L58.3323 65.602L58.5966 65.025L58.6319 64.9722H58.9139C58.8786 65.025 58.8081 65.1649 58.6848 65.3928C58.5802 65.6184 58.4204 65.8652 58.2782 66.1272C58.1372 66.3892 57.9962 66.6524 57.9069 66.8604C57.8023 67.0531 57.7318 67.2117 57.7119 67.2987H57.5368C57.3958 67.0707 57.2736 66.878 57.2019 66.7206C57.1314 66.5643 56.974 66.3023 56.7954 65.9862C56.6191 65.6889 56.5134 65.4445 56.4241 65.3047C56.3359 65.166 56.2842 65.0603 56.2478 65.0086H56.6367C56.672 65.0955 56.7249 65.2013 56.813 65.3399L57.095 65.9169L57.6073 66.9309H57.6425C57.6766 66.878 57.6954 66.8263 57.7483 66.7394C57.8176 66.6524 57.8529 66.5643 57.8717 66.5114" fill="white"/>
<path d="M59.7622 65.13V65.9865H60.8033V66.1628H59.7622V67.158H60.5377C60.6435 67.158 60.8021 67.158 60.9443 67.1239V67.3331H59.4086V65.0254H60.9255V65.2005C60.8197 65.1664 60.6964 65.1664 60.5554 65.1664H59.7622V65.1311V65.13Z" fill="white"/>
<path d="M61.4566 66.8432H61.5095C61.5976 66.9478 61.7033 67.0712 61.7915 67.124C61.896 67.1757 62.0206 67.211 62.1968 67.211C62.3026 67.211 62.426 67.1757 62.5153 67.1581C62.6034 67.1052 62.6915 67.0535 62.7091 66.9666C62.762 66.8785 62.7973 66.8103 62.7973 66.721C62.7973 66.5824 62.7444 66.4754 62.621 66.4237C62.5153 66.3709 62.3378 66.2839 62.1263 66.231C61.8972 66.1441 61.7198 66.0912 61.6152 66.0043C61.5095 65.9173 61.4378 65.7775 61.4378 65.62C61.4378 65.3944 61.5259 65.2699 61.7033 65.1477C61.8784 65.0431 62.1087 64.9902 62.3907 64.9902C62.4965 64.9902 62.6198 64.9902 62.7256 65.0278C62.8325 65.0607 62.9206 65.0784 63.0076 65.1301C62.9735 65.1653 62.9547 65.2699 62.903 65.4109H62.8666C62.8125 65.3239 62.762 65.2546 62.6739 65.1841C62.5846 65.1312 62.48 65.0972 62.3566 65.0972C62.2685 65.0972 62.1639 65.1312 62.0923 65.1489C62.0041 65.1841 61.9513 65.237 61.8984 65.2887C61.8467 65.3416 61.8103 65.4285 61.8103 65.5155C61.8103 65.6553 61.8631 65.761 61.9865 65.8127C62.1099 65.8656 62.2685 65.9526 62.4812 66.0043C62.7103 66.0912 62.8877 66.1441 62.9935 66.231C63.0981 66.318 63.1697 66.4237 63.1697 66.5824C63.1697 66.6858 63.1345 66.8103 63.0816 66.9137C63.0287 67.0018 62.9406 67.0712 62.8525 67.1581C62.7644 67.2451 62.6586 67.2627 62.5176 67.3156C62.3414 67.3156 62.1992 67.3496 62.0582 67.3496C61.9524 67.3496 61.8291 67.3156 61.6869 67.2979C61.5459 67.2627 61.4237 67.211 61.3696 67.1581C61.3873 67.0535 61.4225 66.949 61.4578 66.8432" fill="white"/>
<path d="M64.7383 65.1297V67.2635H64.3494V65.1297C64.0674 65.1297 63.7489 65.1297 63.4141 65.165V64.937H65.6207V65.1121C65.515 65.1121 65.3575 65.078 65.2142 65.078C65.0555 65.1297 64.9145 65.1297 64.7371 65.1297" fill="white"/>
<path d="M68.8673 64.9726H68.9554C68.9907 65.1653 69.0083 65.358 69.0436 65.5847C69.0776 65.8115 69.0964 66.0042 69.1317 66.2134C69.1658 66.4413 69.1846 66.5988 69.2186 66.7386C69.2551 66.8772 69.2727 67.0699 69.3056 67.3143H68.919C68.8838 67.1228 68.8838 66.9654 68.8661 66.7727C68.8309 66.5811 68.8309 66.4401 68.8133 66.3003C68.778 66.1957 68.778 66.0559 68.7604 65.9149C68.7251 65.7763 68.7251 65.6705 68.7063 65.5836C68.5313 65.828 68.3715 66.0724 68.2469 66.2463C68.1435 66.439 67.9837 66.6317 67.8768 66.7879C67.7722 66.9806 67.6841 67.1216 67.5948 67.2603H67.5419L67.3128 66.8761C67.2247 66.7374 67.1365 66.5964 67.0308 66.439C66.925 66.2815 66.8369 66.1417 66.7488 66.0019C66.6607 65.8632 66.5549 65.7222 66.4668 65.5648C66.4315 65.7575 66.4139 65.9137 66.3787 66.0536C66.3434 66.1934 66.3258 66.352 66.2905 66.5435C66.2565 66.7362 66.2565 66.8761 66.2377 66.9806C66.2377 67.0852 66.2024 67.2074 66.2024 67.2791H65.9204C65.9557 67.1393 66.0085 66.8584 66.0614 66.5106C66.1155 66.1241 66.1683 65.8268 66.2377 65.5471C66.2905 65.2687 66.3258 65.076 66.3258 64.9702H66.4315C66.5725 65.2158 66.6959 65.3556 66.7488 65.459C66.8017 65.5471 66.8898 65.6858 67.0132 65.8444C67.1365 66.0019 67.2435 66.1781 67.3492 66.3344C67.455 66.473 67.5431 66.614 67.6665 66.7539C67.7205 66.6493 67.8427 66.473 68.0037 66.2651C68.1788 66.0207 68.2669 65.8797 68.3198 65.7927C68.3726 65.7058 68.4267 65.6 68.5136 65.4954C68.6182 65.3204 68.7251 65.1982 68.8673 64.9702" fill="white"/>
<path d="M70.3326 65.13V65.9865H71.3384V66.1628H70.3326V67.158H71.1081C71.215 67.158 71.3724 67.158 71.5146 67.1239V67.3331H69.9789V65.0254H71.497V65.2005C71.3901 65.1664 71.2679 65.1664 71.1257 65.1664H70.3314V65.1311L70.3326 65.13Z" fill="white"/>
<path d="M74.6201 64.9723V67.2812H74.5143C74.4603 67.2284 74.3721 67.1414 74.2852 67.0545L72.4498 65.4282H72.397V67.2471H72.1678V64.9395H72.3441L74.3721 66.6702H74.4086V64.9395H74.5672C74.5848 64.9735 74.6201 64.9735 74.6201 64.9735" fill="white"/>
<path d="M76.473 65.1297V67.2635H76.0829V65.1297C75.8021 65.1297 75.4837 65.1297 75.1488 65.165V64.937H77.3555V65.1121C77.2497 65.1121 77.0911 65.078 76.9489 65.078C76.8079 65.1297 76.6493 65.1297 76.4719 65.1297" fill="white"/>
<path d="M56.3912 61.685C55.967 61.5804 55.5969 61.3877 55.2796 61.1104C54.9083 60.8308 54.5746 60.4794 54.2198 60.0071C53.8837 59.5712 53.5665 59.0119 53.2504 58.3633L50.797 53.4165C49.5444 53.9065 48.2907 54.4129 47.0205 54.8512C46.6492 54.9898 46.2803 55.132 45.9442 55.2354L47.5152 58.4514C47.621 58.6782 47.7091 58.9237 47.7784 59.1329C47.8325 59.362 47.8665 59.6052 47.8665 59.8167C47.8665 60.5335 47.6033 61.0223 47.0746 61.3019C46.5623 61.5992 45.6082 61.739 44.2499 61.7919H44.7434V62.7202H57.5908V61.846C57.0785 61.8084 56.7084 61.7919 56.39 61.6862" fill="white"/>
<path d="M47.3378 53.2766C47.7972 53.0839 48.2555 52.8912 48.6796 52.6997H44.6741L45.3262 54.0639C46.0312 53.8371 46.6845 53.5563 47.3378 53.2766Z" fill="white"/>
<path d="M44.6553 50.9511H49.5797L47.1792 46.0913L44.6553 50.9511Z" fill="white"/>
<path d="M22.4736 61.598C23.215 61.4065 23.9376 61.2126 24.679 61.0234C25.5955 60.7779 26.5144 60.5323 27.4485 60.2526C27.4485 60.1657 27.4144 60.0611 27.4144 59.973C27.4144 59.6933 27.4661 59.362 27.6071 58.959C27.7129 58.5407 27.9244 58.0848 28.1723 57.5266L30.5188 52.7009H41.4063L42.2888 50.9537H31.259L37.8238 38.1897L43.1359 49.3087L45.9935 43.7838L40.0292 31.7554H38.8824L25.2583 57.9109C24.4828 59.4149 23.7414 60.4265 23.0352 60.9882C22.329 61.5475 21.429 61.8095 20.3879 61.8448V62.1256C20.7052 62.0375 21.0412 61.9858 21.3937 61.8988C21.7286 61.7931 22.0999 61.6873 22.4712 61.5992" fill="white"/>
<path d="M22.3608 61.6894C22.0236 61.7435 21.6687 61.8328 21.3315 61.888C21.0119 61.9409 20.6923 61.9961 20.3915 62.049V62.6964H31.3636V61.7447H31.044C29.8021 61.7447 28.8961 61.6013 28.3098 61.2946C27.9738 61.0984 27.7423 60.8646 27.6001 60.5591C26.5696 60.8105 25.5039 61.0444 24.4922 61.2594C23.7461 61.4215 23.054 61.5473 22.362 61.6894" fill="white"/>
<path d="M49.5796 50.9512L50.1448 52.1062C51.0084 51.7208 51.892 51.3366 52.738 50.9512H49.5796Z" fill="white"/>
<path d="M43.1383 49.3071L42.2911 50.951H43.915L43.1383 49.3071Z" fill="white"/>
<path d="M65.9909 60.934C66.4844 60.5145 66.7852 59.833 66.9074 58.853C66.8193 58.6968 66.7312 58.5205 66.6442 58.3642L61.8256 48.6787C61.7727 48.714 61.6846 48.7304 61.6317 48.7833C60.1676 49.4648 58.7189 50.1475 57.2372 50.7937L57.3241 50.95H56.8659C56.8142 50.9852 56.7778 50.9852 56.7249 51.0029C55.349 51.615 54.0095 52.1567 52.6488 52.6984H58.102L60.9079 58.4688C61.0125 58.6956 61.1006 58.94 61.1711 59.1491C61.2251 59.3759 61.2592 59.6215 61.2592 59.8318C61.2592 60.5486 60.996 61.0385 60.4661 61.3182C59.9185 61.6155 58.9832 61.7894 57.5897 61.807V61.8411H58.0479V62.7164H57.5897H62.1593V61.7894C64.0122 61.7894 65.3353 61.4921 65.9886 60.9328" fill="white"/>
<path d="M44.1441 61.8082H44.197C43.0502 61.7741 42.203 61.6507 41.6566 61.3711C41.0914 61.0738 40.7918 60.6015 40.7918 59.9728C40.7918 59.692 40.8447 59.3607 40.9857 58.9588C41.0738 58.5393 41.2677 58.0846 41.5332 57.5253L41.9927 56.563C40.9328 56.9131 39.8753 57.2445 38.8155 57.577L38.6404 57.9095C37.8637 59.4135 37.1223 60.4264 36.4161 60.988C35.7099 61.5285 34.8099 61.8094 33.77 61.8434V62.7705H44.674H44.1276V61.8094H44.1453L44.1441 61.8082Z" fill="white"/>
<path d="M51.2212 38.1883L56.4793 49.2015C57.961 48.486 59.4438 47.7527 60.8726 46.9831C60.9079 46.9831 60.9255 46.9479 60.9255 46.9479L53.4078 31.7739H52.261L45.9795 43.82L47.1263 46.1266L51.2212 38.1894V38.1883Z" fill="white"/>
<path d="M44.7093 52.6997H41.3747L39.4865 56.3187C40.5628 55.8992 41.6555 55.515 42.7142 55.1143L43.8798 52.6997H44.7093Z" fill="white"/>
<path d="M42.7141 55.1118C41.6554 55.5313 40.578 55.9167 39.4852 56.3185L38.8319 57.577C39.8906 57.2456 40.9493 56.9131 42.0256 56.5629L42.7141 55.113V55.1118Z" fill="white"/>
<path d="M56.4792 49.1862L57.2547 50.776C58.72 50.1474 60.1676 49.4647 61.6516 48.7656C61.7021 48.7315 61.7902 48.7139 61.8431 48.661L60.9619 46.9126C60.9254 46.9126 60.909 46.9478 60.909 46.9478C59.4449 47.7175 57.9609 48.4507 56.4792 49.1862Z" fill="white"/>
<path d="M50.1449 52.1052L50.4609 52.7174H52.6676C54.0094 52.1745 55.3854 51.5976 56.7425 51.0206C56.7965 50.9854 56.833 50.9854 56.8847 50.9678H52.7722C51.8557 51.3355 50.9909 51.7198 50.1437 52.104" fill="white"/>
<path d="M43.9149 50.951H42.2899L41.3734 52.6994H48.7148C49.2095 52.5079 49.6489 52.28 50.1448 52.0884L49.5796 50.9346H44.6728L47.1603 46.0748L46.0135 43.7671L43.1547 49.2919L43.9138 50.9522L43.9149 50.951Z" fill="white"/>
<path d="M58.0513 61.8081H56.1514V62.7176H58.0513V61.8081Z" fill="white"/>
<path d="M58.485 61.7837H46.7538H43.2335V62.7695H77.2498V61.7837H58.485Z" fill="white"/>
<path d="M50.1448 52.105C49.6501 52.3329 49.2083 52.5245 48.7148 52.7172H50.4621L50.146 52.105H50.1448Z" fill="white"/>
<path d="M72.3088 37.3154C72.3088 35.7597 72.626 34.1852 73.2782 33.6435C73.9139 33.1018 75.2204 32.7858 77.1968 32.7176L77.2309 31.7905H62.1239V32.7176C64.0309 32.7693 65.3199 33.0666 65.972 33.6259C66.6253 34.1676 66.979 35.7409 66.979 37.2978V43.5558C68.8143 42.4548 70.6144 41.3374 72.3264 40.2V37.3154H72.3088Z" fill="white"/>
<path d="M71.8142 43.4851C71.7613 43.5204 71.7085 43.538 71.6732 43.5721L71.3912 43.7295L71.108 43.8858C71.0035 43.9387 70.9153 43.9915 70.7908 44.0432C70.5957 44.149 70.3842 44.27 70.1904 44.3769L69.5899 44.7083C69.5371 44.7435 69.4854 44.7612 69.4489 44.7941L69.308 44.8834L68.9895 45.0397C68.3386 45.391 67.65 45.7576 66.9967 46.1065V57.7156C66.9967 58.1339 66.9626 58.5193 66.9438 58.8682C67.173 59.3053 67.4373 59.6907 67.65 60.0221C67.9837 60.4604 68.3386 60.8446 68.7087 61.1231C69.0271 61.4039 69.4137 61.5954 69.8202 61.7012C70.2444 61.8057 70.7555 61.8574 71.4265 61.8574V62.7316H77.2498L77.2169 61.8057C75.3087 61.7529 73.9856 61.4732 73.3323 60.9315C72.6802 60.3887 72.3265 59.3053 72.3265 57.7496V43.2031L71.9916 43.3606L71.8154 43.4816L71.8142 43.4851Z" fill="white"/>
<path d="M56.4617 49.186C55.2256 49.797 53.973 50.3751 52.7181 50.9344H56.8318C56.9728 50.8816 57.095 50.8299 57.2372 50.777L56.4617 49.1872" fill="white"/>
<path d="M38.1798 56.7894C35.126 57.8563 32.091 58.8526 29.0912 59.7609C28.5261 59.9184 27.9785 60.0934 27.4145 60.2509C26.4957 60.5317 25.5604 60.7749 24.6439 61.0205C23.9024 61.2132 23.1798 61.4059 22.4372 61.5963C22.0671 61.6844 21.7322 61.789 21.3609 61.8771C21.026 61.964 20.7076 62.0345 20.3551 62.1039C20.6735 62.0522 20.9896 62.0005 21.2904 61.9476C21.6253 61.8947 21.9778 61.8078 22.3138 61.7549C23.0024 61.6162 23.7086 61.4753 24.3971 61.3354C25.4194 61.1075 26.4604 60.8983 27.485 60.6528C27.8916 60.5658 28.2781 60.4612 28.6835 60.3731C31.5963 59.6564 34.5609 58.8703 37.6135 57.9608C37.9848 57.8563 38.389 57.7329 38.7603 57.6107L39.4136 56.3511C39.0611 56.4909 38.6029 56.6307 38.1787 56.7882" fill="white"/>
<path d="M50.4269 52.6994H48.7138C48.2555 52.8921 47.7973 53.0848 47.3379 53.2763C46.6846 53.556 46.0324 53.8192 45.3615 54.0812C44.4803 54.4302 43.5978 54.798 42.7154 55.1293L42.0269 56.5816C43.3158 56.161 44.6201 55.7074 45.9443 55.2351C46.2792 55.1293 46.6493 54.9895 47.0206 54.8497C48.2743 54.4126 49.5281 53.9226 50.7971 53.415C51.3975 53.1706 52.0332 52.9438 52.6324 52.6982H50.4269V52.6994Z" fill="white"/>
<path d="M86.7802 31.6504H78.7503L81.4316 33.3295L81.1155 33.6091C81.0615 33.662 80.9745 33.7137 80.9193 33.7666L80.7278 33.924L80.4987 34.1144C80.4458 34.1672 80.3588 34.2201 80.3048 34.2718L79.8994 34.6055C79.7584 34.7077 79.6162 34.8323 79.4929 34.938L79.299 35.0943C79.2461 35.146 79.158 35.1989 79.1051 35.2518L78.6809 35.5819L78.2568 35.9156L78.0641 36.0731L77.8349 36.2294C77.6939 36.3351 77.5529 36.4561 77.4108 36.5619L76.9866 36.8956C76.3862 37.3315 75.7869 37.7698 75.1865 38.2057L74.9574 38.3632L74.7282 38.5206L74.4991 38.6769L74.3934 38.7638C74.3581 38.7991 74.3052 38.8167 74.2888 38.8508L73.8294 39.1845L73.7236 39.2714L73.6179 39.3584L73.3887 39.5158C73.0703 39.7426 72.7531 39.9353 72.4534 40.1445C70.7403 41.2983 68.9402 42.4181 67.1048 43.5014C66.5397 43.8516 65.9404 44.1818 65.34 44.5495C65.1637 44.6541 65.0051 44.7411 64.7924 44.848C64.6174 44.9526 64.4576 45.0395 64.2461 45.1441C64.0698 45.2498 63.9112 45.3368 63.6985 45.4425L63.1521 45.741C62.4636 46.1252 61.7574 46.5106 61.0348 46.8584L61.9172 48.6068C62.6586 48.2578 63.4353 47.8901 64.1756 47.5058L64.776 47.2097C64.9687 47.104 65.1825 46.983 65.3764 46.9113C65.5691 46.8067 65.7818 46.6845 65.9745 46.614C66.1695 46.5094 66.3822 46.3849 66.5737 46.3156C66.7159 46.2286 66.8569 46.1769 66.9991 46.0888C67.6524 45.7398 68.3409 45.372 68.9931 45.0231L69.3115 44.8668L69.4525 44.7775C69.5054 44.7434 69.5582 44.727 69.5935 44.6917L70.1939 44.3592C70.3878 44.2546 70.5993 44.1324 70.7943 44.0267C70.8989 43.975 70.9859 43.9221 71.1116 43.8692L71.3936 43.7129L71.712 43.5555C71.7649 43.5214 71.8001 43.5038 71.853 43.4685L71.994 43.3816L72.3289 43.1901L72.5956 43.0326C73.001 42.8058 73.3887 42.5614 73.7941 42.3511C74.2018 42.1067 74.5884 41.8799 74.9597 41.6344L75.5249 41.2842C75.613 41.2325 75.7188 41.1796 75.8069 41.0927L76.6893 40.5498L77.2533 40.2009C77.3062 40.148 77.3591 40.1127 77.4284 40.0951L77.5694 40.0082L77.8514 39.8166L78.1334 39.6251L78.4154 39.4324C79.1921 38.9424 79.9323 38.4348 80.6749 37.946L81.2225 37.5606C81.3987 37.422 81.5938 37.3162 81.7688 37.1764L82.3164 36.791L82.8639 36.4068L83.4103 36.0214C83.4984 35.9697 83.5866 35.8827 83.6759 35.8299L83.9391 35.6383C84.1153 35.4985 84.2739 35.3939 84.4866 35.2541L84.5395 35.2012L87.645 37.1423L86.7814 31.6516L86.7802 31.6504Z" fill="white"/>
<path d="M69.9036 61.6449C69.463 61.5357 69.0776 61.3371 68.7486 61.048C68.3632 60.7566 68.0154 60.3924 67.6476 59.9012C67.3738 59.557 67.1353 59.1575 66.9144 58.7051C66.8039 59.7379 66.4738 60.4464 65.9603 60.8647C65.2823 61.4299 63.944 61.7178 61.9265 61.773V62.7365H71.5709V61.8282C70.8918 61.847 70.343 61.773 69.9024 61.6461" fill="white"/>
</svg>
