<svg width="154" height="68" viewBox="0 0 154 68" fill="none" xmlns="http://www.w3.org/2000/svg">
<path d="M54.9415 0.529968C55.3646 0.38905 56.2101 0.395307 56.2101 1.54559C55.8664 2.10846 50.6269 11.2954 43.8907 23.1218C49.5007 24.4225 54.4179 27.446 53.7579 33.1833C51.457 40.2215 42.8166 43.9552 38.7843 44.9421C41.426 47.3911 48.5629 52.1472 56.3898 52.0612C56.7077 51.3552 57.4168 50.863 58.2413 50.863C59.3624 50.8631 60.2714 51.7722 60.2716 52.8932C60.2716 54.0145 59.3625 54.9234 58.2413 54.9235C57.3262 54.9235 56.5525 54.3182 56.299 53.486C52.2814 53.4519 43.3419 51.8295 37.0929 45.4489C36.078 44.3493 36.7547 43.5878 38.0236 43.4186C39.2947 43.2486 51.473 38.9349 51.8116 32.0837C51.882 30.5341 50.7796 26.3468 42.9386 24.7927C35.0962 38.5627 25.5097 55.4107 19.2433 66.4284C18.8202 67.1333 17.7711 68.2216 16.9591 66.9362C15.9441 65.3288 17.3816 58.4766 20.173 53.4011C22.9645 48.3256 27.364 42.9122 29.3097 44.9421C30.0124 43.6606 35.3391 34.2556 40.8878 24.4684C39.8137 24.3379 38.6366 24.2502 37.3468 24.2165C35.8783 24.1685 34.3369 24.2427 32.7697 24.4235L14.715 41.7399C15.9816 42.7086 16.4054 42.9352 16.4523 42.9118L16.4581 42.9177C16.8167 42.5989 17.2883 42.404 17.8058 42.404C18.9269 42.4042 19.836 43.3131 19.8361 44.4343C19.836 45.5553 18.9268 46.4643 17.8058 46.4645C16.7733 46.4645 15.9216 45.6935 15.7931 44.696C15.0866 44.3436 14.1799 43.7967 13.2902 43.1061L5.11536 50.9479L2.15442 53.7399C1.56205 53.8806 0.446576 53.8402 0.716919 52.5554C1.1203 52.1232 5.74644 47.6751 11.8517 41.821C10.721 40.6338 9.87483 39.2057 9.93762 37.6667C10.1028 33.6201 12.7679 25.7851 31.7833 22.739C34.0323 20.5889 36.1245 18.5894 37.9376 16.8571L54.9415 0.529968ZM28.548 46.2956C28.2087 46.1838 26.8886 46.9403 24.3185 50.863C21.747 54.7881 19.525 60.9582 18.7355 63.5524L28.548 46.2956ZM29.4669 24.9538C18.5644 27.1804 8.00535 33.992 13.2872 40.4431C18.3356 35.6042 24.1942 29.9959 29.4669 24.9538ZM34.9103 22.3708C37.0018 22.2506 39.4475 22.3462 41.8732 22.7311C45.0871 17.0631 48.2873 11.4195 50.6271 7.29755L34.9103 22.3708Z" fill="url(#paint0_radial_209_4796)"/>
<path fill-rule="evenodd" clip-rule="evenodd" d="M67.8571 25.207C69.4022 25.2482 69.8135 25.3221 70.6961 25.7279C71.2639 25.9875 71.9797 26.3897 72.8469 27.0379V25.3187H76.116V42.5102H72.8469V40.7911L72.0296 41.3842C71.5805 41.7091 70.7856 42.1234 70.266 42.3057C69.7463 42.4879 68.8551 42.6907 68.2873 42.7595C67.6834 42.83 66.7921 42.7991 66.1365 42.6839C65.5206 42.5738 64.4762 42.2283 63.8137 41.9137C62.9431 41.5011 62.3237 41.0386 61.577 40.2444C61.0092 39.641 60.3364 38.7229 60.0835 38.2072C59.8289 37.6897 59.5019 36.7648 59.354 36.1494C59.2077 35.5339 59.0873 34.5299 59.0873 33.9145C59.0873 33.299 59.2077 32.295 59.354 31.6796C59.5019 31.0641 59.8271 30.1358 60.0801 29.6166C60.3364 29.0871 61.0315 28.1742 61.6596 27.5399C62.365 26.8281 63.1479 26.2402 63.7707 25.9496C64.3144 25.6969 65.0509 25.4167 65.4053 25.3256C65.7597 25.2345 66.8644 25.1812 67.8571 25.207ZM63.6056 30.1083C63.301 30.5466 62.9294 31.2532 62.7814 31.6796C62.6334 32.1042 62.4665 32.8778 62.4115 33.3987C62.3444 34.0245 62.408 34.7225 62.5973 35.4617C62.7556 36.0772 63.1066 36.9264 63.3767 37.3528C63.6468 37.7774 64.1665 38.3361 64.5295 38.5906C64.8926 38.8467 65.481 39.1751 65.8354 39.3212C66.1899 39.4673 66.9642 39.5894 67.556 39.5894C68.1479 39.5911 68.979 39.4777 69.4057 39.3367C69.8324 39.1974 70.555 38.7522 71.0144 38.3464C71.5203 37.8995 72.0192 37.2393 72.2842 36.6651C72.5939 35.9981 72.7471 35.3156 72.8073 34.3443C72.8675 33.385 72.8107 32.6836 72.6232 32.0234C72.4752 31.5025 72.0898 30.6911 71.768 30.2183C71.3396 29.5891 70.8974 29.2091 70.1214 28.8C69.1889 28.3083 68.9015 28.2413 67.7229 28.2413C66.5787 28.2413 66.2243 28.3186 65.2728 28.7759C64.44 29.1782 64.0219 29.5117 63.6056 30.1083ZM87.9881 25.1468L87.9915 28.1553L86.9574 28.2842C86.3879 28.3547 85.6326 28.5335 85.2781 28.6796C84.9237 28.8258 84.3714 29.1937 84.0531 29.4962C83.733 29.7988 83.3287 30.3558 83.1532 30.734C82.8624 31.3581 82.8332 31.9323 82.8263 42.5102H79.5572V25.3187L82.7403 25.4047L82.8263 26.5221L83.3855 26.1439C83.6935 25.9359 84.3318 25.6299 84.805 25.4631C85.2902 25.2912 86.1728 25.1571 87.9881 25.1468V25.1468ZM96.419 25.1605C97.312 25.1502 98.2497 25.2517 98.8278 25.4219C99.3474 25.5749 100.161 25.8981 100.634 26.137C101.108 26.3777 101.882 26.9725 102.355 27.4591C102.828 27.9456 103.42 28.7656 103.67 29.2814C103.917 29.7971 104.172 30.4504 104.232 30.734C104.342 31.2429 104.325 31.2567 103.005 31.7655C102.269 32.0492 101.605 32.2813 101.529 32.2813C101.453 32.2813 101.2 31.8171 100.968 31.2498C100.734 30.6825 100.294 29.9604 99.9875 29.6441C99.6812 29.3295 99.1203 28.9049 98.7418 28.7003C98.1912 28.4063 97.7576 28.3307 96.579 28.3289C95.2782 28.3272 94.9857 28.3874 94.0927 28.843C93.4079 29.192 92.8677 29.6372 92.4238 30.2183C92.0624 30.6911 91.6426 31.5025 91.4895 32.0234C91.2933 32.6939 91.2365 33.3936 91.2933 34.4302C91.3501 35.5047 91.4809 36.1184 91.7871 36.7494C92.016 37.2204 92.4754 37.8737 92.8057 38.2003C93.1361 38.5252 93.8346 38.986 94.3543 39.2215C95.0976 39.5585 95.5793 39.6513 96.591 39.6496C97.5012 39.6478 98.1103 39.5464 98.6557 39.304C99.0824 39.1166 99.7242 38.6576 100.086 38.2863C100.447 37.9132 100.91 37.1654 101.118 36.617C101.324 36.0703 101.534 35.6233 101.581 35.6267C101.627 35.6285 102.295 35.8829 104.458 36.7511L104.253 37.4387C104.139 37.8169 103.866 38.4737 103.645 38.9C103.425 39.3246 102.852 40.0673 102.37 40.5487C101.889 41.03 101.089 41.63 100.591 41.881C100.094 42.132 99.2046 42.4535 98.6127 42.5945C98.0208 42.7337 97.0728 42.8506 96.505 42.8523C95.9372 42.8541 95.0081 42.7372 94.4403 42.591C93.8725 42.4466 93.0208 42.1423 92.5476 41.9154C92.0745 41.6885 91.3054 41.1676 90.8391 40.7601C90.3711 40.351 89.6897 39.5533 89.3232 38.986C88.9568 38.4187 88.4922 37.4129 88.2892 36.7511C88.0259 35.8949 87.9192 35.1007 87.921 34.0004C87.9227 33.0274 88.0362 32.0715 88.2289 31.4217C88.3976 30.8544 88.7795 29.9346 89.0789 29.3759C89.3783 28.8189 90.0872 27.9284 90.655 27.3972C91.2228 26.8659 92.0745 26.2436 92.5476 26.015C93.0208 25.7846 93.7555 25.5044 94.1822 25.3875C94.6089 25.2723 95.6155 25.1691 96.419 25.1605ZM115.087 25.1537C116.03 25.1468 117.006 25.2517 117.582 25.4201C118.104 25.5714 118.985 25.9393 119.544 26.2385C120.101 26.5359 120.994 27.2442 121.526 27.8115C122.059 28.3788 122.699 29.2676 122.949 29.7885C123.197 30.3077 123.523 31.334 123.675 32.0664C123.825 32.7987 123.947 33.6893 123.945 34.0434C123.943 34.3976 123.826 35.2296 123.685 35.8915C123.544 36.5534 123.19 37.5969 122.897 38.2124C122.553 38.9378 121.994 39.696 121.307 40.3733C120.726 40.9475 119.824 41.6214 119.303 41.8724C118.782 42.1234 117.892 42.4466 117.324 42.591C116.756 42.7372 115.789 42.8558 115.173 42.8558C114.557 42.8558 113.59 42.7372 113.023 42.591C112.455 42.4466 111.603 42.1423 111.13 41.9154C110.657 41.6885 109.888 41.1676 109.421 40.7601C108.953 40.351 108.272 39.5533 107.906 38.986C107.539 38.4187 107.073 37.4129 106.87 36.7511C106.595 35.8588 106.502 35.1265 106.509 33.9145C106.519 32.6199 106.617 31.9959 106.983 30.906C107.254 30.1014 107.746 29.1249 108.169 28.5507C108.568 28.0109 109.358 27.2167 109.926 26.7869C110.579 26.29 111.431 25.8482 112.248 25.5835C113.21 25.2688 113.933 25.1605 115.087 25.1537ZM112.033 29.1868C111.679 29.4223 111.154 29.9449 110.867 30.3472C110.579 30.7495 110.22 31.4647 110.068 31.9374C109.869 32.5632 109.814 33.2182 109.871 34.3443C109.932 35.5597 110.043 36.0754 110.387 36.7511C110.628 37.2238 111.087 37.8754 111.409 38.1986C111.729 38.5218 112.415 38.9808 112.937 39.2198C113.68 39.5585 114.16 39.6513 115.173 39.6513C116.182 39.6513 116.67 39.5585 117.41 39.2215C117.932 38.986 118.628 38.527 118.96 38.202C119.293 37.8771 119.757 37.2238 119.993 36.7511C120.339 36.0565 120.432 35.5769 120.478 34.2583C120.524 32.9363 120.469 32.4446 120.184 31.6796C119.989 31.1587 119.539 30.3936 119.181 29.9793C118.821 29.5633 118.141 29.0286 117.668 28.7897C117.013 28.4579 116.479 28.341 115.432 28.2946C114.494 28.255 113.837 28.3186 113.367 28.4957C112.988 28.6384 112.388 28.9496 112.033 29.1868ZM134.616 25.1468L134.62 28.1553L133.585 28.2842C133.016 28.3547 132.261 28.5335 131.906 28.6796C131.552 28.8258 130.999 29.1937 130.681 29.4962C130.361 29.7988 129.957 30.3558 129.781 30.734C129.49 31.3581 129.461 31.9323 129.454 42.5102H126.185V25.3187L129.368 25.4047L129.454 26.5221L129.927 26.1886C130.187 26.0046 130.826 25.7021 131.347 25.513C131.915 25.3084 132.758 25.1674 134.616 25.1468ZM144.854 25.1605C145.669 25.1502 146.616 25.2568 147.176 25.4219C147.698 25.5749 148.472 25.8791 148.897 26.0958C149.322 26.3141 149.981 26.7559 150.36 27.0791C150.738 27.4006 151.382 28.1622 151.789 28.769C152.197 29.3776 152.674 30.3386 152.849 30.906C153.025 31.4733 153.221 32.5168 153.285 33.2268C153.369 34.1448 153.322 34.8875 153.126 35.8055C152.975 36.5138 152.612 37.5969 152.319 38.2124C152.01 38.8622 151.38 39.7493 150.815 40.3304C150.229 40.9338 149.399 41.5561 148.725 41.8948C148.109 42.2042 147.142 42.5567 146.574 42.677C145.967 42.8059 145.01 42.8592 144.251 42.8059C143.541 42.7561 142.536 42.5567 142.015 42.3624C141.493 42.1681 140.74 41.7744 139.606 40.963V47.6677H136.337V25.3187H139.434L139.429 26.0493C139.427 26.4516 139.484 26.835 139.558 26.902C139.632 26.9691 139.924 26.8419 140.208 26.6218C140.492 26.4001 140.996 26.082 141.326 25.9135C141.657 25.7451 142.278 25.5095 142.703 25.3926C143.128 25.274 144.097 25.1691 144.854 25.1605ZM142.24 28.8034C141.973 28.9513 141.474 29.369 141.13 29.7318C140.784 30.0945 140.32 30.7375 140.098 31.1638C139.74 31.8463 139.692 32.1712 139.692 33.9145C139.692 35.5511 139.754 36.0239 140.048 36.6651C140.246 37.0897 140.671 37.7361 140.994 38.0989C141.32 38.4616 142.009 38.9619 142.531 39.2095C143.298 39.5739 143.721 39.6582 144.768 39.653C145.798 39.6461 146.232 39.5567 146.918 39.2095C147.392 38.9705 148.04 38.5132 148.36 38.1917C148.682 37.872 149.147 37.2238 149.393 36.7511C149.802 35.9689 149.843 35.7127 149.843 33.9145C149.843 32.0389 149.818 31.8893 149.327 31.0108C149.043 30.5002 148.462 29.7816 148.037 29.4137C147.612 29.0475 146.913 28.6315 146.488 28.4923C146.063 28.3513 145.249 28.2447 144.682 28.2533C144.114 28.2636 143.441 28.3307 143.186 28.4011C142.93 28.4734 142.505 28.6539 142.24 28.8034Z" fill="#C29B66"/>
<defs>
<radialGradient id="paint0_radial_209_4796" cx="0" cy="0" r="1" gradientTransform="matrix(-25.3357 31.7649 -28.2268 -22.5139 30.7904 32.2103)" gradientUnits="userSpaceOnUse">
<stop stop-color="#BE9765"/>
<stop offset="1" stop-color="#856435"/>
</radialGradient>
</defs>
</svg>
