<svg width="108" height="99" viewBox="0 0 108 99" fill="none" xmlns="http://www.w3.org/2000/svg">
<path d="M79.3464 59.9565C78.7897 59.5938 78.2002 59.5594 77.5998 59.8408C76.9681 60.1364 76.7445 60.6727 76.7492 61.3216C76.7617 63.3059 76.7804 65.2871 76.7929 67.2698C76.7992 68.233 76.8477 69.2025 76.7882 70.1641C76.6647 72.2204 75.1589 73.526 73.1136 73.4134C71.3404 73.3149 69.9316 71.5839 70.2365 69.8764C70.5195 68.2862 71.772 67.1791 73.4217 67.0696C73.9314 67.0352 74.3724 66.8648 74.6726 66.4426C75.0885 65.8594 75.1417 65.2292 74.818 64.5944C74.5569 64.083 74.08 63.8157 73.5249 63.8907C72.7227 63.9955 71.894 64.1081 71.145 64.3895C68.3351 65.4513 66.6291 68.2236 67.0013 70.9913C67.4829 74.5799 70.7009 77.0458 74.3567 76.547C77.5325 76.1154 79.6513 73.6214 79.9062 70.849C80.0579 69.1822 79.9328 67.4903 79.9328 65.8109L80 61.367C79.9969 60.8087 79.8608 60.2912 79.348 59.9565" fill="white"/>
<path d="M51.818 76.6471C52.7265 76.5752 53.3395 75.8966 53.3035 75.0068C53.266 74.0796 52.6515 73.4917 51.7117 73.4901C50.2419 73.4885 48.772 73.4901 47.3022 73.4901C47.1693 73.4901 47.0348 73.4792 46.8409 73.4682C46.9441 73.3322 47.0035 73.2415 47.077 73.1617C48.3358 71.7435 49.6023 70.3284 50.8595 68.9101C51.5741 68.1064 52.2934 67.3089 52.9814 66.4833C53.4302 65.9454 53.438 65.3215 53.1378 64.7132C52.8704 64.1753 52.3997 63.8829 51.7836 63.8798C48.9081 63.8736 46.0309 63.872 43.1553 63.8798C42.5643 63.8829 42.0967 64.1347 41.8075 64.6601C41.1929 65.7844 41.9357 67.0494 43.2413 67.0666C44.583 67.0853 45.9261 67.0712 47.2678 67.0712H48.1638C47.0285 68.3488 45.9684 69.5371 44.9098 70.7287C43.9356 71.8248 42.9474 72.91 41.9967 74.0249C41.526 74.5753 41.4963 75.2226 41.8262 75.859C42.128 76.447 42.6471 76.6643 43.3101 76.6612C46.02 76.6518 48.7298 76.6581 51.4396 76.6581C51.5663 76.6581 51.6945 76.6581 51.8212 76.6456" fill="white"/>
<path d="M66.2646 75.1067C66.2787 74.3655 66.2678 73.6259 66.2678 72.8863L66.1864 69.4337C65.7189 65.8983 62.3414 63.4605 58.7403 64.0047C54.6278 64.627 52.1307 69.01 53.8069 72.7471C54.8983 75.1802 56.928 76.3639 59.5612 76.6391C60.1226 76.6985 60.6433 76.6188 61.0092 76.1465C61.4204 75.6165 61.4267 75.0285 61.1765 74.4375C60.9294 73.8511 60.4666 73.5337 59.8192 73.4914C57.9334 73.3663 56.7779 72.2452 56.6512 70.4126C56.5433 68.8786 57.5206 67.5136 58.9342 67.2211C60.7746 66.8412 62.1022 67.5198 62.7042 69.1476C63.1201 70.2797 63.1217 71.4587 63.1029 72.6377C63.0888 73.5024 63.0044 74.3687 63.045 75.2318C63.0888 76.1325 63.8065 76.6751 64.7494 76.6313C65.6423 76.5906 66.2459 75.9902 66.2646 75.1051" fill="white"/>
<path d="M34.2799 76.6409C34.8382 76.7003 35.3636 76.6222 35.7295 76.1499C36.1376 75.6214 36.1485 75.035 35.8968 74.4408C35.6497 73.8545 35.19 73.5355 34.5411 73.4933C32.5333 73.3604 31.2855 72.0047 31.3684 70.0391C31.4309 68.5474 32.4395 67.37 33.9141 67.1776C35.5575 66.9634 36.8459 67.4653 37.376 69.0806C37.6403 69.8796 37.7669 70.7428 37.806 71.5825C37.8607 72.7333 37.7622 73.8889 37.7513 75.0429C37.7419 76.0061 38.3799 76.6237 39.3525 76.6315C40.3063 76.6394 40.949 76.0467 40.9693 75.1038C40.9896 74.3267 40.974 73.548 40.974 72.7709L40.9505 69.728C40.5972 66.0424 37.1743 63.4405 33.4559 64.0034C29.3278 64.6304 26.8416 69.0306 28.5413 72.7787C29.639 75.193 31.6608 76.3595 34.2784 76.6378" fill="white"/>
<path d="M42.3094 81.9192C42.3313 81.9208 42.3532 81.9239 42.3736 81.9255C42.5784 82.7683 42.7848 83.6111 43.0162 84.565C43.2085 84.4508 43.4353 84.3945 43.4728 84.2819C43.7793 83.3172 44.0529 82.3399 44.336 81.3673C44.0451 81.2171 43.956 81.3626 43.8981 81.5924C43.7105 82.3555 43.515 83.117 43.3086 83.9348C43.1038 83.1092 42.9208 82.3446 42.7144 81.5862C42.6847 81.4767 42.5518 81.3516 42.4392 81.3157C42.2187 81.2469 42.1718 81.4298 42.1312 81.5956C41.9404 82.3586 41.7481 83.1233 41.5323 83.9848C41.4744 83.7941 41.44 83.6909 41.4135 83.5877C41.243 82.92 41.0632 82.2554 40.9131 81.583C40.8474 81.2844 40.6957 81.2609 40.4205 81.361C40.6895 82.3946 40.9537 83.4204 41.2164 84.4289C41.512 84.5431 41.6433 84.4446 41.7027 84.1803C41.7762 83.8488 41.8747 83.5251 41.9639 83.1983L42.311 81.9208L42.3094 81.9192Z" fill="white"/>
<path d="M29.7125 82.1928C30.1613 82.9058 30.6054 83.6235 31.0698 84.3272C31.1355 84.4273 31.3059 84.4664 31.4373 84.507C31.4607 84.5148 31.567 84.3929 31.5686 84.3288C31.5764 83.3405 31.5733 82.3539 31.5733 81.3469H31.1996V83.8284C30.7258 83.0731 30.252 82.3367 29.7985 81.5877C29.6422 81.3312 29.4702 81.2327 29.1793 81.3562V84.4836C29.3982 84.5524 29.5452 84.5477 29.5296 84.274C29.5218 84.1615 29.5296 84.0489 29.5296 83.9363V81.8926C29.6281 82.0521 29.6687 82.1256 29.7125 82.1944" fill="white"/>
<path d="M74.4537 81.2455C73.5296 81.2173 72.901 81.896 72.8698 82.9217C72.9307 83.175 72.9636 83.4409 73.0605 83.6817C73.2654 84.1977 73.675 84.4776 74.2301 84.5167C74.7884 84.5542 75.2809 84.3759 75.5655 83.8787C75.9502 83.2079 75.9533 82.5105 75.5421 81.8459C75.3013 81.455 74.9228 81.2611 74.4553 81.2455M74.3318 84.2524C73.7157 84.243 73.2544 83.6457 73.2857 82.8701C73.2966 82.6481 73.3404 82.4198 73.4123 82.2103C73.5437 81.8178 73.8236 81.5707 74.2599 81.5613C74.6742 81.5535 75.0151 81.7224 75.1902 82.1039C75.3091 82.3619 75.3669 82.6449 75.4514 82.9186C75.3966 83.6973 74.9354 84.2633 74.3318 84.2524Z" fill="white"/>
<path d="M69.4766 82.0067C69.4125 81.647 69.1811 81.3953 68.8214 81.3577C68.3977 81.3139 67.9661 81.3468 67.5236 81.3468C67.5111 81.4562 67.4986 81.5422 67.4986 81.6282C67.4954 82.5055 67.4954 83.3842 67.4986 84.263C67.5001 84.5726 67.6956 84.46 67.8989 84.435V83.1184C68.7198 83.0481 68.8574 83.1419 69.0419 83.8674C69.07 83.9769 69.1076 84.0848 69.1232 84.1973C69.1592 84.4647 69.2999 84.5335 69.5782 84.421C69.4015 83.9206 69.228 83.4233 69.0372 82.8807C69.0028 82.9058 69.0654 82.8667 69.1216 82.8244C69.4031 82.6196 69.536 82.346 69.4766 82.0067ZM69.0435 82.2349C69.0028 82.5305 68.7995 82.7025 68.5118 82.7447C68.3007 82.7744 68.0834 82.7494 67.8113 82.7494C67.8113 82.4273 67.8316 82.1521 67.805 81.8831C67.7753 81.5626 67.9411 81.4875 68.21 81.5141C68.3726 81.5313 68.5431 81.5454 68.6932 81.6001C68.9856 81.708 69.0841 81.9504 69.0435 82.2349Z" fill="white"/>
<path d="M58.5512 81.315C58.4605 81.315 58.3166 81.3823 58.2901 81.4558C57.9257 82.4409 57.577 83.4307 57.2236 84.4189C57.4879 84.5362 57.6114 84.4533 57.6755 84.225C57.7178 84.0687 57.7928 83.9201 57.8303 83.7622C57.8913 83.5167 58.0227 83.4275 58.2901 83.4275C59.1423 83.4307 59.1532 83.415 59.4284 84.1875C59.5191 84.4424 59.6442 84.5315 59.946 84.4252C59.591 83.4229 59.2423 82.4237 58.8717 81.4308C58.8452 81.3588 58.6622 81.3135 58.5527 81.3135M58.1165 83.1054C58.2697 82.6269 58.4105 82.1813 58.5793 81.6481C58.7451 82.1766 58.8858 82.6254 59.0375 83.1054H58.1165Z" fill="white"/>
<path d="M37.09 84.3345C37.0119 84.2797 36.9352 84.1812 36.8539 84.175C36.5474 84.1546 36.2394 84.1796 35.9345 84.1546C35.8422 84.1468 35.6859 84.042 35.6796 83.9717C35.653 83.6417 35.6671 83.3056 35.6671 82.9897C36.1268 82.8599 36.5881 83.0554 36.9743 82.8599L36.9446 82.677H36.413C35.6046 82.677 35.6108 82.677 35.6608 81.8717C35.6718 81.6747 35.7422 81.6074 35.9361 81.6121C36.2894 81.6215 36.646 81.6152 37.0009 81.6152C37.0212 81.5855 37.0416 81.5558 37.0635 81.5277C37.0009 81.4557 36.9415 81.3228 36.8774 81.3197C36.3598 81.3041 35.8422 81.3103 35.3215 81.3103V84.4752C35.8501 84.4752 36.3582 84.4814 36.8664 84.4689C36.9431 84.4689 37.0165 84.3829 37.09 84.336" fill="white"/>
<path d="M53.965 84.3606C53.9213 84.2683 53.8759 84.1761 53.8353 84.0901C52.9987 84.2965 52.4608 84.1651 52.1387 83.6992C51.8322 83.2582 51.84 82.4998 52.1496 82.0573C52.4702 81.6007 53.0675 81.4647 53.8712 81.6711C54.0151 81.4397 53.9447 81.3521 53.7102 81.2927C52.9565 81.105 52.1543 81.3724 51.7822 81.9588C51.4116 82.5452 51.4694 83.5084 51.8869 84.0182C52.3357 84.567 53.3896 84.6483 53.9635 84.3606" fill="white"/>
<path d="M63.7098 84.442V81.2646H63.4049V84.467C63.5269 84.4561 63.6223 84.4483 63.7098 84.442Z" fill="white"/>
<path d="M40.5942 28.6271C41.0555 29.0555 41.5887 29.362 42.161 29.6137C42.7333 29.8655 43.3307 30.0187 43.9608 30.0469C44.2517 30.0578 44.5441 30.0797 44.8318 30.111C45.3947 30.1735 45.8732 30.4206 46.2375 30.8381C47.024 31.7372 47.1851 32.7598 46.7989 33.8747C46.5362 34.6331 45.9889 35.1022 45.2243 35.3446C45.1774 35.3602 45.132 35.3821 45.0194 35.4306C47.3899 35.8903 49.3414 36.9458 50.9614 38.6048C52.5891 40.2733 53.5461 42.2513 53.9182 44.5139C53.9792 44.2153 54.048 43.9182 54.0996 43.6195C54.2372 42.8408 54.4733 42.0902 54.8017 41.3725C55.1676 40.5672 55.632 39.8198 56.1949 39.1271C56.6781 38.5313 57.191 37.9606 57.8102 37.4977C58.2902 37.1412 58.7859 36.7988 59.2988 36.4892C59.9415 36.0998 60.6311 35.8059 61.3535 35.5885C61.3973 35.5744 61.4348 35.5353 61.5192 35.4775C60.5888 35.4775 59.7194 35.4884 58.85 35.4728C58.2246 35.465 57.6022 35.5041 56.9752 35.4196C56.2497 35.3227 55.6867 35.0131 55.2677 34.4345C55.177 34.3094 55.0957 34.175 54.9972 34.0233C54.9534 34.0827 54.9252 34.1202 54.9018 34.1593C54.7141 34.4564 54.4733 34.7066 54.1731 34.8942C53.4085 35.3665 52.5813 35.4619 51.7119 35.2633C50.5955 35.0115 49.7761 34.0405 49.7949 32.9193C49.8183 31.3948 49.8386 29.8686 49.8511 28.3425C49.8543 28.1079 49.8105 27.8734 49.8058 27.6373C49.798 27.1525 49.8011 26.6662 49.7995 26.1784C49.7949 25.3324 49.8339 24.4818 49.6463 23.6421C49.5541 23.2293 49.4508 22.8212 49.2663 22.4381C48.9348 21.7516 48.4736 21.1637 47.8715 20.6774C47.1616 20.1035 46.3829 19.7048 45.4713 19.5093C44.8255 19.3717 44.1876 19.353 43.5605 19.4765C42.6333 19.6595 41.7514 19.9706 40.9883 20.5617C40.5051 20.9354 40.1158 21.381 39.7983 21.8861C39.3855 22.546 39.1103 23.2637 38.9665 24.0236C38.9086 24.3317 38.8633 24.6522 38.8836 24.9634C38.9227 25.531 39.0212 26.0877 39.2307 26.6303C39.5341 27.4027 39.9875 28.0579 40.5974 28.6224" fill="white"/>
<path d="M69.7425 47.9132C70.1522 47.0422 70.246 46.1071 70.2538 45.1736C70.2788 42.0697 70.2648 38.9659 70.2632 35.862C70.2632 35.5274 70.2413 35.5039 69.902 35.5039C68.8622 35.5039 67.8208 35.5039 66.7778 35.5039C66.6996 35.5039 66.6214 35.5149 66.476 35.5242C66.5948 35.6493 66.6793 35.7228 66.7418 35.8073C66.8888 36.0058 67.0624 36.195 67.1578 36.4171C67.5393 37.2959 67.5549 38.1887 67.1062 39.0456C66.6855 39.8478 66.0022 40.3044 65.0703 40.3825C64.4604 40.4341 63.8475 40.4732 63.2564 40.6468C62.1462 40.9736 61.2236 41.5631 60.4793 42.4466C59.8226 43.2284 59.4723 44.1291 59.3535 45.1079C59.2472 45.9992 59.3676 46.8827 59.7382 47.7177C60.1463 48.6309 60.7342 49.4096 61.5661 49.9913C62.3026 50.5073 63.111 50.8419 64.021 50.9654C64.6543 51.053 65.2704 51.0467 65.8818 50.9248C66.4009 50.82 66.8951 50.6277 67.372 50.3837C68.4587 49.8271 69.2343 48.9983 69.7441 47.9116" fill="white"/>
<path d="M48.4266 48.7188C48.4188 48.1137 48.4172 47.5086 48.4203 46.9034C48.4235 46.2311 48.4156 45.5618 48.2765 44.8988C48.1404 44.2436 47.8981 43.6322 47.5181 43.0803C47.1006 42.4767 46.5861 41.9669 45.9622 41.5619C45.1476 41.0319 44.2625 40.7191 43.2868 40.6832C42.9272 40.6691 42.5613 40.7066 42.2032 40.7567C41.645 40.8348 41.1071 40.9865 40.6036 41.2461C39.8233 41.6479 39.1666 42.1874 38.6396 42.8817C38.0313 43.6838 37.6686 44.5876 37.5622 45.5743C37.4919 46.2311 37.545 46.8925 37.7405 47.5383C38.1033 48.7173 38.7709 49.6664 39.817 50.3607C40.7787 50.9955 41.8295 51.3364 42.9913 51.3411C43.2086 51.3411 43.4307 51.3818 43.6465 51.4224C44.1703 51.5178 44.6144 51.7758 44.9474 52.1761C45.698 53.0799 45.8153 54.0994 45.4134 55.1815C45.3243 55.4191 45.1726 55.6318 45.0491 55.8554C45.2836 55.9398 48.8675 55.9414 49.113 55.8523C49.0145 55.7006 48.9207 55.5521 48.8222 55.4035C48.5204 54.9579 48.4547 54.4465 48.4344 53.9368C48.4141 53.4536 48.4735 52.9704 48.4719 52.4873C48.4641 51.2285 48.4391 49.9713 48.425 48.7157" fill="white"/>
<path d="M50.4639 15.8861C50.9627 16.2161 51.4193 16.6132 51.8649 17.012C52.8094 17.8579 53.5537 18.8587 54.1291 19.9814C54.6936 21.0806 55.0314 22.2487 55.194 23.4637C55.2753 24.0579 55.3457 24.6599 55.3488 25.2588C55.3566 27.0335 55.3285 28.8067 55.3144 30.5799C55.3144 30.6956 55.3144 30.8098 55.3144 30.9239C55.341 30.9317 55.3676 30.9395 55.3941 30.9474C58.8061 27.1195 62.2164 23.2932 65.6283 19.4654C65.6315 19.4622 65.6283 19.4466 65.6236 19.4404C65.6205 19.4294 65.6143 19.4216 65.6033 19.3997H65.2484C62.5385 19.3997 59.8271 19.4075 57.1189 19.3934C56.1291 19.3872 55.4285 18.8806 54.9923 18.0268C54.6592 17.3747 54.6264 16.6774 54.7953 15.9768C54.8859 15.6062 55.0486 15.2529 55.316 14.9605C55.4661 14.7931 55.6209 14.6305 55.8023 14.4351H47.5023C47.6352 14.5242 47.7744 14.5774 47.9151 14.6227C48.8283 14.9182 49.6727 15.3639 50.4639 15.8861Z" fill="white"/>
<path d="M63.8662 30.1739C66.293 30.1739 68.7183 30.1677 71.1451 30.1771C72.0755 30.1802 73.009 30.1255 73.9519 30.2208V18.3823C73.0637 19.3925 72.2068 20.3713 71.3406 21.3439C70.468 22.3259 69.5861 23.2985 68.7105 24.2742C67.8395 25.2437 66.9639 26.2085 66.1054 27.1873C65.2438 28.1693 64.3541 29.1263 63.4659 30.1739H63.8662Z" fill="white"/>
<path d="M33.9266 39.6135C34.0485 39.4571 34.1377 39.3383 34.2315 39.2226C34.4676 38.9286 34.6912 38.619 34.9508 38.3454C35.8671 37.3822 36.9788 36.691 38.2157 36.2047C39.4041 35.7356 40.6363 35.4229 41.9263 35.3854C42.0389 35.3807 42.1499 35.3541 42.2625 35.34C38.2454 34.3784 35.4871 32.0204 33.889 28.291C33.8844 28.4036 33.875 28.5146 33.875 28.6272V39.2195C33.875 39.2789 33.8687 39.3383 33.875 39.3977C33.8828 39.4587 33.9016 39.5166 33.925 39.6151" fill="white"/>
<path d="M61.0016 55.7986C60.5325 55.6266 60.0524 55.478 59.5958 55.2779C58.2354 54.6853 57.1065 53.7987 56.1964 52.6431C55.6335 51.9301 55.1769 51.1545 54.8345 50.3211C54.5999 49.7503 54.431 49.1514 54.2356 48.5635C54.1887 48.4243 54.1511 48.2805 54.1105 48.1382C54.062 48.1913 54.0558 48.2367 54.0558 48.282C54.0354 49.3797 54.012 50.4774 53.9963 51.5751C53.9838 52.4086 53.9932 53.2404 53.9682 54.0723C53.9541 54.5899 53.829 55.084 53.5257 55.5218C53.4538 55.6234 53.3881 55.7313 53.299 55.8689H61.0923C61.0672 55.8205 61.0328 55.8111 61 55.7986" fill="white"/>
</svg>
