<svg width="108" height="99" viewBox="0 0 108 99" fill="none" xmlns="http://www.w3.org/2000/svg">
<path d="M29.1819 44.0148C28.8969 42.8279 28.4225 41.716 27.7925 40.711C27.3425 39.9929 26.8138 39.331 26.2175 38.7348C24.1963 36.7135 21.4044 35.4629 18.3182 35.4629C18.065 35.4629 17.8157 35.4723 17.5663 35.4873C16.97 35.5266 16.3869 35.6129 15.8207 35.7423C13.4075 36.3929 11.9338 37.2198 10.3344 38.821C8.61879 40.5366 7.46004 42.8054 7.14692 45.3385C7.09254 45.781 7.06442 46.2291 7.06255 46.6848C7.0588 48.0029 7.28942 49.2704 7.71317 50.4479C7.71317 50.4479 7.71317 50.4498 7.71317 50.4516C7.82755 50.7141 7.95505 50.971 8.0938 51.2204C7.95505 50.971 7.82755 50.7141 7.71317 50.4498C8.19317 51.781 8.92255 52.996 9.8413 54.0423C9.8413 54.0423 9.84129 54.0423 9.83942 54.0423C9.84504 54.0498 9.85067 54.0554 9.85817 54.061C9.9163 54.1266 9.97442 54.1923 10.0344 54.256C10.04 54.2616 10.0457 54.2673 10.0513 54.2729C10.1057 54.331 10.16 54.3891 10.2163 54.4454C10.2332 54.4641 10.2519 54.4829 10.2688 54.4998C10.3175 54.5485 10.3663 54.5991 10.4169 54.6479C10.43 54.6629 10.445 54.676 10.46 54.6891C10.5219 54.7491 10.5838 54.8091 10.6475 54.8673C10.6644 54.8823 10.6813 54.8973 10.6963 54.9123C10.745 54.9573 10.7957 55.0023 10.8463 55.0454C10.8669 55.0641 10.8875 55.081 10.9082 55.0998C10.9663 55.1504 11.0263 55.2029 11.0882 55.2535C11.0957 55.2591 11.1013 55.2648 11.1088 55.2704C11.1744 55.3248 11.24 55.3791 11.3075 55.4316C11.33 55.4485 11.3507 55.4673 11.3732 55.4841C11.4238 55.5235 11.4744 55.561 11.525 55.6004C11.5457 55.6154 11.5663 55.6323 11.5888 55.6473C11.6563 55.6979 11.7238 55.7466 11.7932 55.7973C11.8119 55.8104 11.8307 55.8216 11.8475 55.8348C11.9019 55.8741 11.9544 55.9098 12.0088 55.9473C12.0332 55.9641 12.0594 55.981 12.0838 55.9979C12.14 56.0354 12.1963 56.0729 12.2525 56.1085C12.2694 56.1198 12.2882 56.131 12.305 56.1423C12.3763 56.1873 12.4475 56.2323 12.5188 56.2754C12.5432 56.2904 12.5694 56.3054 12.5938 56.3204C12.6463 56.3504 12.6988 56.3823 12.7513 56.4123C12.7775 56.4273 12.8038 56.4423 12.83 56.4573C12.9032 56.4985 12.9763 56.5379 13.0513 56.5791C13.0682 56.5885 13.0869 56.596 13.1038 56.6054C13.1638 56.6373 13.2257 56.6691 13.2857 56.6991C13.3138 56.7123 13.3419 56.7273 13.37 56.7404C13.4263 56.7685 13.4825 56.7948 13.5388 56.821C13.5632 56.8323 13.5875 56.8435 13.6119 56.8548C13.6869 56.8904 13.7638 56.9241 13.8407 56.9579C13.8669 56.9691 13.8932 56.9804 13.9194 56.9916C13.9757 57.016 14.0319 57.0385 14.0882 57.0629C14.1182 57.0741 14.1463 57.0873 14.1763 57.0985C14.2438 57.1266 14.3132 57.1529 14.3825 57.1773C14.4032 57.1848 14.4238 57.1923 14.4444 57.1998C14.5175 57.226 14.5888 57.2523 14.6619 57.2766C14.6919 57.2879 14.7219 57.2973 14.7519 57.3066C14.81 57.3254 14.8682 57.346 14.9263 57.3629C14.9544 57.3723 14.9825 57.3798 15.0107 57.3891C15.0913 57.4135 15.1719 57.4379 15.2544 57.4623C15.2788 57.4698 15.3032 57.4754 15.3275 57.4829C15.3894 57.4998 15.4532 57.5166 15.515 57.5335C15.5469 57.541 15.5769 57.5485 15.6088 57.5579C15.6744 57.5729 15.7419 57.5898 15.8075 57.6048C15.8282 57.6104 15.8507 57.6141 15.8713 57.6198C15.9557 57.6385 16.04 57.6573 16.1244 57.6723C16.1544 57.6779 16.1844 57.6835 16.2144 57.6891C16.2763 57.7004 16.3382 57.7116 16.4 57.7229C16.43 57.7285 16.46 57.7341 16.49 57.7379C16.5763 57.7529 16.6625 57.766 16.7488 57.7773C16.7675 57.781 16.7863 57.7829 16.8069 57.7848C16.8782 57.7941 16.9494 57.8035 17.0207 57.811C17.0525 57.8148 17.0825 57.8185 17.1144 57.8204C17.1819 57.8279 17.2494 57.8354 17.3169 57.841C17.3413 57.841 17.3657 57.8448 17.39 57.8466C17.4782 57.8541 17.5682 57.8598 17.6563 57.8654C17.6825 57.8654 17.7107 57.8673 17.7388 57.8691C17.8063 57.8729 17.8719 57.8748 17.9394 57.8766C17.9713 57.8766 18.0013 57.8785 18.0313 57.8804C18.1157 57.8804 18.2 57.8841 18.2844 57.8841C18.2919 57.8841 18.2975 57.8841 18.305 57.8841H29.4857V53.011H19.6832H18.3969C15.2544 53.011 12.4757 50.7741 12.005 47.6654C11.4144 43.7654 14.5307 40.3585 18.3275 40.4166C18.7907 40.4241 19.2425 40.4804 19.6757 40.5816C21.5844 41.0298 23.1594 42.346 23.9582 44.0916H19.2369C17.8363 44.0916 16.6007 45.1398 16.5107 46.5366C16.46 47.3279 16.76 48.0498 17.2719 48.5616C17.54 48.8298 17.8663 49.0398 18.23 49.1729C18.5075 49.2741 18.8094 49.3285 19.1244 49.3285H29.4875V49.2423V46.6229C29.4875 46.4429 29.4838 46.2629 29.4744 46.0829C29.4407 45.3704 29.3394 44.6748 29.1782 44.0035M23.8775 43.8723C23.8794 43.8779 23.8813 43.8835 23.885 43.8891C23.8832 43.8835 23.8794 43.876 23.8775 43.8704" fill="#E8E8E8"/>
<path d="M46.2951 50.819C46.2951 49.1634 45.8113 47.9072 44.8457 47.054C43.8782 46.2009 42.5132 45.7753 40.7488 45.7753C41.8232 45.4884 42.7851 44.9372 43.6326 44.1178C44.4801 43.3003 44.9057 42.2897 44.9057 41.0859C44.9057 39.5972 44.2888 38.4534 43.0569 37.6547C41.8232 36.8559 41.3301 36.4565 38.9263 36.4565C36.3032 36.4565 34.8613 37.229 33.2732 38.7722C31.6869 40.3153 31.5801 41.8453 31.5801 43.9453L37.2894 42.4322C37.2894 41.1797 37.3888 40.2234 37.5857 39.5634C37.7826 38.9034 38.0432 38.5734 38.3694 38.5734C38.7238 38.5734 39.0613 38.8659 39.3819 39.4528C39.7026 40.0397 39.8638 40.8609 39.8638 41.9147C39.8638 43.0678 39.4119 44.0653 38.5101 44.9015C37.6082 45.7397 36.5451 46.3022 35.3226 46.5872V48.9534C35.6582 48.8053 36.0332 48.7322 36.4476 48.7322C38.0844 48.7322 39.2901 48.9647 40.0626 49.4278C40.8369 49.8909 41.2232 50.8772 41.2232 52.3847C41.2232 53.6484 41.0582 54.5597 40.7282 55.1203C40.3982 55.6828 39.9163 55.964 39.2863 55.964C38.0151 55.964 37.1863 54.9328 36.8019 52.8722L31.3719 54.4284C31.6776 55.3565 32.1688 56.729 33.3613 57.4547C34.5538 58.1803 35.0263 58.2122 36.6838 58.2122C39.1794 58.2122 40.0232 58.1784 42.5319 56.7815C45.0407 55.3865 46.2969 52.9565 46.2969 50.8153" fill="#E8E8E8"/>
<path d="M48.485 38.5437C48.7663 39.0368 48.9069 39.4606 48.9069 39.815L48.9219 57.845H54.7325V57.1643C54.5057 56.9487 54.2975 56.5418 54.1119 55.9437C53.9244 55.3475 53.8307 54.7287 53.8307 54.0875V35.8812C53.8307 35.3881 53.57 35.1012 53.0469 35.0225L46.9982 36.7475V37.31C47.7088 37.4187 48.2038 38.0506 48.485 38.5437Z" fill="#E8E8E8"/>
<path d="M56.7332 55.0641C56.7332 56.2191 57.0407 57.0366 57.6576 57.5203C58.2744 58.0022 59.5457 58.2459 60.8076 58.2459C61.9026 58.2459 62.0938 57.8766 64.0363 57.1359L64.1244 57.3441C64.2519 57.6403 64.4807 57.8634 64.8126 58.0172C65.1426 58.1709 65.5438 58.2459 66.0182 58.2459C66.4926 58.2459 67.0682 58.1578 67.7788 57.9797L70.9569 56.6784L70.8088 55.5103C70.4151 55.6097 70.0494 55.6584 69.7138 55.6584C69.3782 55.6584 69.1551 55.5853 69.0482 55.4372C68.9394 55.2891 68.8851 55.0041 68.8851 54.5784L68.8701 47.8941C68.8607 44.8866 68.6694 43.3828 64.9813 43.3828C62.8813 43.3828 61.2313 43.6247 59.3676 44.7741C57.5038 45.9234 57.2357 47.8397 57.2357 49.8609L61.5069 48.4566C61.5069 47.2341 61.6269 46.4353 61.8688 46.0603C62.1107 45.6853 62.3882 45.4978 62.7051 45.4978C63.2282 45.4978 63.5657 45.7978 63.7176 46.3997C63.8694 47.0016 63.9463 48.0122 63.9463 49.4316C61.1357 50.2603 60.0594 51.0872 58.7282 51.9159C57.3969 52.7447 56.7313 53.7947 56.7313 55.0659M62.8082 51.7509C63.1626 51.3759 63.5582 51.1491 63.9913 51.0703L64.0063 55.3884C63.8582 55.4184 63.7251 55.4334 63.6069 55.4334C63.1738 55.4334 62.8438 55.2441 62.6169 54.8634C62.3901 54.4847 62.2776 54.0328 62.2776 53.5097C62.2776 52.7109 62.4557 52.1241 62.8101 51.7491" fill="#E8E8E8"/>
<path d="M72.9031 48.1734V57.8466H78.3819V57.1659C78.1456 56.9297 77.9375 56.5078 77.7613 55.9022C77.5831 55.2947 77.495 54.6909 77.495 54.0909V49.5647C77.495 48.4022 77.5906 47.5172 77.7838 46.9097C77.975 46.3022 78.26 46.0003 78.6331 46.0003C79.0063 46.0003 79.3063 46.2122 79.4994 46.6359C79.6906 47.0597 79.7881 47.8528 79.7881 49.0172V57.8466H85.3756V57.1659C85.1394 56.9391 84.9294 56.5228 84.7456 55.9172C84.5638 55.3116 84.4719 54.7022 84.4719 54.0909V48.7659C84.4719 47.1291 84.3744 45.9459 83.4163 44.8472C82.5013 43.7972 81.8281 43.3828 79.9138 43.3828C79.0269 43.3828 78.4419 43.6641 77.495 44.2266V44.0934C77.4856 43.6997 77.225 43.4616 76.7113 43.3828L70.9944 45.1228V45.6853C71.4969 45.7453 71.9413 45.9797 72.3256 46.3884C72.71 46.7972 72.9031 47.6147 72.9031 48.1772" fill="#E8E8E8"/>
<path d="M90.1437 63.4452C90.6856 63.0909 91.1693 62.5734 91.5931 61.8927L99.7868 49.3115C101.227 47.1909 100.949 47.0446 100.846 46.4015C100.792 46.0602 100.548 45.794 100.406 45.4846C100.263 45.1734 99.7025 44.009 99.4268 43.8009L94.5368 45.1546C96.0556 47.0671 96.815 48.4734 96.815 49.3696C96.815 49.7052 96.6368 50.144 96.2825 50.6859L96.0612 51.0421L91.9193 43.9865C91.8106 43.799 91.685 43.6509 91.5425 43.544C91.4 43.4352 91.2725 43.3809 91.1656 43.3809L86.5137 44.5415V45.089C86.8981 45.2071 87.2187 45.4115 87.4756 45.704C87.7306 45.9946 88.0325 46.4465 88.3775 47.0577L93.1268 55.2627L90.5281 59.4009C90.3218 59.7159 90.1137 59.8734 89.9075 59.8734C89.6506 59.8734 89.3206 59.6034 88.9175 59.0596L84.3818 60.359L86.3281 63.149C86.7518 63.7021 87.4568 63.9777 88.4431 63.9777C89.0356 63.9777 89.6018 63.7996 90.1437 63.4452Z" fill="#E8E8E8"/>
</svg>
