<svg width="108" height="99" viewBox="0 0 108 99" fill="none" xmlns="http://www.w3.org/2000/svg">
<path d="M63.1893 57.7559C63.67 59.4137 64.1907 59.8073 65.8897 59.8086C68.2388 59.8086 70.5867 59.8135 72.9359 59.8061C74.3011 59.8023 75.2141 58.9342 75.2066 57.6724C75.1991 56.4754 74.3708 55.7617 72.9658 55.7592C70.5294 55.7542 68.0918 55.7779 65.6555 55.753C62.2588 55.7181 59.9358 53.8111 59.4401 50.6934C58.9568 47.648 61.0244 44.6972 64.0724 44.1118C64.588 44.0122 65.1211 43.9623 65.6468 43.9598C68.0831 43.9436 70.5207 43.9362 72.9571 43.9573C76.1084 43.9847 78.5123 45.9478 79.0342 48.8936C79.0891 49.205 79.0903 49.5251 79.1214 49.895C77.8074 49.895 76.5555 49.895 75.3037 49.895C74.8043 48.1898 74.3123 47.8323 72.47 47.8323C70.1508 47.8323 67.8315 47.8274 65.5123 47.8348C64.2343 47.8386 63.2764 48.7316 63.2565 49.9162C63.2378 51.0547 64.1546 51.8767 65.4786 51.8805C67.9735 51.8879 70.4697 51.8618 72.9645 51.8879C77.055 51.9303 79.8376 55.3307 78.9583 59.1833C78.3691 61.7679 76.0212 63.62 73.1414 63.6748C70.5593 63.7234 67.9735 63.7371 65.3914 63.6711C61.8789 63.5802 59.5621 61.2771 59.3865 57.7596H63.1893V57.7559Z" fill="#FDFDFD"/>
<path d="M55.6549 63.6346H36.1542V43.9956H55.6661V47.7996H40.0229V51.8639H48.103V55.7202H40.0429V59.7858H55.6549V63.6346Z" fill="#FDFDFD"/>
<path d="M98.3337 56.8604H102.133C102.371 59.369 100.427 62.1653 97.7694 63.1941C95.9235 63.9091 88.5185 63.9278 86.7174 63.153C84.0257 61.9934 82.4824 59.9606 82.3903 56.9812C82.3292 54.987 82.3554 52.9903 82.3753 50.9949C82.4164 46.9966 85.2962 44.0596 89.3007 43.9624C91.2949 43.9138 93.2928 43.9213 95.287 43.9624C98.6463 44.0297 101.39 46.2954 102.087 49.5401C102.17 49.9287 102.174 50.336 102.219 50.7832H98.3872C98.1967 50.2825 98.0684 49.7655 97.8168 49.3159C97.2949 48.3842 96.4927 47.8374 95.3891 47.8349C93.3352 47.8299 91.28 47.8175 89.226 47.8386C87.6043 47.8548 86.3686 49.0419 86.3375 50.6636C86.2964 52.7462 86.2989 54.8313 86.3375 56.9139C86.3662 58.4485 87.4922 59.5844 89.0267 59.6156C91.1978 59.6592 93.37 59.6554 95.5423 59.6181C96.9772 59.5932 97.9077 58.6415 98.3312 56.8628" fill="#FDFDFD"/>
<path d="M38.6765 70.188V70.7448H37.7597V73.627H37.0709V70.7448H36.1542V70.188H38.6765Z" fill="#FDFDFD"/>
<path d="M43.0356 70.188V73.627H42.3455V72.1635H40.8733V73.627H40.1832V70.188H40.8733V71.6017H42.3455V70.188H43.0356Z" fill="#FDFDFD"/>
<path d="M45.411 70.7449V71.6068H46.5681V72.1536H45.411V73.0654H46.7164V73.6271H44.7209V70.1831H46.7164V70.7449H45.411Z" fill="#FDFDFD"/>
<path d="M52.6466 70.188V70.7448H51.213V71.6266H52.3116V72.1734H51.213V73.627H50.5242V70.188H52.6466Z" fill="#FDFDFD"/>
<path d="M54.8202 70.188V72.3167C54.8202 72.5496 54.8812 72.7277 55.002 72.851C55.1241 72.9743 55.2947 73.0354 55.514 73.0354C55.7332 73.0354 55.9101 72.9743 56.0309 72.851C56.1529 72.7277 56.2127 72.5496 56.2127 72.3167V70.188H56.9078V72.3117C56.9078 72.6044 56.8442 72.851 56.7184 73.0528C56.5914 73.2546 56.4232 73.4066 56.2115 73.5087C55.9997 73.6108 55.7643 73.6619 55.504 73.6619C55.2437 73.6619 55.0157 73.6108 54.8065 73.5087C54.5972 73.4066 54.4328 73.2546 54.312 73.0528C54.1899 72.851 54.1301 72.6032 54.1301 72.3117V70.188H54.8202Z" fill="#FDFDFD"/>
<path d="M60.9185 70.188V70.7448H60.0018V73.627H59.313V70.7448H58.3962V70.188H60.9185Z" fill="#FDFDFD"/>
<path d="M63.1058 70.188V72.3167C63.1058 72.5496 63.1669 72.7277 63.2877 72.851C63.4097 72.9743 63.5804 73.0354 63.7996 73.0354C64.0188 73.0354 64.1957 72.9743 64.3165 72.851C64.4386 72.7277 64.4984 72.5496 64.4984 72.3167V70.188H65.1934V72.3117C65.1934 72.6044 65.1299 72.851 65.0041 73.0528C64.877 73.2546 64.7089 73.4066 64.4971 73.5087C64.2854 73.6108 64.05 73.6619 63.7896 73.6619C63.5293 73.6619 63.3014 73.6108 63.0921 73.5087C62.8829 73.4066 62.7184 73.2546 62.5976 73.0528C62.4756 72.851 62.4158 72.6032 62.4158 72.3117V70.188H63.1058Z" fill="#FDFDFD"/>
<path d="M68.6372 73.627L67.8787 72.2868H67.5536V73.627H66.8635V70.188H68.1539C68.4205 70.188 68.6472 70.2353 68.834 70.3287C69.0209 70.4222 69.1616 70.5492 69.255 70.7086C69.3484 70.8681 69.3958 71.0462 69.3958 71.243C69.3958 71.4697 69.3298 71.674 69.199 71.8558C69.067 72.0377 68.8726 72.1635 68.6123 72.2332L69.4356 73.627H68.6372ZM67.5536 71.7686H68.1303C68.3171 71.7686 68.4566 71.7238 68.5488 71.6329C68.641 71.5432 68.687 71.4174 68.687 71.2554C68.687 71.0935 68.641 70.9752 68.5488 70.888C68.4566 70.8008 68.3171 70.7572 68.1303 70.7572H67.5536V71.7674V71.7686Z" fill="#FDFDFD"/>
<path d="M71.7169 70.7449V71.6068H72.8753V72.1536H71.7169V73.0654H73.0222V73.6271H71.0281V70.1831H73.0222V70.7449H71.7169Z" fill="#FDFDFD"/>
<path d="M79.1701 70.188V70.7448H78.2546V73.627H77.5646V70.7448H76.6478V70.188H79.1701Z" fill="#FDFDFD"/>
<path d="M81.3669 70.7449V71.6068H82.5253V72.1536H81.3669V73.0654H82.6723V73.6271H80.6769V70.1831H82.6723V70.7449H81.3669Z" fill="#FDFDFD"/>
<path d="M84.365 70.994C84.5183 70.7262 84.7263 70.5182 84.9903 70.3687C85.2544 70.2193 85.5508 70.1445 85.8797 70.1445C86.2633 70.1445 86.6009 70.2429 86.8898 70.4397C87.1788 70.6365 87.3806 70.9093 87.4952 71.2581H86.7018C86.6233 71.0937 86.5124 70.9704 86.3692 70.8881C86.2259 70.8059 86.0615 70.7648 85.8734 70.7648C85.6729 70.7648 85.4948 70.8122 85.3391 70.9056C85.1834 70.999 85.0613 71.131 84.9741 71.3017C84.8869 71.4723 84.8434 71.6729 84.8434 71.9033C84.8434 72.1337 84.8869 72.3293 84.9741 72.5024C85.0613 72.6756 85.1821 72.8076 85.3391 72.901C85.4948 72.9944 85.6729 73.0417 85.8734 73.0417C86.0603 73.0417 86.2259 72.9994 86.3692 72.9159C86.5124 72.8325 86.6233 72.7079 86.7018 72.5435H87.4952C87.3806 72.8948 87.1788 73.1688 86.8923 73.3631C86.6046 73.5587 86.267 73.6558 85.8797 73.6558C85.5508 73.6558 85.2544 73.5811 84.9903 73.4316C84.7263 73.2821 84.517 73.0741 84.365 72.8088C84.2118 72.5423 84.1359 72.2408 84.1359 71.902C84.1359 71.5632 84.2118 71.2606 84.365 70.9928" fill="#FDFDFD"/>
<path d="M91.9444 70.188V73.627H91.2544V72.1635H89.7808V73.627H89.092V70.188H89.7808V71.6017H91.2544V70.188H91.9444Z" fill="#FDFDFD"/>
<path d="M95.7273 71.5767H93.6384V72.1584H95.7273V71.5767Z" fill="#FDFDFD"/>
<path d="M98.1965 70.188H97.5065V73.627H98.1965V70.188Z" fill="#FDFDFD"/>
<path d="M102.221 70.188V70.7448H101.304V73.627H100.614V70.7448H99.6985V70.188H102.221Z" fill="#FDFDFD"/>
<path d="M39.4984 32.275C39.4012 30.3742 38.6078 28.5881 37.2638 27.2441C35.8463 25.8266 33.9605 25.0307 31.9539 25.0008C30.9039 24.9858 29.88 25.1814 28.9097 25.5825C26.0349 26.7733 24.1778 29.5534 24.1778 32.6648V38.0333H13.5804C12.8293 38.0333 12.2626 38.529 12.2626 39.1879C12.2626 39.8468 12.8293 40.3426 13.5804 40.3426L24.1678 40.3314V50.7108C24.1678 51.4618 24.6635 52.0286 25.3225 52.0286C25.9814 52.0286 26.4771 51.4618 26.4771 50.7108L26.4659 40.3314H31.8455C34.957 40.3314 37.7371 38.4742 38.9279 35.5994C39.3153 34.664 39.5108 33.6825 39.5108 32.676C39.5108 32.5428 39.5071 32.4095 39.5009 32.275M31.9215 27.2976C33.3253 27.3176 34.6444 27.8768 35.6383 28.8708C37.1791 30.4116 37.6362 32.7084 36.8017 34.7213C35.9684 36.7341 34.0216 38.0358 31.8418 38.0358L26.4734 38.032V32.6673C26.4734 30.4888 27.7738 28.542 29.7866 27.7074C30.4679 27.4259 31.1854 27.2877 31.919 27.2989" fill="#FDFDFD"/>
<path d="M30.7109 43.8872H20.3315L20.3427 33.2998C20.3427 32.5487 19.847 31.9819 19.1881 31.9819C18.5292 31.9819 18.0334 32.5487 18.0334 33.2998V43.8971H12.665C9.55352 43.8971 6.77339 45.7543 5.58261 48.6291C5.18029 49.5994 4.98474 50.6232 5.00093 51.6733C5.03082 53.6799 5.82799 55.5657 7.24421 56.9832C8.58695 58.3259 10.3744 59.1206 12.2751 59.2177C12.4096 59.224 12.5429 59.2277 12.6762 59.2277C13.6826 59.2277 14.6629 59.0321 15.5995 58.6448C18.4743 57.454 20.3315 54.6751 20.3315 51.5624V46.1828L30.7109 46.194C31.462 46.194 32.0287 45.6982 32.0287 45.0393C32.0287 44.3804 31.462 43.8847 30.7109 43.8847M18.0347 51.5649C18.0347 53.7434 16.7343 55.6903 14.7214 56.5248C12.7086 57.3593 10.413 56.9022 8.87094 55.3614C7.87697 54.3675 7.31895 53.0484 7.29777 51.6446C7.28656 50.9097 7.42482 50.1923 7.70632 49.5122C8.53962 47.4993 10.4865 46.199 12.6662 46.199H18.0309L18.0347 51.5674V51.5649Z" fill="#FDFDFD"/>
</svg>
