<svg width="108" height="99" viewBox="0 0 108 99" fill="none" xmlns="http://www.w3.org/2000/svg">
<mask id="mask0_1782_8237" style="mask-type:luminance" maskUnits="userSpaceOnUse" x="12" y="32" width="83" height="35">
<path d="M94.8098 32H12V66.9429H94.8098V32Z" fill="white"/>
</mask>
<g mask="url(#mask0_1782_8237)">
<mask id="mask1_1782_8237" style="mask-type:luminance" maskUnits="userSpaceOnUse" x="11" y="30" width="86" height="45">
<path d="M96.8544 30.5962H11.9996V74.0881H96.8544V30.5962Z" fill="white"/>
</mask>
<g mask="url(#mask1_1782_8237)">
<path d="M73.197 50.5331C73.197 57.8045 67.4367 63.8514 60.1683 64.0185C60.0487 64.0214 59.9306 64.0228 59.8125 64.0228C52.0125 64.0228 45.689 57.3133 45.689 49.0221C45.689 40.7309 51.661 33.9854 59.8125 33.9854C64.9073 33.9854 68.4551 35.8824 70.9845 38.939L70.1419 39.8638C68.5372 41.6254 65.9271 42.036 63.8544 40.8577C62.7452 40.2268 61.518 39.9574 60.1985 39.9574C56.1235 39.9574 52.8206 43.9978 52.8206 49.0221C52.8206 54.0464 56.1235 57.9456 60.1985 57.9456C63.3603 57.9456 66.4875 55.9074 66.4875 52.3596H59.8125C59.8125 49.5464 62.0927 47.2648 64.9073 47.2648H73.1985V50.5331H73.197Z" fill="#FDFDFD"/>
<path d="M86.4801 40.8369H82.1242V46.5986H91.5043C91.5043 49.8007 88.9087 52.3949 85.708 52.3949H82.1242V64.0236C78.477 64.0236 75.5198 61.0664 75.5198 57.4192V41.6449C75.5198 37.9978 78.477 35.0405 82.1242 35.0405H92.2779C92.2779 38.2426 89.6822 40.8369 86.4815 40.8369" fill="#FDFDFD"/>
<path d="M23.716 50.0497C23.7045 49.9431 23.6872 49.7717 23.6699 49.5513C23.6742 49.5743 23.6786 49.5988 23.6829 49.6218C23.6901 49.7659 23.7016 49.9071 23.716 50.0497Z" fill="#FDFDFD"/>
</g>
<mask id="mask2_1782_8237" style="mask-type:luminance" maskUnits="userSpaceOnUse" x="15" y="32" width="31" height="20">
<path d="M21.0485 41.5029C21.5728 41.1385 22.9499 41.3963 23.2754 41.8731C23.3892 42.0287 23.2192 42.082 23.1415 42.1569C22.476 42.7907 21.652 43.2458 20.7791 43.5325C20.2951 43.6909 19.6441 43.5872 19.1154 43.3726C19.3661 42.7676 20.0229 42.6826 20.7028 42.432C20.3628 42.4651 20.1669 42.4838 19.8457 42.5198C20.2851 42.128 20.638 41.7838 21.0471 41.5029M25.0644 39.3466C25.5801 39.5266 26.2917 39.7859 26.3075 40.1446C26.3234 40.4802 25.5513 40.6862 25.076 40.872C23.9481 41.3171 22.8707 41.4078 21.7341 40.8936C21.8206 40.7884 21.9113 40.6934 22.0136 40.6199C22.0928 40.6185 22.1749 40.6084 22.2541 40.5911C22.3521 40.5724 22.4486 40.5407 22.5379 40.5018C22.7381 40.4168 22.9801 40.2886 23.2336 40.1028C23.2336 40.1028 23.0104 40.1402 22.7036 40.1892C23.1054 39.5842 24.3673 39.093 25.063 39.3451M25.8365 38.2677C25.9748 38.1611 26.116 38.0559 26.2917 37.9868C27.5809 37.4711 29.0184 37.7578 29.7329 38.7056C29.864 38.8741 29.7459 38.8943 29.6148 38.9591C29.21 39.155 28.1225 39.4344 27.4714 39.4863C26.6648 39.518 25.8293 39.3797 25.0673 38.972C24.9276 38.8971 24.6482 38.7272 25.0011 38.6825C25.1494 38.6652 25.2747 38.6235 25.3871 38.5716H25.3972C26.2009 38.5125 26.6878 38.2 26.6878 38.2C26.4127 38.2561 26.1851 38.2734 26.0065 38.2734C25.9431 38.2734 25.8869 38.272 25.8365 38.2677ZM20.3038 37.7102C20.8569 38.7488 20.5919 40.0481 19.7291 41.0218C19.4626 41.32 19.1673 41.6008 18.8907 41.8918C18.8432 41.9408 18.7913 41.9768 18.7568 41.9595C18.7222 41.6714 18.5465 41.4597 18.545 41.4597C18.581 41.6974 18.5205 41.9307 18.4485 42.1165C18.4139 42.1885 18.3808 42.262 18.3448 42.3384C18.3419 42.3427 18.3405 42.3441 18.339 42.347C18.2771 42.4622 18.2252 42.5299 18.2252 42.5299C17.4215 41.1241 18.2483 38.9231 20.3038 37.7088M29.8928 37.1931C29.6955 37.1701 29.5125 37.1297 29.3613 37.0894C29.3008 37.0721 29.246 37.0563 29.1971 37.0404C29.0516 36.9958 28.9623 36.9569 28.9493 36.9525V36.9497C30.5568 36.1027 32.7665 36.6155 33.4881 37.9551C33.5659 38.0977 33.4939 38.1092 33.3571 38.1568C31.7956 38.6768 29.3051 38.2 28.2694 37.1441C28.3184 37.1268 28.3674 37.1182 28.4207 37.1124C28.8384 37.196 29.1726 37.2219 29.4175 37.2248C29.4304 37.2248 29.4419 37.2248 29.4535 37.2248C29.7401 37.2248 29.8928 37.1917 29.8928 37.1917M32.7967 35.8852C32.7967 35.8852 32.791 35.8837 32.7895 35.8823C32.7996 35.8823 32.8111 35.8823 32.827 35.8794C32.922 35.8578 33.0402 35.8376 33.1813 35.8261C33.2721 35.8175 33.3758 35.8117 33.4881 35.8103C33.4881 35.8103 33.4886 35.8103 33.4896 35.8103C33.6999 35.8103 33.9433 35.8189 34.2328 35.8535C34.2372 35.8535 34.2415 35.8549 34.2472 35.8549C34.3337 35.865 34.4201 35.8751 34.5008 35.8895C35.8994 36.1301 36.755 36.9914 37.5401 37.9119C35.6848 38.1496 33.612 37.5446 32.3574 36.4426C32.1154 36.2266 32.2738 36.1502 32.4208 36.0739C32.4481 36.0811 32.4654 36.0854 32.4669 36.0854C32.4755 36.0854 33.5141 36.2338 34.0456 36.6112C34.0542 36.6155 34.06 36.6212 34.0686 36.6256C34.1421 36.6789 34.1795 36.7019 34.1896 36.7019C34.2372 36.7019 33.5486 36.1157 32.7967 35.8837M21.5815 37.1499C22.0165 36.6184 22.6215 36.2078 23.3215 35.8737C23.5707 35.7555 23.7407 35.7051 23.7954 36.0177C24.0288 37.3991 23.3935 38.465 21.93 39.3206C21.8523 39.3667 21.7313 39.4892 21.7053 39.397C21.6981 39.3739 21.6967 39.3379 21.7053 39.2832C21.7053 39.2789 21.7053 39.2731 21.7053 39.2688C21.6996 39.1535 21.6852 39.0253 21.6506 38.8899C21.6506 38.8899 21.4461 39.312 21.2271 39.7355C21.1594 39.8349 21.0701 39.9357 20.939 40.025C20.6682 38.9951 20.8425 38.0473 21.5815 37.1499ZM38.3078 35.8996C37.6942 35.6518 37.118 35.6634 36.5822 35.5164C37.5876 34.5931 39.5034 34.8639 41.6036 36.4441C40.1113 37.2205 38.5988 37.0462 36.6744 35.9601C37.046 35.8852 37.4177 35.8909 37.8195 35.8967C37.9261 35.8981 38.0356 35.8996 38.148 35.8996C38.2012 35.8996 38.2545 35.8996 38.3093 35.8996M24.2391 37.8341C23.9899 37.7736 24.1339 37.4754 24.1397 37.2853C24.1656 36.0076 25.3641 34.7616 27.0638 34.377C27.3187 34.318 27.5117 34.2748 27.5045 34.5571C27.4628 36.0278 27.264 36.5492 25.5254 37.2954C25.4346 37.3343 25.3223 37.4351 25.2272 37.4048C25.4001 37.0591 25.2416 36.8316 25.2416 36.8316C25.2301 36.9367 25.1408 37.0735 25.0284 37.2133C24.8556 37.4322 24.6222 37.6512 24.5286 37.7433C24.5185 37.752 24.5099 37.7635 24.4983 37.7693C24.494 37.7779 24.4883 37.7822 24.4839 37.7866C24.4839 37.7866 24.4839 37.787 24.4839 37.788C24.4379 37.8226 24.3874 37.8456 24.3241 37.8456C24.2981 37.8456 24.2708 37.8413 24.2405 37.8341M27.9367 36.3677C27.5953 36.2683 27.8286 35.9471 27.8575 35.7397C28.0001 34.5758 29.5817 33.4912 31.2122 33.4739C31.5277 33.471 31.5407 33.556 31.5493 33.7418C31.604 35.1318 30.6879 35.8578 28.7433 36.1689C28.7347 36.1617 28.7332 36.1603 28.726 36.1545C28.788 36.0379 28.896 35.9025 28.981 35.7988C29.0645 35.7008 29.1322 35.6317 29.1322 35.6317C28.6079 35.816 28.134 36.3504 28.134 36.3504C28.098 36.3677 28.0591 36.3778 28.0173 36.3778C27.9914 36.3778 27.9655 36.3749 27.9367 36.3663M34.8882 33.2737C36.0046 33.2751 36.0291 33.3068 35.7712 34.0472C35.5566 34.6666 35.1014 35.1045 34.459 35.3421C34.459 35.3421 34.4532 35.3436 34.4475 35.3465C34.1939 35.4401 33.9102 35.5035 33.599 35.5366H33.5947C33.5097 35.5524 33.419 35.5668 33.3239 35.5798C33.1151 35.6072 32.8904 35.6302 32.6426 35.6446C32.5749 35.649 32.5072 35.6518 32.4366 35.6547C32.4899 35.6187 32.5374 35.5798 32.585 35.5366C32.693 35.4386 32.7953 35.3378 32.8817 35.2355C32.886 35.2312 32.8918 35.2269 32.8961 35.2211C33.1323 34.9431 33.2793 34.6853 33.2807 34.6406C33.2821 34.6234 33.2562 34.6464 33.2 34.7314C33.1957 34.7386 33.1885 34.7458 33.1842 34.7516C33.0906 34.8798 32.9508 35.0036 32.7996 35.1131C32.7996 35.1131 32.7982 35.1117 32.7953 35.1131C32.5187 35.2687 32.2436 35.4228 31.9512 35.5928C31.9469 35.5942 31.9454 35.5942 31.9454 35.5942C31.6559 34.3353 32.9091 33.2794 34.8897 33.2737M31.8849 32.1732C31.2612 32.3158 30.6663 32.4901 30.4373 32.5578C30.4229 32.5621 30.4085 32.5664 30.3984 32.5693C30.3854 32.5736 30.3768 32.5779 30.3653 32.5794C30.3609 32.5823 30.3566 32.5837 30.3552 32.5823C30.3494 32.5851 30.3422 32.5866 30.3422 32.5866C29.8395 32.7551 29.3642 32.9553 28.9277 33.1973C28.2953 33.5459 27.7307 33.5805 27.0234 33.4379C27.1819 33.1714 27.6385 33.1066 27.9338 32.781C26.5467 33.2679 25.5873 33.9752 24.6021 34.6421C24.386 34.7904 24.2333 34.8711 23.9034 34.8783C23.6211 34.8798 23.3345 34.9042 23.0651 34.9763C23.4367 34.5629 23.8429 34.1855 23.938 34.0947C23.8069 34.1941 23.1515 34.6939 22.4976 35.2355C21.8638 35.7599 21.2358 36.3188 20.9966 36.5463C20.9563 36.5867 20.9289 36.6126 20.9145 36.6284C20.9145 36.6284 20.9136 36.6294 20.9117 36.6313C20.6898 36.8647 20.239 36.7523 20.2375 36.7523C20.2534 36.7365 20.2692 36.7192 20.2851 36.7034C20.7086 36.2827 21.1436 35.8679 21.5887 35.4574C20.6264 35.9961 19.8515 36.6673 19.1442 37.3789C17.3739 39.1535 16.707 41.078 17.5684 43.0831C17.6087 43.1767 17.6419 43.2631 17.5684 43.374C17.3019 43.7716 17.0513 44.1792 16.779 44.6315C16.3671 41.997 16.1193 41.1802 15.3977 40.7438C16.344 42.3888 16.3757 44.1591 16.2922 45.9668C16.285 46.1354 16.2749 46.3053 16.2648 46.4753C16.2634 46.5214 16.259 46.5704 16.2562 46.6179C16.2317 46.9823 16.2072 47.3482 16.1856 47.7141C16.1755 47.8913 16.164 48.067 16.1553 48.247C16.1524 48.2974 16.151 48.3507 16.1481 48.404C16.1481 48.4012 16.1467 48.3997 16.1452 48.3968C16.1236 48.3508 16.0977 48.3003 16.0761 48.2542C16.0271 48.1491 15.9796 48.0454 15.9335 47.9402C15.7779 47.5729 15.6483 47.2027 15.5475 46.8282C15.3213 46.0043 15.2291 45.1544 15.2536 44.2599C14.9237 44.9398 14.9511 45.9193 15.2392 46.9866C15.2435 47.0385 15.3977 47.8884 15.9162 48.8707C15.9522 49.7667 16.1496 50.7116 16.6292 51.609C17.4431 45.0233 24.023 44.1735 24.023 44.1735C20.0589 44.0885 18.1892 46.1123 17.5079 47.112C17.4921 47.135 17.4762 47.1595 17.4618 47.1811C17.361 47.3338 17.2918 47.4577 17.2486 47.5412C17.2083 47.6147 17.191 47.6565 17.191 47.6565C17.1636 47.1523 17.3451 46.4868 17.5886 45.8775C17.8017 45.333 18.0668 44.8303 18.2483 44.512C18.3635 44.3074 18.4471 44.1764 18.46 44.1547C18.5205 44.1043 18.6098 44.0885 18.7424 44.1346C20.0791 44.5955 21.2401 44.2282 22.4328 43.6088C22.5826 43.531 22.7352 43.4504 22.8851 43.374C22.8966 43.3683 22.9081 43.3625 22.9225 43.3567C22.9254 43.3567 22.9311 43.3524 22.934 43.3495C23.068 43.279 23.5851 43.0024 24.2434 42.6913C25.3021 42.1813 26.7512 41.6109 27.3475 41.4943C27.0191 41.5418 25.3266 41.8544 24.1771 42.3239C24.1771 42.3239 24.1757 42.3239 24.1742 42.3225C24.2477 42.0992 24.4436 41.9163 24.687 41.8112C25.3986 41.4943 26.8304 41.1269 26.8549 41.1269C26.8578 41.1255 26.8592 41.1255 26.8592 41.1255C27.4296 40.9815 28.013 40.872 28.4869 40.8403C28.4826 40.8403 28.4192 40.8331 28.3069 40.8245C28.0678 40.8072 27.6068 40.7913 27.0148 40.8489C27.1819 40.6919 27.2914 40.5119 27.47 40.3693C27.4772 40.365 27.4844 40.3592 27.4916 40.3549C27.6039 40.2872 28.0001 40.1907 28.533 40.0898C29.2302 39.9602 30.1578 39.8421 30.9731 39.7672C31.9858 39.6764 32.8255 39.6505 32.8255 39.6505C32.6397 39.4949 31.653 39.4589 30.6606 39.5093C30.6274 39.5108 30.6116 39.5122 30.6116 39.5108C30.6202 39.4935 30.6289 39.4748 30.6389 39.456C30.6519 39.4287 30.6649 39.3984 30.6793 39.3696C30.7614 39.1896 30.9774 39.0743 31.218 39.07H31.2252C31.2943 39.0657 31.375 39.0642 31.4557 39.07H31.4586C32.6383 39.0412 35.1173 39.1694 36.1486 39.3638C36.1213 39.3552 36.0924 39.3466 36.0665 39.3379H36.0608C35.705 39.2486 35.3492 39.1665 34.9905 39.0858C34.9531 39.0786 34.917 39.0714 34.8796 39.0628C34.5929 39.0009 34.4345 38.7445 34.5641 38.5385H34.5627L34.5641 38.537C36.6513 38.8424 42.7444 39.2083 42.9561 39.3264C42.766 39.1319 40.7667 38.6667 39.1635 38.4477C38.8048 38.3959 38.5398 38.1207 38.6017 37.8514C38.6017 37.8485 38.6017 37.8456 38.6031 37.8442C40.8978 38.1841 43.1693 38.7185 44.9713 39.1103C44.1186 38.6638 42.6853 38.2965 41.1484 37.7981C41.6554 37.6901 42.0818 37.5863 42.4765 37.4725C42.5283 37.4553 42.5831 37.438 42.6407 37.425C42.7775 37.3847 42.9057 37.3458 43.0368 37.3026C43.3033 37.2147 44.2396 37.3948 44.8258 37.6079C44.882 37.6209 44.9396 37.6324 44.9944 37.6468C45.1456 37.6857 45.2839 37.7203 45.4035 37.7549C45.2421 37.7001 45.0794 37.6396 44.9252 37.5763C43.4545 36.9569 42.1956 35.8996 42.1005 35.8232C42.1005 35.8232 42.0996 35.8228 42.0976 35.8218C41.8067 35.6129 41.5071 35.4127 41.1887 35.2341C41.1311 35.1995 40.8272 35.0771 41.0908 35.0512C41.1095 35.0497 41.1311 35.0483 41.1484 35.0454C41.9363 35.1678 42.6925 35.358 42.6925 35.358C41.569 34.9503 40.0623 34.534 39.924 34.5038C39.924 34.5024 39.9183 34.5009 39.9168 34.4995C39.2974 34.3079 38.6737 34.1451 38.0169 34.0976C37.7101 34.0774 37.1785 34.1437 37.131 33.8196C37.0892 33.5272 36.938 33.2535 36.8184 32.9236C37.8959 33.0029 39.2672 33.2492 39.3522 33.2665C37.7302 32.6067 35.0928 32.467 34.7759 32.4728C34.7658 32.4728 34.7557 32.4728 34.7442 32.4728C34.2228 32.4555 33.7128 32.4929 33.2404 32.6629C32.5677 32.8992 32.0102 32.8847 31.3376 32.5952C31.3837 32.5664 31.4341 32.539 31.4902 32.5088C31.8633 32.3187 32.4438 32.1487 32.8371 32.0479C32.5187 32.0882 32.2004 32.13 31.8835 32.1746" fill="white"/>
</mask>
<g mask="url(#mask2_1782_8237)">
<path d="M45.4064 32.0459H14.9224V51.6114H45.4064V32.0459Z" fill="#FDFDFD"/>
</g>
<mask id="mask3_1782_8237" style="mask-type:luminance" maskUnits="userSpaceOnUse" x="1" y="-30" width="326" height="326">
<path d="M326.23 -29.7471H1.22961V295.253H326.23V-29.7471Z" fill="white"/>
</mask>
<g mask="url(#mask3_1782_8237)">
<path d="M44.0433 47.2681V50.5379C44.0433 57.8092 38.283 63.8577 31.0145 64.0233C30.895 64.0262 30.7769 64.0276 30.6573 64.0276C24.8408 64.0276 19.8425 60.2926 17.6804 54.9543C17.0812 53.4764 17.0149 51.8329 17.5493 50.3305C19.1352 45.868 23.7792 44.7733 23.9492 44.7358C23.9521 44.7344 23.9535 44.7344 23.9535 44.7344C23.8051 45.3653 23.7173 46.0221 23.6683 46.653C23.6553 46.8288 23.6452 47.0031 23.6366 47.173C23.592 48.1425 23.6308 49.0067 23.6712 49.557C23.6885 49.7774 23.7057 49.9488 23.7173 50.0554C23.723 50.1144 23.7274 50.1533 23.7288 50.1706V50.1807H23.7302C24.1969 54.5567 27.2924 57.9504 31.0433 57.9504C34.2066 57.9504 37.3309 55.9122 37.3309 52.3644H30.6559C30.6559 50.9571 31.2263 49.6837 32.1482 48.7618C33.07 47.84 34.3448 47.2695 35.7507 47.2695H44.0433V47.2681Z" fill="#FDFDFD"/>
<path d="M23.7294 50.1787H23.7279V50.1685C23.7294 50.1757 23.7294 50.1787 23.7294 50.1787Z" fill="#FDFDFD"/>
</g>
</g>
</svg>
