<svg width="108" height="99" viewBox="0 0 108 99" fill="none" xmlns="http://www.w3.org/2000/svg">
<path d="M71.3644 38.0349V35.4019C71.3644 30.7614 67.603 27 62.9625 27H56.5519C51.9114 27 48.15 30.7614 48.15 35.4019V62.6727C48.15 67.3131 51.9114 71.0745 56.5519 71.0745H62.9625C67.603 71.0745 71.3644 67.3131 71.3644 62.6727V39.8537H68.336V61.378C68.336 65.0603 65.3502 68.0461 61.6678 68.0461H57.8456C54.1632 68.0461 51.1774 65.0603 51.1774 61.378V36.6966C51.1774 33.0142 54.1632 30.0284 57.8456 30.0284H61.6678C65.3502 30.0284 68.336 33.0142 68.336 36.6966V38.0349H71.3644Z" fill="#FDFDFD"/>
<path d="M40.9322 68.0461L43.9737 71.0745H32.4015C27.2095 71.0745 23 66.865 23 61.673V36.4015C23 31.2095 27.2085 27 32.4015 27H42.6395V30.0284H32.3366C28.852 30.0284 26.0274 32.853 26.0274 36.3377V61.7379C26.0274 65.2225 28.852 68.0472 32.3366 68.0472H40.9311L40.9322 68.0461Z" fill="#FDFDFD"/>
<path d="M44.7225 47.4185V70.3358L41.6951 67.3216V50.4469H35.3859L33.7039 47.4185H44.7225Z" fill="#FDFDFD"/>
<path d="M84.9907 38.0356H77.7324V39.8545H84.9907V38.0356Z" fill="#FDFDFD"/>
<path d="M75.9275 38.0356H71.3641V39.8545H75.9275V38.0356Z" fill="#FDFDFD"/>
<path d="M77.7429 30.7856H75.9241V38.0347H77.7429V30.7856Z" fill="#FDFDFD"/>
<path d="M77.7429 39.8545H75.9241V47.1036H77.7429V39.8545Z" fill="#FDFDFD"/>
</svg>
