<svg width="108" height="99" viewBox="0 0 108 99" fill="none" xmlns="http://www.w3.org/2000/svg">
<g clip-path="url(#clip0_1782_8235)">
<mask id="mask0_1782_8235" style="mask-type:luminance" maskUnits="userSpaceOnUse" x="8" y="3" width="92" height="93">
<path d="M100 3.5H8V95.5H100V3.5Z" fill="white"/>
</mask>
<g mask="url(#mask0_1782_8235)">
<path d="M29.0986 72.0918H30.3866L32.8689 75.4881L35.2371 72.0918H36.4424V79.3624H35.1749V74.1064L32.8792 77.3366H32.6926L30.3764 74.1379V79.3624H29.0986V72.0918Z" fill="#FDFDFD"/>
<path d="M39.2203 72.0918H43.4268V73.2861H40.4981V75.0937H43.115V76.288H40.4981V78.1681H43.5307V79.3624H39.2203V72.0918Z" fill="#FDFDFD"/>
<mask id="mask1_1782_8235" style="mask-type:luminance" maskUnits="userSpaceOnUse" x="8" y="3" width="92" height="93">
<path d="M100 3.5H8V95.5H100V3.5Z" fill="white"/>
</mask>
<g mask="url(#mask1_1782_8235)">
<path d="M47.5396 79.3628V72.0922C47.945 72.0922 49.0976 72.0718 49.607 72.0718C51.7468 72.0718 52.4215 73.2141 52.4215 74.4084C52.4215 75.6027 51.4973 76.7663 49.7629 76.7663C49.5448 76.7663 49.1291 76.7663 48.8173 76.7348V79.3628H47.5396ZM48.8173 73.2865V75.5201C49.1189 75.5516 49.4298 75.572 49.7211 75.572C50.4793 75.572 51.0713 75.2083 51.0713 74.3982C51.0713 73.64 50.6037 73.2661 49.7314 73.2661C49.4716 73.2661 49.1598 73.2763 48.8173 73.2865Z" fill="#FDFDFD"/>
<path d="M61.6231 78.6564C61.1665 79.1445 60.2414 79.4768 59.2967 79.4768C57.0742 79.4768 55.5469 77.9911 55.5469 75.7269C55.5469 73.639 56.8655 71.9771 59.2652 71.9771C60.2108 71.9771 60.9996 72.2786 61.4775 72.7148L60.9059 73.6603C60.4697 73.3698 59.9918 73.1722 59.2644 73.1722C57.9142 73.1722 56.8962 74.1484 56.8962 75.7269C56.8962 77.3054 57.9244 78.2825 59.41 78.2825C60.0234 78.2825 60.6358 78.0848 61.1342 77.7006L61.6223 78.6564H61.6231Z" fill="#FDFDFD"/>
<path d="M67.1849 71.978C69.3452 71.978 70.9765 73.4637 70.9765 75.7279C70.9765 77.9921 69.3461 79.4777 67.1849 79.4777C65.0238 79.4777 63.4044 77.993 63.4044 75.7279C63.4044 73.6195 64.9522 71.978 67.1849 71.978ZM67.1849 78.2826C68.7115 78.2826 69.6255 77.1607 69.6255 75.727C69.6255 74.221 68.5556 73.1723 67.1849 73.1723C65.8143 73.1723 64.7546 74.221 64.7546 75.727C64.7546 77.2331 65.8245 78.2826 67.1849 78.2826Z" fill="#FDFDFD"/>
<path d="M77.8833 79.3624L73.8839 74.3245V79.3624H72.6896V72.0918H73.7075L77.7061 77.1501V72.0918H78.9013V79.3624H77.8833Z" fill="#FDFDFD"/>
<path d="M78.7326 42.7218L71.5115 38.7122L70.6963 38.2624L70.7073 29.2259V28.8298L70.3981 28.5794L62.3703 22.1138L54.3288 15.6679L53.7981 15.2437L53.2785 15.6738L37.7057 28.6109L37.4161 28.8528V29.2268L37.486 47.5868L29.2443 50.7369L29.0986 50.7931L29.1012 50.9422L29.194 58.5961L29.3201 66.2474L29.4436 58.5961L29.5365 51.0964L29.3959 51.1467L29.539 50.9414L29.5365 51.0964L37.4885 48.2785L37.5924 66.2474L37.595 66.8744L38.216 66.8718L43.8578 66.8352L44.4507 66.8326L44.4447 66.2483L44.265 45.5875L44.259 44.9971L43.7164 45.205L38.9452 47.0288L39.0099 29.6076L53.8126 17.3878L61.3123 23.4291L69.0454 29.628L69.0564 37.3637L64.2742 34.7281L63.5552 34.3319L63.5492 35.1608L63.4283 50.7054L63.3303 66.25L63.3243 66.9579L64.0407 66.9604L69.8768 66.9826L70.6077 66.9851L70.6102 66.2491L70.6801 47.7401L70.6912 39.2292L71.1128 39.4516L78.2667 43.1997L78.4047 54.6273C78.4439 58.5024 78.5197 62.3741 78.5819 66.2491C78.6406 62.3741 78.7164 58.5024 78.7556 54.6273L78.8987 43.0055V42.8198L78.7301 42.7244L78.7326 42.7218ZM43.4455 46.1633L43.2769 65.6554L38.8404 65.6247L38.9443 47.7597L43.4455 46.1633ZM64.7503 65.5293L64.6575 50.7011L64.5391 35.9743L69.0573 38.3629L69.0718 47.7367L69.1391 65.5148L64.7503 65.5285V65.5293Z" fill="#FDFDFD"/>
</g>
</g>
</g>
<defs>
<clipPath id="clip0_1782_8235">
<rect width="92" height="92" fill="white" transform="translate(8 3.5)"/>
</clipPath>
</defs>
</svg>
