<svg width="108" height="99" viewBox="0 0 108 99" fill="none" xmlns="http://www.w3.org/2000/svg">
<path d="M9.46589 45.5821H9.87253L13.7831 59.1135H18.2541L22.1962 45.5821H22.6029V59.5881H27.5437V39.4102H19.632L16.0354 51.695L12.2808 39.4102H4.52502V59.5881H9.46589V45.5821Z" fill="white"/>
<path d="M35.9864 39.4102H31.0455V59.5902H35.9864V39.4102Z" fill="white"/>
<path d="M51.123 59.5881L55.9417 39.4102H50.7164L47.5896 54.9887H46.4645L43.2429 39.4102H38.0219L42.9606 59.5881H51.123Z" fill="white"/>
<path d="M62.9451 39.4102H58.0043V59.5902H62.9451V39.4102Z" fill="white"/>
<path d="M81.9269 41.9624C81.2189 41.1314 80.2729 40.4979 79.0972 40.064C77.9173 39.6281 76.4845 39.4102 74.7969 39.4102H66.4785V59.5902H74.9528C76.6636 59.5902 78.0964 59.3478 79.2531 58.863C80.4098 58.3782 81.3327 57.6754 82.0217 56.7547C82.7085 55.8361 83.1995 54.7382 83.4923 53.461C83.7852 52.1859 83.9306 50.7661 83.9306 49.2038C83.9306 47.6414 83.7726 46.2502 83.4607 45.0342C83.1468 43.8161 82.6369 42.7935 81.929 41.9624M78.7685 51.754C78.6632 52.5464 78.4672 53.2329 78.1743 53.8154C77.8815 54.4 77.4495 54.8543 76.8764 55.1802C76.3012 55.5061 75.5575 55.669 74.6409 55.669H71.4194V43.2946H74.6409C75.5364 43.2946 76.2654 43.4331 76.828 43.7101C77.3927 43.9872 77.8246 44.3884 78.1259 44.9119C78.4272 45.4354 78.6358 46.0547 78.7516 46.7676C78.8654 47.4785 78.9223 48.2892 78.9223 49.1997C78.9223 50.1102 78.8717 50.9617 78.7664 51.752" fill="white"/>
<path d="M98.1907 39.4102H89.9356L84.6808 59.5881H89.5584L90.5614 55.8788H97.4406L98.5026 59.5881H103.475L98.1907 39.4102ZM91.2798 52.1696L93.469 43.15H94.6573L96.817 52.1696H91.2798Z" fill="white"/>
</svg>
