<svg width="108" height="99" viewBox="0 0 108 99" fill="none" xmlns="http://www.w3.org/2000/svg">
<path d="M101.586 59.178H98.8165V39.729H102.949V57.8146C102.949 58.5675 102.339 59.178 101.586 59.178Z" fill="#FDFDFD"/>
<path d="M91.5225 42.3497V55.0458H77.8791V54.0736H86.2668V46.5466C86.2668 44.7956 84.8476 43.3763 83.0965 43.3763H65.3589V51.1683C65.3589 52.7721 66.6592 54.0724 68.2629 54.0724H73.7466V55.0445H59.6746V39.728H55.5421V56.5579C55.5421 58.0043 56.7149 59.1783 58.1626 59.1783H92.7523C94.356 59.1783 95.6563 57.878 95.6563 56.2743V39.7293H94.143C92.6965 39.7293 91.5225 40.902 91.5225 42.3497ZM70.3719 47.5089H81.2537V49.9399H70.3719V47.5089Z" fill="#FDFDFD"/>
<path d="M9.77454 48.6784V53.9528H18.696C20.7517 53.9528 22.4173 52.2871 22.4173 50.2314V44.957H13.4959C11.4402 44.957 9.77454 46.6227 9.77454 48.6784ZM18.1387 50.9137H14.0544V47.9961H18.1387V50.9137Z" fill="#FDFDFD"/>
<path d="M81.2897 42.1604H76.8649V39H80.1441C80.777 39 81.2897 39.5127 81.2897 40.1455V42.1604Z" fill="#FDFDFD"/>
<path d="M74.7584 42.1604H71.4791C70.8463 42.1604 70.3336 41.6477 70.3336 41.0149V39H74.7584V42.1604Z" fill="#FDFDFD"/>
<path d="M33.6609 42.6333V48.2383H24.4224V55.0457H8.13377V43.863H24.4224V45.0791H26.7828C27.7611 45.0791 28.555 44.2853 28.555 43.307V39.7305H7.72138C5.66564 39.7305 4 41.3961 4 43.4519V59.1795H24.8336C26.8893 59.1795 28.555 57.5139 28.555 55.4581V52.372H33.6609V59.1795H47.7749C49.3786 59.1795 50.6789 57.8792 50.6789 56.2755V39.7305H36.5649C34.9612 39.7305 33.6609 41.0308 33.6609 42.6345M46.5464 55.0457H37.7946V52.372H46.5464V55.0457ZM46.5464 48.2383H37.7946V43.8618H46.5464V48.2383Z" fill="#FDFDFD"/>
</svg>
