<svg width="108" height="99" viewBox="0 0 108 99" fill="none" xmlns="http://www.w3.org/2000/svg">
<path d="M76.319 66.0425H31.8414V67.0419H76.319V66.0425Z" fill="#FDFDFD"/>
<path d="M69.1279 62.7466V45.7241H63.2403V35.4463L56.8872 32.3446V15L42.4494 22.7812V37.631L35.5654 41.3426V59.1628H50.0033V31.0315L61.2467 36.5243V45.7241H54.4262V62.7466H19V64.0921H56.4208V47.5276H61.2467V64.0921H89.1609V62.7466H69.1279ZM54.8926 31.3702L48.0097 28.0103V57.3593H37.5611V42.366L42.4504 39.7297V45.1013H44.445V23.8046L54.8936 18.1739V31.3693L54.8926 31.3702ZM67.1344 62.7485H63.2393V47.5285H67.1344V62.7485Z" fill="#FDFDFD"/>
<path d="M39.4557 77.7519V70.2862H37.9971V69.979H42.5131V70.2862H41.0411V77.7519H42.5131V78.0591H37.9971V77.7519H39.4557Z" fill="#FDFDFD"/>
<path d="M48.7806 69.979H53.0501V70.2862H51.6314L53.9492 75.9863H53.9758L56.1208 70.2862H54.6755V69.979H57.8392V70.2862H56.4737L53.4767 78.246H53.2966L49.9794 70.2862H48.7806V69.979Z" fill="#FDFDFD"/>
<path d="M67.1893 75.5407H64.3519L63.4395 77.7523H65.0914V78.0595H61.854V77.7523H63.0866L66.3434 69.7925H66.55L69.6739 77.7523H70.8727V78.0595H66.6165V77.7523H68.0618L67.1893 75.5407ZM64.4787 75.2335H67.0696L65.8105 71.9976H65.7839L64.4787 75.2335Z" fill="#FDFDFD"/>
<path d="M82.7108 70.2862V78.246H82.4377L76.5561 70.2501H76.5296V77.7519H78.0414V78.0591H74.8643V77.7519H76.19V70.2862H74.7712V69.979H78.1815L82.3446 75.643H82.3712V70.2862H80.8921V69.979H84.063V70.2862H82.7108Z" fill="#FDFDFD"/>
<path d="M26.1332 74.4792V76.5316C26.1332 76.8212 26.1455 77.0313 26.1701 77.1627C26.1946 77.2932 26.2314 77.3922 26.2805 77.4588C26.3296 77.5254 26.3961 77.58 26.481 77.6216C26.5659 77.6642 26.7102 77.7114 26.9147 77.7632V78.0593H24.0988V77.7632C24.3749 77.6985 24.559 77.6272 24.6532 77.5485C24.7462 77.4699 24.8076 77.3589 24.8362 77.2136C24.8649 77.0683 24.8792 76.8471 24.8792 76.5492V71.3266C24.8792 71.049 24.868 70.8463 24.8465 70.7195C24.824 70.5928 24.7871 70.4938 24.736 70.4234C24.6849 70.3531 24.6174 70.2967 24.5325 70.2541C24.4476 70.2115 24.3033 70.1643 24.0988 70.1125V69.8164H27.4016C28.4429 69.8164 29.2213 69.9876 29.7379 70.33C30.2534 70.6723 30.5122 71.2035 30.5122 71.9234C30.5122 72.4749 30.3444 72.9441 30.0079 73.3299C29.6724 73.7167 29.1681 74.0184 28.4961 74.2358V74.2839C28.7671 74.3848 28.9993 74.5282 29.1937 74.7161C29.387 74.903 29.6018 75.1936 29.8381 75.5887L30.4385 76.5788C30.6124 76.8684 30.7607 77.0896 30.8855 77.2432C31.0103 77.3959 31.1371 77.5125 31.266 77.593C31.3949 77.6735 31.5657 77.7299 31.7795 77.7623V78.0584H29.9312C29.7624 77.8447 29.6018 77.6161 29.4504 77.37C29.299 77.1247 29.1497 76.8749 29.0034 76.6214L28.4163 75.6127C28.2383 75.3074 28.0931 75.0816 27.9795 74.9363C27.866 74.791 27.7617 74.6902 27.6655 74.6319C27.5694 74.5736 27.4671 74.5329 27.3587 74.5116C27.2492 74.4894 27.0866 74.4783 26.8677 74.4783H26.1332V74.4792ZM26.1332 70.3744V73.961H26.8871C27.2738 73.961 27.5878 73.936 27.8282 73.8851C28.0685 73.8352 28.2905 73.7389 28.4951 73.5983C28.6996 73.4576 28.8633 73.2614 28.986 73.0098C29.1088 72.7581 29.1691 72.449 29.1691 72.0835C29.1691 71.718 29.0965 71.383 28.9523 71.1295C28.8081 70.8759 28.5892 70.6825 28.2946 70.5502C28.001 70.417 27.6052 70.3512 27.107 70.3512C26.7071 70.3512 26.3818 70.3596 26.1322 70.3753" fill="#FDFDFD"/>
<path d="M28.8307 81.0073V81.5116H28.6497C28.6221 81.4358 28.5965 81.3747 28.5709 81.3275C28.5454 81.2803 28.5188 81.2451 28.4911 81.2211C28.4635 81.197 28.4318 81.1794 28.394 81.1693C28.3572 81.1591 28.3081 81.1545 28.2477 81.1545H27.7066V82.0631H28.0871C28.1413 82.0631 28.1833 82.0548 28.214 82.0391C28.2446 82.0233 28.2702 81.9956 28.2907 81.9576C28.3111 81.9197 28.3306 81.8614 28.349 81.7818H28.5229V82.4869H28.349C28.3306 82.4111 28.3111 82.3546 28.2896 82.3158C28.2692 82.2769 28.2436 82.2501 28.215 82.2343C28.1863 82.2177 28.1434 82.2103 28.0871 82.2103H27.7066V82.8645C27.7066 82.9311 27.7107 82.9848 27.7199 83.0246C27.7281 83.0644 27.7424 83.0967 27.7629 83.1199C27.7823 83.143 27.8089 83.1606 27.8426 83.1726C27.8754 83.1846 27.9173 83.1958 27.9664 83.205V83.2864H27.1471V83.205C27.2238 83.1874 27.275 83.168 27.3005 83.1458C27.3261 83.1236 27.3435 83.093 27.3517 83.0533C27.3599 83.0135 27.3639 82.9515 27.3639 82.8691V81.4247C27.3639 81.3479 27.3609 81.2923 27.3547 81.2572C27.3486 81.222 27.3384 81.1952 27.324 81.1757C27.3097 81.1563 27.2913 81.1406 27.2678 81.1285C27.2443 81.1165 27.2044 81.1036 27.1481 81.0897V81.0073H28.8318H28.8307Z" fill="#FDFDFD"/>
<path d="M30.1656 83.3143C29.9099 83.3143 29.7145 83.2459 29.5795 83.1098C29.4445 82.9738 29.377 82.7721 29.377 82.5047C29.377 82.3205 29.4128 82.166 29.4833 82.0383C29.5539 81.9115 29.6511 81.8171 29.7738 81.7551C29.8966 81.6931 30.0377 81.6626 30.1953 81.6626C30.4581 81.6626 30.6576 81.732 30.7936 81.8708C30.9297 82.0096 30.9972 82.2085 30.9972 82.4676C30.9972 82.6527 30.9634 82.8082 30.8959 82.9349C30.8284 83.0617 30.7323 83.157 30.6075 83.2199C30.4837 83.2829 30.3364 83.3143 30.1666 83.3143M29.7268 82.4695C29.7268 82.699 29.7667 82.8748 29.8475 82.9979C29.9283 83.1209 30.0439 83.182 30.1932 83.182C30.2761 83.182 30.3456 83.1635 30.4039 83.1274C30.4612 83.0913 30.5083 83.0423 30.5451 82.9812C30.5809 82.9201 30.6075 82.8489 30.6238 82.7684C30.6402 82.6879 30.6484 82.6037 30.6484 82.5158C30.6484 82.352 30.6279 82.2159 30.588 82.1086C30.5481 82.0003 30.4939 81.9217 30.4244 81.8708C30.3558 81.8199 30.2771 81.7949 30.1881 81.7949C30.0388 81.7949 29.9252 81.8532 29.8454 81.9707C29.7656 82.0873 29.7268 82.2539 29.7268 82.4704" fill="#FDFDFD"/>
<path d="M32.2459 81.968L32.2715 81.9726C32.339 81.8976 32.4014 81.8393 32.4597 81.7968C32.518 81.7542 32.5804 81.7209 32.6468 81.6978C32.7133 81.6746 32.79 81.6626 32.8749 81.6626C32.9465 81.6626 33.011 81.6663 33.0693 81.6728V82.0568H32.8606C32.831 81.9966 32.7993 81.9532 32.7665 81.9254C32.7328 81.8986 32.6878 81.8847 32.6295 81.8847C32.5855 81.8847 32.5415 81.8967 32.4975 81.9198C32.4535 81.943 32.4116 81.9772 32.3707 82.0216C32.3298 82.066 32.3021 82.1077 32.2868 82.1465C32.2714 82.1854 32.2643 82.2317 32.2643 82.2853V82.8702C32.2643 82.972 32.2704 83.0414 32.2847 83.0793C32.298 83.1172 32.3205 83.1459 32.3523 83.1635C32.384 83.1811 32.431 83.195 32.4934 83.2051V83.2866H31.7498V83.2051C31.7968 83.1922 31.8306 83.1802 31.85 83.17C31.8705 83.1598 31.8879 83.1459 31.9022 83.1283C31.9165 83.1108 31.9278 83.083 31.9359 83.0469C31.9441 83.0108 31.9472 82.9525 31.9472 82.8748V82.1465C31.9472 82.0753 31.9462 82.0179 31.9431 81.9744C31.9411 81.9309 31.9319 81.8958 31.9175 81.8699C31.9032 81.844 31.8807 81.8245 31.85 81.8116C31.8193 81.7986 31.7774 81.7875 31.7222 81.7792V81.6922L32.1538 81.6755H32.2663L32.2459 81.968Z" fill="#FDFDFD"/>
<path d="M35.5084 82.2973V82.8655C35.5084 82.946 35.5115 83.0033 35.5187 83.0403C35.5258 83.0764 35.535 83.1042 35.5493 83.1218C35.5626 83.1403 35.581 83.1551 35.6046 83.1671C35.6281 83.1791 35.668 83.1921 35.7243 83.206V83.2883H34.9448V83.206C35.0215 83.1884 35.0727 83.168 35.0983 83.1468C35.1238 83.1246 35.1412 83.094 35.1494 83.0542C35.1576 83.0144 35.1617 82.9524 35.1617 82.8701V81.4256C35.1617 81.3488 35.1586 81.2933 35.1525 81.2581C35.1463 81.223 35.1361 81.1961 35.1218 81.1767C35.1075 81.1573 35.089 81.1415 35.0655 81.1295C35.042 81.1175 35.0021 81.1045 34.9458 81.0907V81.0083H35.8593C36.1477 81.0083 36.3625 81.0555 36.5057 81.1508C36.6489 81.2452 36.7205 81.3923 36.7205 81.5913C36.7205 81.7439 36.6745 81.8735 36.5814 81.9808C36.4883 82.0882 36.3492 82.1715 36.1631 82.2316V82.2446C36.2377 82.2723 36.3022 82.3121 36.3564 82.3639C36.4096 82.4157 36.4689 82.4962 36.5344 82.6054L36.7001 82.8793C36.7481 82.9598 36.7891 83.0209 36.8238 83.0635C36.8586 83.106 36.8934 83.1384 36.9292 83.1606C36.965 83.1828 37.012 83.1986 37.0714 83.2078V83.2902H36.5599C36.5129 83.231 36.4689 83.168 36.427 83.0996C36.385 83.032 36.3441 82.9626 36.3032 82.8923L36.1406 82.6138C36.0915 82.5296 36.0505 82.4666 36.0199 82.4268C35.9882 82.3871 35.9595 82.3584 35.9329 82.3426C35.9063 82.3269 35.8777 82.3158 35.848 82.3093C35.8184 82.3029 35.7723 82.3001 35.712 82.3001H35.5094L35.5084 82.2973ZM35.5084 81.1619V82.1539H35.7171C35.8245 82.1539 35.9114 82.1465 35.9779 82.1326C36.0444 82.1187 36.1058 82.0919 36.1631 82.053C36.2193 82.0141 36.2643 81.9595 36.2991 81.8901C36.3329 81.8207 36.3503 81.7347 36.3503 81.6338C36.3503 81.533 36.3308 81.4404 36.2899 81.3701C36.25 81.2998 36.1897 81.2461 36.1078 81.21C36.026 81.1739 35.9166 81.1545 35.7795 81.1545C35.669 81.1545 35.579 81.1564 35.5105 81.161" fill="#FDFDFD"/>
<path d="M39.034 83.0029C38.9552 83.0778 38.8826 83.1361 38.8171 83.1787C38.7517 83.2213 38.6791 83.2536 38.6003 83.2777C38.5215 83.3018 38.4346 83.3138 38.3395 83.3138C38.0858 83.3138 37.8945 83.2453 37.7656 83.1074C37.6368 82.9696 37.5713 82.7669 37.5713 82.4986C37.5713 82.3329 37.604 82.1858 37.6705 82.059C37.736 81.9323 37.8301 81.8342 37.9518 81.7648C38.0735 81.6954 38.2137 81.6611 38.3722 81.6611C38.497 81.6611 38.6023 81.6787 38.6903 81.7148C38.7773 81.7509 38.8478 81.799 38.9 81.861C38.9522 81.923 38.9931 82.0007 39.0217 82.0951C39.0504 82.1895 39.0667 82.3116 39.0708 82.4634H37.9078V82.493C37.9078 82.6244 37.9242 82.7345 37.9569 82.8243C37.9896 82.914 38.0428 82.9844 38.1175 83.0343C38.1922 83.0852 38.2883 83.1102 38.408 83.1102C38.5093 83.1102 38.5993 83.0936 38.6801 83.0593C38.7609 83.0251 38.8407 82.9696 38.9215 82.8928L39.034 83.001V83.0029ZM38.7241 82.3255C38.7169 82.2052 38.7005 82.1071 38.6739 82.0303C38.6484 81.9545 38.6095 81.8952 38.5573 81.8545C38.5052 81.8138 38.4377 81.7935 38.3548 81.7935C38.228 81.7935 38.1267 81.8397 38.051 81.9313C37.9753 82.0229 37.9303 82.1543 37.917 82.3246H38.7241V82.3255Z" fill="#FDFDFD"/>
<path d="M40.848 83.0488L40.8203 83.0423C40.7129 83.1413 40.6127 83.2116 40.5186 83.2523C40.4245 83.294 40.3242 83.3143 40.2189 83.3143C40.1258 83.3143 40.043 83.2977 39.9714 83.2653C39.8998 83.232 39.8455 83.1866 39.8067 83.1265C39.7688 83.0673 39.7494 82.9979 39.7494 82.9201C39.7494 82.7573 39.8384 82.6324 40.0164 82.5435C40.1943 82.4547 40.4613 82.4038 40.8162 82.389V82.2807C40.8162 82.1651 40.804 82.0734 40.7794 82.0068C40.7549 81.9402 40.716 81.8912 40.6628 81.8597C40.6096 81.8282 40.539 81.8134 40.4501 81.8134C40.3539 81.8134 40.2772 81.8366 40.2179 81.8819C40.1596 81.9272 40.1156 81.9957 40.0859 82.0873H39.8445V81.8699C39.9621 81.8144 40.0614 81.7736 40.1401 81.7468C40.2189 81.7209 40.2976 81.7005 40.3764 81.6848C40.4552 81.67 40.535 81.6626 40.6168 81.6626C40.7385 81.6626 40.8367 81.6802 40.9104 81.7153C40.984 81.7505 41.0392 81.8042 41.0761 81.8764C41.1129 81.9485 41.1313 82.0577 41.1313 82.2039V82.785C41.1313 82.8674 41.1313 82.9257 41.1333 82.9599C41.1344 82.9942 41.1385 83.0256 41.1446 83.0543C41.1507 83.083 41.1599 83.1061 41.1722 83.1237C41.1845 83.1413 41.2029 83.1561 41.2264 83.1681C41.2499 83.1802 41.2898 83.1931 41.344 83.2061V83.2875H40.8377L40.8469 83.0488H40.848ZM40.8162 82.5259C40.5667 82.5278 40.3795 82.5583 40.2547 82.6166C40.1309 82.6749 40.0685 82.7619 40.0685 82.8785C40.0685 82.9423 40.0828 82.9923 40.1115 83.0284C40.1401 83.0654 40.1749 83.0904 40.2189 83.1043C40.2618 83.1182 40.313 83.1256 40.3723 83.1256C40.4562 83.1256 40.5319 83.1071 40.6004 83.07C40.669 83.033 40.7221 82.9868 40.76 82.9294C40.7978 82.8729 40.8173 82.8165 40.8173 82.761V82.525L40.8162 82.5259Z" fill="#FDFDFD"/>
<path d="M42.4983 82.8698C42.4983 82.9661 42.5035 83.0318 42.5127 83.0697C42.5229 83.1067 42.5413 83.1354 42.5689 83.1548C42.5965 83.1743 42.6415 83.1909 42.705 83.2057V83.2872H41.9716V83.2057C42.0329 83.1909 42.0759 83.1761 42.0994 83.1604C42.1229 83.1447 42.1403 83.1262 42.1516 83.1049C42.1618 83.0827 42.169 83.054 42.1741 83.016C42.1782 82.979 42.1802 82.93 42.1802 82.8698V81.4717C42.1802 81.3643 42.1802 81.2903 42.1772 81.2477C42.1751 81.2052 42.17 81.1691 42.1628 81.1404C42.1547 81.1108 42.1434 81.0876 42.1291 81.071C42.1148 81.0543 42.0953 81.0414 42.0718 81.0312C42.0473 81.021 42.0043 81.0108 41.9419 81.0016V80.9146L42.3868 80.8979H42.4973V82.8708L42.4983 82.8698Z" fill="#FDFDFD"/>
<path d="M46.391 81.0073V81.5116H46.2099C46.1915 81.457 46.1721 81.4089 46.1526 81.3682C46.1332 81.3275 46.1127 81.2923 46.0913 81.2646C46.0698 81.2368 46.0473 81.2146 46.0217 81.1979C45.9961 81.1813 45.9665 81.1702 45.9317 81.1637C45.8969 81.1572 45.856 81.1545 45.8079 81.1545H45.2249V82.0298H45.6197C45.6739 82.0298 45.7159 82.0233 45.7466 82.0095C45.7772 81.9956 45.8028 81.9715 45.8233 81.9382C45.8437 81.9049 45.8632 81.8522 45.8816 81.7809H46.0555V82.4222H45.8816C45.8642 82.3555 45.8458 82.3046 45.8243 82.2713C45.8028 82.2371 45.7783 82.213 45.7496 82.1982C45.721 82.1834 45.677 82.176 45.6197 82.176H45.2249V83.1393H45.7987C45.8591 83.1393 45.9082 83.1347 45.945 83.1254C45.9828 83.1162 46.0145 83.0995 46.0422 83.0773C46.0688 83.0542 46.0933 83.0246 46.1138 82.9875C46.1352 82.9505 46.1526 82.9126 46.1659 82.8728C46.1803 82.833 46.1997 82.7756 46.2242 82.6998H46.4073L46.3725 83.2864H44.6633V83.205C44.739 83.1874 44.7902 83.168 44.8168 83.1458C44.8423 83.1236 44.8597 83.093 44.8679 83.0533C44.8761 83.0135 44.8802 82.9515 44.8802 82.8691V81.4247C44.8802 81.3479 44.8771 81.2923 44.871 81.2572C44.8648 81.222 44.8546 81.1952 44.8403 81.1757C44.826 81.1563 44.8076 81.1406 44.784 81.1285C44.7605 81.1165 44.7206 81.1036 44.6644 81.0897V81.0073H46.391Z" fill="#FDFDFD"/>
<path d="M48.41 82.0562H48.2331C48.2055 81.9896 48.1737 81.9369 48.1369 81.898C48.1001 81.8601 48.0582 81.8323 48.0111 81.8166C47.9641 81.8009 47.9068 81.7935 47.8393 81.7935C47.7411 81.7935 47.6623 81.8147 47.604 81.8564C47.5457 81.898 47.516 81.9554 47.516 82.0276C47.516 82.0785 47.5273 82.121 47.5508 82.1543C47.5743 82.1876 47.6101 82.2191 47.6603 82.2478C47.7094 82.2765 47.7963 82.3153 47.9201 82.3635C48.0459 82.4125 48.1431 82.4578 48.2106 82.4986C48.2791 82.5402 48.3323 82.5874 48.3712 82.642C48.41 82.6966 48.4295 82.7614 48.4295 82.8372C48.4295 82.9251 48.4131 82.9992 48.3793 83.0593C48.3456 83.1195 48.2996 83.1685 48.2392 83.2064C48.1789 83.2444 48.1073 83.2712 48.0244 83.2879C47.9415 83.3045 47.8505 83.3129 47.7523 83.3129C47.649 83.3129 47.5488 83.3064 47.4516 83.2925C47.3544 83.2786 47.2593 83.2601 47.1672 83.2379V82.8891H47.3483C47.382 82.9918 47.4311 83.0658 47.4956 83.1121C47.561 83.1583 47.6511 83.1815 47.7656 83.1815C47.8096 83.1815 47.8536 83.1768 47.8955 83.1685C47.9375 83.1602 47.9763 83.1463 48.0091 83.1269C48.0428 83.1074 48.0684 83.0806 48.0888 83.0473C48.1083 83.014 48.1185 82.9723 48.1185 82.9224C48.1185 82.8659 48.1062 82.8197 48.0817 82.7836C48.0571 82.7475 48.0193 82.7151 47.9671 82.6855C47.915 82.6559 47.8239 82.6161 47.694 82.5661C47.5815 82.5235 47.4925 82.4828 47.425 82.4421C47.3575 82.4023 47.3043 82.3551 47.2654 82.3005C47.2266 82.2459 47.2071 82.1812 47.2071 82.1071C47.2071 82.0155 47.2347 81.9369 47.289 81.8693C47.3442 81.8018 47.423 81.7509 47.5263 81.7148C47.6296 81.6796 47.7513 81.6611 47.8904 81.6611C47.9712 81.6611 48.05 81.6648 48.1257 81.6722C48.2014 81.6796 48.2965 81.6935 48.411 81.7148V82.0553L48.41 82.0562Z" fill="#FDFDFD"/>
<path d="M49.0662 81.7739C49.1276 81.7646 49.1777 81.7498 49.2155 81.7276C49.2534 81.7054 49.2831 81.6767 49.3056 81.6415C49.327 81.6064 49.3444 81.5629 49.3567 81.5101C49.369 81.4574 49.3823 81.3797 49.3956 81.2788H49.6574V81.6915H50.2538V81.8599H49.6574V82.603C49.6574 82.7112 49.6625 82.7973 49.6717 82.8611C49.682 82.925 49.7004 82.975 49.727 83.011C49.7536 83.0471 49.7843 83.073 49.819 83.0888C49.8538 83.1045 49.8978 83.1119 49.952 83.1119C50.0011 83.1119 50.0471 83.1027 50.0901 83.0841C50.1331 83.0656 50.176 83.0397 50.2169 83.0046L50.2998 83.0943C50.2128 83.1711 50.13 83.2266 50.0512 83.2618C49.9735 83.296 49.8927 83.3136 49.8088 83.3136C49.6503 83.3136 49.5316 83.2711 49.4549 83.1859C49.3772 83.1008 49.3383 82.9676 49.3383 82.7862V81.859H49.0652V81.7739H49.0662Z" fill="#FDFDFD"/>
<path d="M51.9008 83.0488L51.8732 83.0423C51.7658 83.1413 51.6655 83.2116 51.5714 83.2523C51.4773 83.294 51.3771 83.3143 51.2717 83.3143C51.1787 83.3143 51.0958 83.2977 51.0242 83.2653C50.9526 83.232 50.8984 83.1866 50.8595 83.1265C50.8217 83.0673 50.8022 82.9979 50.8022 82.9201C50.8022 82.7573 50.8912 82.6324 51.0692 82.5435C51.2472 82.4547 51.5142 82.4038 51.8691 82.389V82.2807C51.8691 82.1651 51.8568 82.0734 51.8323 82.0068C51.8077 81.9402 51.7689 81.8912 51.7157 81.8597C51.6625 81.8282 51.5919 81.8134 51.5029 81.8134C51.4068 81.8134 51.33 81.8366 51.2707 81.8819C51.2124 81.9272 51.1684 81.9957 51.1388 82.0873H50.8974V81.8699C51.015 81.8144 51.1142 81.7736 51.193 81.7468C51.2717 81.7209 51.3505 81.7005 51.4293 81.6848C51.508 81.67 51.5878 81.6626 51.6696 81.6626C51.7914 81.6626 51.8896 81.6802 51.9632 81.7153C52.0369 81.7505 52.0921 81.8042 52.1289 81.8764C52.1657 81.9485 52.1841 82.0577 52.1841 82.2039V82.785C52.1841 82.8674 52.1841 82.9257 52.1862 82.9599C52.1872 82.9942 52.1913 83.0256 52.1974 83.0543C52.2036 83.083 52.2128 83.1061 52.2251 83.1237C52.2373 83.1413 52.2558 83.1561 52.2793 83.1681C52.3028 83.1802 52.3427 83.1931 52.3969 83.2061V83.2875H51.8906L51.8998 83.0488H51.9008ZM51.8691 82.5259C51.6195 82.5278 51.4323 82.5583 51.3075 82.6166C51.1838 82.6749 51.1214 82.7619 51.1214 82.8785C51.1214 82.9423 51.1357 82.9923 51.1643 83.0284C51.193 83.0654 51.2278 83.0904 51.2717 83.1043C51.3147 83.1182 51.3658 83.1256 51.4252 83.1256C51.5091 83.1256 51.5847 83.1071 51.6533 83.07C51.7218 83.033 51.775 82.9868 51.8128 82.9294C51.8507 82.8729 51.8701 82.8165 51.8701 82.761V82.525L51.8691 82.5259Z" fill="#FDFDFD"/>
<path d="M52.9479 81.7739C53.0092 81.7646 53.0594 81.7498 53.0972 81.7276C53.1351 81.7054 53.1647 81.6767 53.1872 81.6415C53.2087 81.6064 53.2261 81.5629 53.2384 81.5101C53.2506 81.4574 53.2639 81.3797 53.2772 81.2788H53.5391V81.6915H54.1354V81.8599H53.5391V82.603C53.5391 82.7112 53.5442 82.7973 53.5544 82.8611C53.5647 82.925 53.5831 82.975 53.6097 83.011C53.6363 83.0471 53.668 83.073 53.7017 83.0888C53.7365 83.1045 53.7805 83.1119 53.8347 83.1119C53.8838 83.1119 53.9298 83.1027 53.9728 83.0841C54.0158 83.0656 54.0587 83.0397 54.0996 83.0046L54.1825 83.0943C54.0955 83.1711 54.0127 83.2266 53.9339 83.2618C53.8562 83.296 53.7754 83.3136 53.6915 83.3136C53.533 83.3136 53.4143 83.2711 53.3376 83.1859C53.2599 83.1008 53.221 82.9676 53.221 82.7862V81.859H52.9479V81.7739Z" fill="#FDFDFD"/>
<path d="M56.1572 83.0029C56.0785 83.0778 56.0059 83.1361 55.9404 83.1787C55.8749 83.2213 55.8023 83.2536 55.7235 83.2777C55.6448 83.3018 55.5578 83.3138 55.4637 83.3138C55.2101 83.3138 55.0188 83.2453 54.8899 83.1074C54.761 82.9696 54.6956 82.7669 54.6956 82.4986C54.6956 82.3329 54.7283 82.1858 54.7948 82.059C54.8602 81.9323 54.9543 81.8342 55.0761 81.7648C55.1978 81.6954 55.3379 81.6611 55.4975 81.6611C55.6213 81.6611 55.7276 81.6787 55.8146 81.7148C55.9015 81.7509 55.9721 81.799 56.0243 81.861C56.0764 81.923 56.1173 82.0007 56.146 82.0951C56.1746 82.1895 56.191 82.3116 56.1951 82.4634H55.0321V82.493C55.0321 82.6244 55.0484 82.7345 55.0812 82.8243C55.1139 82.914 55.1671 82.9844 55.2418 83.0343C55.3164 83.0852 55.4126 83.1102 55.5323 83.1102C55.6335 83.1102 55.7235 83.0936 55.8043 83.0593C55.8852 83.0251 55.9649 82.9696 56.0457 82.8928L56.1583 83.001L56.1572 83.0029ZM55.8473 82.3255C55.8402 82.2052 55.8238 82.1071 55.7972 82.0303C55.7716 81.9545 55.7328 81.8952 55.6806 81.8545C55.6284 81.8138 55.5609 81.7935 55.4781 81.7935C55.3512 81.7935 55.25 81.8397 55.1743 81.9313C55.0986 82.0229 55.0536 82.1543 55.0403 82.3246H55.8473V82.3255Z" fill="#FDFDFD"/>
<path d="M58.7223 82.87C58.7223 82.945 58.7254 82.9996 58.7305 83.0338C58.7356 83.0681 58.7448 83.0958 58.7581 83.1152C58.7714 83.1356 58.7898 83.1523 58.8154 83.1652C58.8409 83.1782 58.8819 83.1921 58.9381 83.205V83.2864H58.1587V83.205C58.2354 83.1874 58.2855 83.1671 58.3121 83.1458C58.3377 83.1236 58.3551 83.093 58.3633 83.0533C58.3714 83.0135 58.3755 82.9524 58.3755 82.8691V81.4247C58.3755 81.3479 58.3725 81.2923 58.3663 81.2572C58.3602 81.222 58.35 81.1952 58.3356 81.1757C58.3213 81.1563 58.3029 81.1406 58.2794 81.1285C58.2559 81.1165 58.216 81.1036 58.1597 81.0888V81.0073H58.9391V81.0888C58.8849 81.1008 58.8461 81.1128 58.8215 81.1258C58.798 81.1378 58.7786 81.1535 58.7642 81.172C58.7499 81.1905 58.7397 81.2183 58.7325 81.2544C58.7254 81.2914 58.7223 81.3479 58.7223 81.4247V82.8691V82.87Z" fill="#FDFDFD"/>
<path d="M61.5178 83.2867H60.7905V83.2052C60.8386 83.1923 60.8724 83.1803 60.8938 83.1701C60.9143 83.1599 60.9327 83.146 60.946 83.1284C60.9603 83.1109 60.9716 83.0831 60.9798 83.0461C60.9879 83.0091 60.992 82.9526 60.992 82.8767V82.4391C60.992 82.3613 60.99 82.2901 60.9849 82.2272C60.9798 82.1642 60.9716 82.1115 60.9603 82.0708C60.9491 82.0301 60.9347 81.9986 60.9184 81.9755C60.902 81.9523 60.8816 81.9329 60.8591 81.9172C60.8366 81.9014 60.81 81.8885 60.7803 81.8792C60.7506 81.87 60.7118 81.8653 60.6637 81.8653C60.6156 81.8653 60.5706 81.8737 60.5276 81.8913C60.4847 81.9088 60.4366 81.9384 60.3855 81.981C60.3333 82.0236 60.2965 82.0652 60.2729 82.1059C60.2494 82.1467 60.2382 82.1948 60.2382 82.2475V82.8703C60.2382 82.9656 60.2433 83.0322 60.2525 83.0701C60.2627 83.1072 60.2811 83.1358 60.3088 83.1553C60.3364 83.1747 60.3814 83.1914 60.4448 83.2062V83.2876H59.7206V83.2062C59.7687 83.1932 59.8024 83.1812 59.8229 83.171C59.8433 83.1608 59.8607 83.1469 59.875 83.1294C59.8894 83.1118 59.9006 83.084 59.9088 83.0479C59.917 83.0109 59.9211 82.9536 59.9211 82.8758V82.1476C59.9211 82.0763 59.9201 82.019 59.917 81.9755C59.9149 81.932 59.9057 81.8968 59.8914 81.8709C59.8771 81.845 59.8546 81.8256 59.8239 81.8126C59.7932 81.7996 59.7513 81.7885 59.696 81.7802V81.6914L60.1277 81.6766H60.2402L60.2198 81.9486L60.2453 81.9551C60.3364 81.8718 60.41 81.8117 60.4663 81.7765C60.5225 81.7414 60.5788 81.7136 60.6361 81.6942C60.6933 81.6747 60.7537 81.6646 60.8181 81.6646C60.8826 81.6646 60.944 81.671 60.9961 81.6849C61.0483 81.6988 61.0943 81.7201 61.1342 81.7497C61.1741 81.7784 61.2068 81.8145 61.2334 81.857C61.26 81.8996 61.2784 81.9514 61.2917 82.0116C61.305 82.0717 61.3112 82.1476 61.3112 82.2401V82.8693C61.3112 82.9461 61.3132 83.0017 61.3183 83.0359C61.3234 83.0701 61.3316 83.097 61.3439 83.1164C61.3562 83.1349 61.3736 83.1516 61.3971 83.1636C61.4206 83.1766 61.4615 83.1904 61.5188 83.2043V83.2857L61.5178 83.2867Z" fill="#FDFDFD"/>
<path d="M62.7439 81.6909V81.7733C62.6876 81.7853 62.6467 81.7973 62.6242 81.8084C62.6007 81.8195 62.5833 81.8343 62.572 81.8519C62.5608 81.8695 62.5546 81.8936 62.5546 81.9241C62.5546 81.9546 62.5587 81.9861 62.5669 82.0185C62.5751 82.0509 62.5874 82.0897 62.6048 82.1332L62.9259 82.9781L63.3024 82.1684C63.3269 82.1147 63.3443 82.0712 63.3545 82.0361C63.3648 82.0018 63.3689 81.9694 63.3689 81.9389C63.3689 81.8917 63.3545 81.8566 63.3269 81.8325C63.2993 81.8084 63.2482 81.7881 63.1745 81.7742V81.6918H63.8649V81.7742C63.8169 81.7834 63.7801 81.7964 63.7545 81.8149C63.7289 81.8334 63.7023 81.8621 63.6767 81.9019C63.6512 81.9417 63.6205 81.9972 63.5847 82.0685L62.9628 83.3056H62.7449L62.2447 82.0583C62.2099 81.9722 62.1833 81.9139 62.1629 81.8825C62.1424 81.851 62.1199 81.8269 62.0964 81.8112C62.0729 81.7955 62.0381 81.7834 61.9921 81.7742V81.6918H62.7449L62.7439 81.6909Z" fill="#FDFDFD"/>
<path d="M65.8194 83.0029C65.7406 83.0778 65.668 83.1361 65.6025 83.1787C65.537 83.2213 65.4644 83.2536 65.3857 83.2777C65.3069 83.3018 65.2199 83.3138 65.1258 83.3138C64.8722 83.3138 64.6809 83.2453 64.552 83.1074C64.4231 82.9696 64.3577 82.7669 64.3577 82.4986C64.3577 82.3329 64.3904 82.1858 64.4569 82.059C64.5224 81.9323 64.6165 81.8342 64.7382 81.7648C64.8599 81.6954 65 81.6611 65.1586 81.6611C65.2834 81.6611 65.3887 81.6787 65.4767 81.7148C65.5636 81.7509 65.6342 81.799 65.6864 81.861C65.7385 81.923 65.7795 82.0007 65.8081 82.0951C65.8367 82.1895 65.8531 82.3116 65.8572 82.4634H64.6942V82.493C64.6942 82.6244 64.7106 82.7345 64.7433 82.8243C64.776 82.914 64.8292 82.9844 64.9039 83.0343C64.9786 83.0852 65.0747 83.1102 65.1944 83.1102C65.2956 83.1102 65.3857 83.0936 65.4665 83.0593C65.5473 83.0251 65.6271 82.9696 65.7079 82.8928L65.8204 83.001L65.8194 83.0029ZM65.5084 82.3255C65.5012 82.2052 65.4849 82.1071 65.4583 82.0303C65.4327 81.9545 65.3938 81.8952 65.3417 81.8545C65.2895 81.8138 65.222 81.7935 65.1391 81.7935C65.0123 81.7935 64.911 81.8397 64.8354 81.9313C64.7597 82.0229 64.7147 82.1543 64.7014 82.3246H65.5084V82.3255Z" fill="#FDFDFD"/>
<path d="M67.8038 82.0562H67.6269C67.5992 81.9896 67.5675 81.9369 67.5307 81.898C67.4939 81.8601 67.452 81.8323 67.4049 81.8166C67.3579 81.8009 67.3006 81.7935 67.2331 81.7935C67.1349 81.7935 67.0561 81.8147 66.9978 81.8564C66.9395 81.898 66.9098 81.9554 66.9098 82.0276C66.9098 82.0785 66.9211 82.121 66.9446 82.1543C66.9681 82.1876 67.0039 82.2191 67.0541 82.2478C67.1032 82.2765 67.1901 82.3153 67.3139 82.3635C67.4397 82.4125 67.5358 82.4578 67.6044 82.4986C67.6729 82.5402 67.7261 82.5874 67.765 82.642C67.8038 82.6966 67.8233 82.7614 67.8233 82.8372C67.8233 82.9251 67.8069 82.9992 67.7731 83.0593C67.7404 83.1195 67.6934 83.1685 67.633 83.2064C67.5727 83.2444 67.5011 83.2712 67.4182 83.2879C67.3354 83.3045 67.2443 83.3129 67.1461 83.3129C67.0428 83.3129 66.9426 83.3064 66.8454 83.2925C66.7482 83.2786 66.6531 83.2601 66.561 83.2379V82.8891H66.7421C66.7758 82.9918 66.8249 83.0658 66.8894 83.1121C66.9548 83.1583 67.0449 83.1815 67.1594 83.1815C67.2034 83.1815 67.2474 83.1768 67.2893 83.1685C67.3313 83.1602 67.3701 83.1463 67.4029 83.1269C67.4366 83.1074 67.4622 83.0806 67.4826 83.0473C67.5021 83.014 67.5123 82.9723 67.5123 82.9224C67.5123 82.8659 67.5 82.8197 67.4755 82.7836C67.4509 82.7475 67.4131 82.7151 67.3609 82.6855C67.3088 82.6559 67.2177 82.6161 67.0878 82.5661C66.9753 82.5235 66.8863 82.4828 66.8178 82.4421C66.7503 82.4023 66.6971 82.3551 66.6582 82.3005C66.6193 82.2459 66.5999 82.1812 66.5999 82.1071C66.5999 82.0155 66.6275 81.9369 66.6817 81.8693C66.737 81.8018 66.8157 81.7509 66.919 81.7148C67.0224 81.6796 67.1441 81.6611 67.2832 81.6611C67.364 81.6611 67.4428 81.6648 67.5184 81.6722C67.5941 81.6796 67.6893 81.6935 67.8038 81.7148V82.0553V82.0562Z" fill="#FDFDFD"/>
<path d="M68.459 81.7739C68.5204 81.7646 68.5705 81.7498 68.6083 81.7276C68.6462 81.7054 68.6758 81.6767 68.6983 81.6415C68.7198 81.6064 68.7372 81.5629 68.7495 81.5101C68.7618 81.4574 68.775 81.3797 68.7883 81.2788H69.0502V81.6915H69.6465V81.8599H69.0502V82.603C69.0502 82.7112 69.0553 82.7973 69.0655 82.8611C69.0758 82.925 69.0942 82.975 69.1208 83.011C69.1474 83.0471 69.1791 83.073 69.2128 83.0888C69.2476 83.1045 69.2916 83.1119 69.3458 83.1119C69.3949 83.1119 69.4409 83.1027 69.4839 83.0841C69.5269 83.0656 69.5698 83.0397 69.6107 83.0046L69.6936 83.0943C69.6066 83.1711 69.5238 83.2266 69.445 83.2618C69.3673 83.296 69.2865 83.3136 69.2026 83.3136C69.0441 83.3136 68.9254 83.2711 68.8487 83.1859C68.771 83.1008 68.7321 82.9676 68.7321 82.7862V81.859H68.459V81.7739Z" fill="#FDFDFD"/>
<path d="M70.7245 81.9477L70.7501 81.9541C70.8237 81.8875 70.8841 81.8366 70.9322 81.8033C70.9802 81.77 71.0252 81.7422 71.0702 81.7209C71.1142 81.7006 71.1562 81.6858 71.195 81.6765C71.2339 81.6673 71.2738 81.6636 71.3137 81.6636C71.4364 81.6636 71.5367 81.6895 71.6144 81.7404C71.6922 81.7913 71.7453 81.8699 71.775 81.9754C71.8671 81.8912 71.9417 81.8283 71.999 81.7885C72.0563 81.7487 72.1146 81.7172 72.1749 81.696C72.2343 81.6738 72.2987 81.6636 72.3683 81.6636C72.4511 81.6636 72.5217 81.6747 72.581 81.696C72.6404 81.7172 72.6915 81.7515 72.7324 81.7959C72.7733 81.8412 72.804 81.8977 72.8224 81.9652C72.8419 82.0328 72.8511 82.1244 72.8511 82.2391V82.8684C72.8511 82.9526 72.8541 83.0118 72.8603 83.0433C72.8664 83.0756 72.8756 83.1006 72.8869 83.1182C72.8981 83.1358 72.9155 83.1515 72.939 83.1645C72.9626 83.1774 73.0014 83.1904 73.0567 83.2033V83.2857H72.3315V83.2033C72.3795 83.1904 72.4143 83.1784 72.4348 83.1682C72.4562 83.158 72.4736 83.1441 72.4879 83.1265C72.5023 83.109 72.5135 83.0812 72.5217 83.0442C72.5299 83.0072 72.534 82.9507 72.534 82.8748V82.4372C72.534 82.3428 72.5309 82.2641 72.5258 82.2021C72.5207 82.1401 72.5115 82.0911 72.5002 82.0541C72.489 82.0171 72.4747 81.9884 72.4583 81.9671C72.4419 81.9458 72.4235 81.9273 72.402 81.9116C72.3816 81.8958 72.356 81.8838 72.3284 81.8746C72.2997 81.8653 72.2629 81.8616 72.2159 81.8616C72.1668 81.8616 72.1207 81.8708 72.0788 81.8884C72.0369 81.906 71.9898 81.9366 71.9407 81.9791C71.8916 82.0217 71.8548 82.0643 71.8333 82.1068C71.8108 82.1494 71.7996 82.2003 71.7996 82.2576V82.8674C71.7996 82.9516 71.8026 83.0109 71.8088 83.0423C71.8149 83.0747 71.8241 83.0997 71.8354 83.1173C71.8466 83.1349 71.864 83.1506 71.8875 83.1636C71.911 83.1765 71.9499 83.1895 72.0062 83.2024V83.2848H71.281V83.2024C71.329 83.1895 71.3638 83.1774 71.3843 83.1673C71.4047 83.1571 71.4231 83.1432 71.4364 83.1256C71.4508 83.108 71.462 83.0803 71.4702 83.0433C71.4784 83.0062 71.4825 82.9498 71.4825 82.8739V82.4362C71.4825 82.3372 71.4794 82.2567 71.4733 82.1938C71.4671 82.1318 71.4579 82.0818 71.4446 82.0439C71.4313 82.0059 71.415 81.9754 71.3945 81.9523C71.374 81.9291 71.3536 81.9116 71.3331 81.8986C71.3127 81.8866 71.2871 81.8773 71.2595 81.8708C71.2308 81.8644 71.1991 81.8616 71.1633 81.8616C71.1132 81.8616 71.0651 81.8718 71.0212 81.8921C70.9772 81.9125 70.9311 81.9421 70.8851 81.981C70.8391 82.0198 70.8043 82.0605 70.7808 82.1031C70.7573 82.1457 70.746 82.191 70.746 82.2401V82.8665C70.746 82.9304 70.748 82.9785 70.7511 83.0118C70.7552 83.0451 70.7603 83.071 70.7685 83.0904C70.7767 83.1099 70.7869 83.1247 70.7992 83.1367C70.8115 83.1487 70.8288 83.1599 70.8514 83.17C70.8739 83.1802 70.9086 83.1913 70.9536 83.2024V83.2848H70.2294V83.2024C70.2765 83.1895 70.3103 83.1774 70.3297 83.1673C70.3501 83.1571 70.3675 83.1432 70.3819 83.1256C70.3962 83.108 70.4074 83.0803 70.4156 83.0442C70.4228 83.0072 70.4269 82.9498 70.4269 82.8721V82.1438C70.4269 82.0726 70.4258 82.0152 70.4228 81.9717C70.4207 81.9282 70.4115 81.8931 70.3972 81.8672C70.3829 81.8412 70.3604 81.8218 70.3297 81.8089C70.299 81.7959 70.2571 81.7848 70.2008 81.7765V81.6876L70.6325 81.6728H70.745L70.7245 81.9449V81.9477Z" fill="#FDFDFD"/>
<path d="M75.2265 83.0029C75.1477 83.0778 75.0751 83.1361 75.0096 83.1787C74.9441 83.2213 74.8715 83.2536 74.7928 83.2777C74.714 83.3018 74.6271 83.3138 74.5329 83.3138C74.2793 83.3138 74.088 83.2453 73.9591 83.1074C73.8302 82.9696 73.7648 82.7669 73.7648 82.4986C73.7648 82.3329 73.7975 82.1858 73.864 82.059C73.9295 81.9323 74.0236 81.8342 74.1453 81.7648C74.267 81.6954 74.4071 81.6611 74.5667 81.6611C74.6905 81.6611 74.7968 81.6787 74.8838 81.7148C74.9707 81.7509 75.0413 81.799 75.0935 81.861C75.1456 81.923 75.1866 82.0007 75.2152 82.0951C75.2438 82.1895 75.2602 82.3116 75.2643 82.4634H74.1013V82.493C74.1013 82.6244 74.1177 82.7345 74.1504 82.8243C74.1831 82.914 74.2363 82.9844 74.311 83.0343C74.3857 83.0852 74.4818 83.1102 74.6015 83.1102C74.7027 83.1102 74.7928 83.0936 74.8736 83.0593C74.9544 83.0251 75.0342 82.9696 75.115 82.8928L75.2275 83.001L75.2265 83.0029ZM74.9165 82.3255C74.9094 82.2052 74.893 82.1071 74.8664 82.0303C74.8408 81.9545 74.802 81.8952 74.7498 81.8545C74.6976 81.8138 74.6301 81.7935 74.5473 81.7935C74.4204 81.7935 74.3192 81.8397 74.2435 81.9313C74.1678 82.0229 74.1228 82.1543 74.1095 82.3246H74.9165V82.3255Z" fill="#FDFDFD"/>
<path d="M77.7713 83.2867H77.0441V83.2052C77.0921 83.1923 77.1269 83.1803 77.1474 83.1701C77.1678 83.1599 77.1863 83.146 77.1996 83.1284C77.2139 83.1109 77.2251 83.0831 77.2333 83.0461C77.2415 83.0091 77.2456 82.9526 77.2456 82.8767V82.4391C77.2456 82.3613 77.2435 82.2901 77.2384 82.2272C77.2333 82.1642 77.2251 82.1115 77.2139 82.0708C77.2026 82.0301 77.1883 81.9986 77.1719 81.9755C77.1556 81.9523 77.1361 81.9329 77.1126 81.9172C77.0901 81.9014 77.0635 81.8885 77.0338 81.8792C77.0042 81.87 76.9653 81.8653 76.9172 81.8653C76.8692 81.8653 76.8231 81.8737 76.7802 81.8913C76.7372 81.9088 76.6902 81.9384 76.638 81.981C76.5858 82.0236 76.549 82.0652 76.5255 82.1059C76.502 82.1467 76.4907 82.1948 76.4907 82.2475V82.8703C76.4907 82.9656 76.4958 83.0322 76.505 83.0701C76.5152 83.1072 76.5337 83.1358 76.5613 83.1553C76.5889 83.1747 76.6339 83.1914 76.6973 83.2062V83.2876H75.9731V83.2062C76.0212 83.1932 76.055 83.1812 76.0754 83.171C76.0959 83.1608 76.1133 83.1469 76.1266 83.1294C76.1409 83.1118 76.1521 83.084 76.1603 83.0479C76.1685 83.0109 76.1726 82.9536 76.1726 82.8758V82.1476C76.1726 82.0763 76.1716 82.019 76.1685 81.9755C76.1664 81.932 76.1572 81.8968 76.1429 81.8709C76.1286 81.845 76.1061 81.8256 76.0754 81.8126C76.0447 81.7996 76.0028 81.7885 75.9465 81.7802V81.6914L76.3782 81.6766H76.4907L76.4702 81.9486L76.4958 81.9551C76.5869 81.8718 76.6605 81.8117 76.7168 81.7765C76.773 81.7414 76.8293 81.7136 76.8865 81.6942C76.9438 81.6747 77.0042 81.6646 77.0686 81.6646C77.1331 81.6646 77.1944 81.671 77.2466 81.6849C77.2988 81.6988 77.3448 81.7201 77.3847 81.7497C77.4246 81.7784 77.4573 81.8145 77.4839 81.857C77.5095 81.8996 77.5289 81.9514 77.5422 82.0116C77.5555 82.0717 77.5616 82.1476 77.5616 82.2401V82.8693C77.5616 82.9461 77.5637 83.0017 77.5688 83.0359C77.5739 83.0701 77.5821 83.097 77.5944 83.1164C77.6067 83.1349 77.624 83.1516 77.6476 83.1636C77.6711 83.1766 77.711 83.1904 77.7693 83.2043V83.2857L77.7713 83.2867Z" fill="#FDFDFD"/>
<path d="M78.3518 81.7739C78.4132 81.7646 78.4633 81.7498 78.5011 81.7276C78.539 81.7054 78.5687 81.6767 78.5912 81.6415C78.6126 81.6064 78.63 81.5629 78.6423 81.5101C78.6546 81.4574 78.6679 81.3797 78.6812 81.2788H78.943V81.6915H79.5394V81.8599H78.943V82.603C78.943 82.7112 78.9481 82.7973 78.9584 82.8611C78.9686 82.925 78.987 82.975 79.0136 83.011C79.0402 83.0471 79.0709 83.073 79.1057 83.0888C79.1404 83.1045 79.1844 83.1119 79.2386 83.1119C79.2877 83.1119 79.3338 83.1027 79.3767 83.0841C79.4197 83.0656 79.4626 83.0397 79.5036 83.0046L79.5864 83.0943C79.4995 83.1711 79.4166 83.2266 79.3379 83.2618C79.2601 83.296 79.1793 83.3136 79.0954 83.3136C78.9369 83.3136 78.8182 83.2711 78.7415 83.1859C78.6638 83.1008 78.6249 82.9676 78.6249 82.7862V81.859H78.3518V81.7739Z" fill="#FDFDFD"/>
</svg>
