<svg width="108" height="99" viewBox="0 0 108 99" fill="none" xmlns="http://www.w3.org/2000/svg">
<g clip-path="url(#clip0_1782_8238)">
<mask id="mask0_1782_8238" style="mask-type:luminance" maskUnits="userSpaceOnUse" x="-3" y="-8" width="114" height="115">
<path d="M110.769 -7.26904H-2.76892V106.269H110.769V-7.26904Z" fill="white"/>
</mask>
<g mask="url(#mask0_1782_8238)">
<path d="M43.7198 52.7723V53.9833H50.0664V56.2636H43.7198V57.5293H50.4827V59.5541H41.2073V50.8032H50.4827V52.7723H43.7198Z" fill="#FDFDFD"/>
<path d="M74.3315 50.8032L70.2073 59.5541H66.5804L62.6423 50.8032H65.7268L68.4864 57.0856L71.3763 50.8032H74.3315Z" fill="#FDFDFD"/>
<path d="M78.1149 50.6948V59.5539H75.3217V50.78L78.1149 50.6948Z" fill="#FDFDFD"/>
<path d="M88.9508 50.8032V59.5541H85.3165L82.4413 55.1776H82.0355V59.5541H79.5818V50.8032H82.8407L82.8902 50.82L86.4014 55.6475V50.8032H88.9508Z" fill="#FDFDFD"/>
<path d="M102.254 59.5541H99.3923L96.4393 53.1654L93.3727 59.5541H90.3492L94.5375 50.8032H98.3316L102.254 59.5541Z" fill="#FDFDFD"/>
<mask id="mask1_1782_8238" style="mask-type:luminance" maskUnits="userSpaceOnUse" x="-3" y="-8" width="114" height="115">
<path d="M110.769 -7.26904H-2.76892V106.269H110.769V-7.26904Z" fill="white"/>
</mask>
<g mask="url(#mask1_1782_8238)">
<path d="M34.1375 32.812L30.7124 42.4995C32.3871 42.3828 34.1942 42.3345 36.0792 42.3997L39.4874 32.8131H34.1364L34.1375 32.812Z" fill="#FDFDFD"/>
<path d="M61.2606 56.5226C61.8693 55.917 62.2425 55.0813 62.2425 54.153C62.2425 52.3059 60.7434 50.8047 58.891 50.8047H52.4172V59.5555H54.6954V57.5318H57.3351L58.4442 59.5555H61.2438L60.018 57.3237C60.0264 57.3184 60.0285 57.3079 60.0337 57.3026C60.4995 57.1344 60.9179 56.8642 61.2595 56.5236M58.7911 54.8805C58.604 55.0676 58.3475 55.1812 58.0636 55.1812H54.7774V53.128H58.0636C58.6313 53.128 59.0886 53.5874 59.0886 54.153C59.0886 54.4368 58.9751 54.6944 58.7911 54.8805Z" fill="#FDFDFD"/>
<path d="M102.255 60.9131H40.918V61.6164H102.255V60.9131Z" fill="#FDFDFD"/>
<path d="M46.8765 65.0354V65.7219H44.6016V62.4346H46.8523V63.1211H45.3911V63.7119H46.6726V64.3973H45.3911V65.0354H46.8765Z" fill="#FDFDFD"/>
<path d="M50.733 65.7838C49.7396 65.7838 49.0121 65.0605 49.0121 64.0818C49.0121 63.103 49.7501 62.3745 50.733 62.3745C51.5509 62.3745 52.0902 62.857 52.2837 63.3722L51.5267 63.6791C51.4132 63.3385 51.1294 63.1209 50.7183 63.1209C50.1653 63.1209 49.8153 63.513 49.8153 64.0955C49.8153 64.6779 50.1748 65.0742 50.8035 65.0742C51.205 65.0742 51.4941 64.9133 51.6266 64.5349H50.7141V63.9388H52.4119C52.4119 65.1352 51.6792 65.7828 50.733 65.7828" fill="#FDFDFD"/>
<path d="M56.1051 64.3784V65.7219H55.3145V64.3878L54.1234 62.4346H55.0075L55.7119 63.6877L56.412 62.4346H57.2962L56.1051 64.3784Z" fill="#FDFDFD"/>
<path d="M61.9877 63.4947C61.9877 64.1328 61.5294 64.5491 60.8198 64.5491H60.229V65.7223H59.4395V62.436H60.8208C61.5399 62.436 61.9888 62.8523 61.9888 63.4957M61.1835 63.4947C61.1835 63.2823 61.0511 63.1257 60.7725 63.1257H60.229V63.8584H60.7725C61.0511 63.8584 61.1835 63.7028 61.1835 63.4947Z" fill="#FDFDFD"/>
<path d="M66.7146 63.14H65.76V65.7219H64.9695V63.14H64.0149V62.4346H66.7146V63.14Z" fill="#FDFDFD"/>
<path d="M75.9685 65.7838C74.975 65.7838 74.2476 65.0605 74.2476 64.0818C74.2476 63.103 74.9856 62.3745 75.9685 62.3745C76.7864 62.3745 77.3257 62.857 77.5191 63.3722L76.7622 63.6791C76.6487 63.3385 76.3648 63.1209 75.9538 63.1209C75.4008 63.1209 75.0507 63.513 75.0507 64.0955C75.0507 64.6779 75.4103 65.0742 76.0389 65.0742C76.4405 65.0742 76.7296 64.9133 76.8621 64.5349H75.9496V63.9388H77.6474C77.6474 65.1352 76.9146 65.7828 75.9685 65.7828" fill="#FDFDFD"/>
<path d="M80.8098 64.4124H80.7246V65.7223H79.9393V62.436H81.3207C82.0398 62.436 82.4887 62.8523 82.4887 63.4242C82.4887 63.9015 82.1628 64.28 81.6329 64.3841L82.5602 65.7223H81.6802L80.8098 64.4124ZM80.7246 63.8542H81.2965C81.5615 63.8542 81.717 63.7175 81.717 63.4905C81.717 63.2634 81.5615 63.1267 81.2965 63.1267H80.7246V63.8553V63.8542Z" fill="#FDFDFD"/>
<path d="M84.6294 64.0818C84.6294 63.1125 85.3905 62.3745 86.3651 62.3745C87.3396 62.3745 88.0913 63.1125 88.0913 64.0818C88.0913 65.0511 87.3343 65.7838 86.3651 65.7838C85.3958 65.7838 84.6294 65.0416 84.6294 64.0818ZM87.287 64.0765C87.287 63.5236 86.9327 63.1209 86.3651 63.1209C85.7974 63.1209 85.4336 63.5225 85.4336 64.0765C85.4336 64.6306 85.8068 65.0363 86.3651 65.0363C86.9233 65.0363 87.287 64.639 87.287 64.0765Z" fill="#FDFDFD"/>
<path d="M93.0802 62.4346V64.4299C93.0802 65.1679 92.6355 65.7829 91.7324 65.7829C90.8294 65.7829 90.3752 65.1679 90.3752 64.4299V62.4346H91.17V64.4257C91.17 64.7894 91.354 65.0354 91.7324 65.0354C92.1109 65.0354 92.2907 64.7894 92.2907 64.4257V62.4346H93.0802Z" fill="#FDFDFD"/>
<path d="M98.0437 63.4947C98.0437 64.1328 97.5853 64.5491 96.8757 64.5491H96.2849V65.7223H95.4954V62.436H96.8767C97.5958 62.436 98.0447 62.8523 98.0447 63.4957M97.2394 63.4947C97.2394 63.2823 97.107 63.1257 96.8284 63.1257H96.2849V63.8584H96.8284C97.107 63.8584 97.2394 63.7028 97.2394 63.4947Z" fill="#FDFDFD"/>
<path d="M44.0841 43.9626C43.7918 43.8922 43.4975 43.827 43.2052 43.765C43.1863 43.7597 43.1705 43.7566 43.1569 43.7566C43.1379 43.7534 43.1274 43.7513 43.1274 43.7513C34.4144 41.9357 25.6447 43.5053 22.4772 44.2086C22.1124 44.2896 21.817 44.36 21.612 44.4084C21.5826 44.4168 21.5552 44.4252 21.5279 44.4304C21.4985 44.4388 21.4711 44.4472 21.4469 44.4525C21.4385 44.4557 21.4364 44.4557 21.4312 44.4557C21.4122 44.4609 21.3954 44.4662 21.3797 44.4693C21.3145 44.4861 21.2714 44.4967 21.2525 44.5051C21.244 44.5051 21.2419 44.5082 21.2419 44.5082L20.3252 41.0947H14.9364L15.134 41.8548L16.2778 46.2502C16.2778 46.2502 16.2726 46.2533 16.2589 46.2586C15.9446 46.3669 11.9739 47.7735 8.87367 50.4385C8.86841 50.4437 8.86315 50.449 8.8579 50.4542C7.96221 51.2227 7.14326 52.0984 6.50409 53.0782C6.50093 53.0814 6.49883 53.0866 6.49568 53.0887C6.03312 53.8898 5.75453 54.7498 5.74927 55.6665C5.74612 56.0996 5.80288 56.5453 5.93324 57.0079C5.93324 57.0079 6.11722 58.5196 7.87811 59.9914C7.94329 60.0461 8.00741 60.0997 8.07575 60.1481C8.17562 60.2259 8.2818 60.3037 8.39113 60.3804C12.8475 63.5742 20.5849 62.8225 20.5849 62.8225L21.3397 65.7219H27.5591L33.5324 49.1801L33.7164 48.6713C31.9934 48.6849 30.2209 48.8416 28.6061 49.0529V49.0497C28.4705 49.0655 28.3381 49.0823 28.2035 49.0981L24.9551 58.3062L22.7474 50.0989L22.6769 49.8308L22.5602 49.403C22.5602 49.403 22.5981 49.3946 22.6685 49.3756C24.6702 48.8616 26.696 48.5157 28.6734 48.2907V48.2939C30.7213 48.029 33.0236 47.8418 35.1524 47.9291V66.1887H39.9999V48.0994C43.4512 48.3454 45.8376 48.7733 46.2592 48.8542C46.3023 48.8626 46.3265 48.8679 46.3265 48.8679V45.8223C46.3265 44.7837 45.0281 44.2265 44.0862 43.9616M13.4646 54.5563C13.965 53.5145 14.928 52.1542 16.7078 51.4803C16.7099 51.4803 16.713 51.4771 16.713 51.4771C16.9811 51.3773 17.265 51.2879 17.5656 51.2227L19.7355 59.5657C19.6545 59.5741 19.5673 59.5793 19.4758 59.5846C18.066 59.6634 15.2476 59.5625 13.7873 57.6965C13.3952 57.1992 13.1871 56.6011 13.165 55.9892C13.1461 55.5046 13.2491 55.0105 13.4656 54.5553" fill="#FDFDFD"/>
<path d="M99.3104 55.3877H93.4232V58.0159H99.3104V55.3877Z" fill="#FDFDFD"/>
</g>
</g>
</g>
<defs>
<clipPath id="clip0_1782_8238">
<rect width="98" height="98" fill="white" transform="translate(5 0.5)"/>
</clipPath>
</defs>
</svg>
